<svg version="1.1" id="Layer_1" xmlns="http://www.w3.org/2000/svg" xmlns:xlink="http://www.w3.org/1999/xlink" x="0px" y="0px"
	 width="100%" viewBox="0 0 462 109" enable-background="new 0 0 462 109" xml:space="preserve">
<path fill="#FEFDFD" opacity="1.000000" stroke="none" 
	d="
M463.000000,60.000000 
	C463.000000,76.644211 463.000000,93.288414 463.000000,110.000000 
	C371.645782,110.000000 280.291565,110.000000 188.611633,109.633453 
	C195.314148,108.530602 201.463165,105.935692 206.320816,100.664627 
	C212.474823,93.986908 213.974060,85.749931 214.444183,77.227654 
	C228.061447,93.944389 252.518616,91.059685 261.702820,80.214745 
	C259.449066,77.029198 257.168732,73.806061 254.914062,70.619156 
	C239.384583,79.693169 224.114319,75.431892 223.414215,61.948971 
	C237.230438,61.948971 251.036423,61.948971 264.876373,62.014301 
	C264.910339,62.079632 265.045654,62.021507 265.025879,62.486900 
	C265.006134,71.000565 265.006134,79.048836 265.006134,86.957344 
	C270.081635,86.957344 274.537018,86.957344 279.277313,86.980995 
	C279.620514,86.663513 279.678772,86.322388 279.804993,85.518326 
	C279.827606,74.709618 279.782288,64.363838 279.843018,53.632416 
	C282.228119,39.765923 290.535889,35.632141 302.888092,41.206440 
	C304.917664,37.526917 306.962646,33.819386 309.087341,29.967365 
	C304.107422,26.157701 298.529358,24.098728 293.015045,25.329401 
	C287.934937,26.463161 283.341766,29.778624 278.554413,32.123096 
	C278.365143,30.956806 278.023773,28.853365 277.648132,26.538763 
	C273.531982,26.538763 269.488800,26.538763 264.895569,26.538763 
	C264.895569,31.311682 264.895569,35.776779 264.586182,40.087395 
	C259.160278,30.519846 251.055527,25.890104 240.549606,25.052479 
	C229.782028,24.193991 221.260178,28.564262 214.094788,35.813713 
	C214.035309,32.403084 214.035309,29.464155 214.035309,26.606920 
	C202.445602,25.520214 202.445602,25.520214 199.949509,32.329823 
	C189.173172,22.887699 177.740768,22.376881 165.514069,29.697342 
	C158.850128,25.772623 152.262314,23.403902 144.541718,26.548056 
	C143.508438,27.106974 142.788040,27.564724 141.815475,28.038189 
	C141.348892,28.293869 141.134491,28.533836 140.642487,28.848431 
	C140.146927,29.224924 139.928986,29.526794 139.782135,29.842716 
	C139.853241,29.856771 139.818344,29.716089 139.555420,29.808353 
	C139.094269,30.203768 138.896011,30.506920 138.768158,30.826681 
	C138.838531,30.843290 138.802673,30.703167 138.541473,30.800022 
	C138.090546,31.206463 137.900818,31.516048 137.769180,31.841146 
	C137.827286,31.856657 137.789536,31.742455 137.453003,31.925615 
	C136.440643,32.083511 135.219818,32.195923 135.173294,32.011700 
	C134.703278,30.151096 134.425430,28.241951 134.122757,26.512897 
	C129.787598,26.512897 126.011543,26.512897 122.023956,26.512897 
	C122.023956,46.784042 122.023956,66.805504 122.023956,86.997559 
	C126.863686,86.997559 131.436691,86.997559 136.402557,86.997559 
	C136.402557,79.965508 136.145523,73.157272 136.475052,66.377556 
	C136.802780,59.635098 137.719925,52.921288 138.297836,46.175060 
	C138.217072,46.155205 138.258270,46.316357 138.501724,46.184025 
	C138.836563,45.702404 138.927963,45.353115 139.286011,44.796619 
	C144.849030,38.340828 149.803650,37.131161 156.003220,40.860558 
	C150.016525,53.724659 151.874222,67.240341 160.551865,75.875023 
	C165.710602,81.008217 171.926422,83.708961 179.176178,84.272430 
	C186.541565,84.844887 193.086472,82.835960 198.961685,77.717560 
	C199.231186,89.974785 192.736160,96.915405 181.350952,96.259697 
	C174.954575,95.891312 168.640656,94.090973 161.759033,92.839264 
	C160.437424,95.587265 158.682236,99.236778 156.784698,103.182281 
	C159.186203,104.269150 161.082733,105.280472 163.084000,106.000748 
	C167.025253,107.419243 171.024658,108.676216 175.000000,110.000000 
	C116.999977,110.000000 58.999954,110.000000 1.000000,110.000000 
	C1.000000,102.571487 1.000000,95.254478 1.453844,87.556580 
	C3.570125,87.189270 5.249748,87.054497 6.891725,87.244705 
	C11.525393,87.781479 15.072084,86.876411 15.175581,80.700203 
	C23.686296,89.133011 33.465183,91.327820 43.539040,86.921364 
	C49.518993,84.305649 54.350811,79.065117 59.818111,75.352280 
	C68.104500,91.188843 84.442947,93.046783 101.608368,80.324341 
	C102.184814,82.657974 102.748573,84.940269 103.227898,86.880753 
	C107.650635,86.880753 111.544174,86.880753 115.460495,86.880753 
	C115.460495,66.540756 115.460495,46.622982 115.460495,26.476503 
	C110.589195,26.476503 106.007751,26.476503 100.878006,26.476503 
	C100.878006,32.653309 100.936913,38.602680 100.861702,44.550362 
	C100.783890,50.704048 101.128212,56.932755 100.287476,62.989784 
	C99.193611,70.870483 91.982094,75.687233 83.838264,74.924362 
	C76.904488,74.274841 72.572540,69.140198 72.196884,61.067852 
	C72.111740,59.238293 72.145164,57.402664 72.144356,55.569824 
	C72.140091,45.951393 72.142357,36.332966 72.142357,26.612888 
	C66.899788,26.612888 62.184227,26.612888 57.088150,26.612888 
	C57.088150,29.799675 57.088150,32.615917 56.755264,35.292770 
	C51.037148,29.632175 44.713146,25.934778 36.909554,25.116371 
	C29.172174,24.304905 22.250656,26.309450 15.996865,32.313370 
	C15.996865,23.663855 16.080240,16.185337 15.951102,8.710489 
	C15.906618,6.135618 15.332288,3.569900 15.000000,1.000000 
	C164.333344,1.000000 313.666687,1.000000 463.000000,1.000000 
	C463.000000,17.090876 463.000000,33.076778 462.657227,49.372849 
	C458.192352,31.697519 444.303467,22.263233 428.417053,26.657549 
	C416.068512,30.073261 407.679718,41.799988 407.315399,56.155693 
	C406.946014,70.710899 415.271454,83.319252 427.660828,87.361031 
	C437.980591,90.727631 453.019165,88.304054 458.987976,79.523636 
	C457.545776,77.613342 456.091187,75.686646 454.651031,73.779060 
	C446.322113,79.881142 441.038086,81.333992 432.864166,79.959763 
	C423.563934,78.396187 415.582977,68.262093 417.725220,60.274048 
	C432.780579,60.257500 447.394958,60.143585 462.259460,60.104912 
	C462.673096,60.120098 462.836548,60.060047 463.000000,60.000000 
M326.238586,29.764603 
	C325.802551,30.166231 325.366547,30.567860 324.462280,31.089401 
	C324.144318,31.247520 323.968353,31.503326 323.450653,32.019691 
	C323.284821,32.302628 323.119019,32.585564 322.225464,32.620205 
	C322.095795,31.086531 321.966095,29.552856 321.663483,27.180321 
	C318.924835,27.180321 316.186218,27.180321 313.342682,27.180321 
	C313.342682,47.328136 313.342682,67.043297 313.342682,86.983627 
	C316.365662,86.983627 319.231964,86.983627 322.326691,86.983627 
	C322.326691,77.524536 322.098938,68.399002 322.412659,59.292118 
	C322.598907,53.885281 323.638275,48.507828 324.823334,42.719185 
	C328.112030,36.754658 333.213623,33.765896 339.953186,34.370876 
	C346.980408,35.001671 350.647644,39.670223 352.484192,47.038101 
	C352.484192,60.404446 352.484192,73.770790 352.484192,88.083344 
	C356.470032,87.197289 359.142548,86.603188 361.953949,85.079857 
	C361.965088,73.592873 361.801178,62.102196 362.043060,50.620071 
	C362.235077,41.503922 369.192932,34.443867 377.635925,34.209919 
	C385.849854,33.982315 391.716064,40.062412 392.077240,49.874043 
	C392.419922,59.184158 392.222290,68.514275 392.255768,77.835609 
	C392.266785,80.904625 392.257507,83.973717 392.257507,87.035477 
	C395.654968,87.035477 398.245483,87.035477 400.977295,87.035477 
	C400.977295,72.995125 401.483856,59.193829 400.796082,45.452305 
	C400.350586,36.551365 395.477783,29.670944 386.467194,26.974289 
	C377.129364,24.179695 368.710876,25.971977 361.840851,33.287472 
	C360.872192,34.318913 359.937500,35.382206 358.949280,36.472431 
	C349.772552,24.900976 337.697510,22.405781 326.238586,29.764603 
z"/>
<path fill="#6F2F2B" opacity="1.000000" stroke="none" 
	d="
M175.375000,110.000000 
	C171.024658,108.676216 167.025253,107.419243 163.084000,106.000748 
	C161.082733,105.280472 159.186203,104.269150 156.784698,103.182281 
	C158.682236,99.236778 160.437424,95.587265 161.759033,92.839264 
	C168.640656,94.090973 174.954575,95.891312 181.350952,96.259697 
	C192.736160,96.915405 199.231186,89.974785 198.961685,77.717560 
	C193.086472,82.835960 186.541565,84.844887 179.176178,84.272430 
	C171.926422,83.708961 165.710602,81.008217 160.551865,75.875023 
	C151.874222,67.240341 150.016525,53.724659 156.362076,40.991295 
	C158.326721,40.037598 160.215195,39.634026 161.023956,38.476246 
	C162.894287,35.798767 164.241638,32.755989 165.801086,29.861355 
	C177.740768,22.376881 189.173172,22.887699 199.949509,32.329823 
	C202.445602,25.520214 202.445602,25.520214 214.035309,26.606920 
	C214.035309,29.464155 214.035309,32.403084 213.979294,36.125576 
	C205.505203,50.349522 205.814072,63.739021 214.157532,77.081665 
	C213.974060,85.749931 212.474823,93.986908 206.320816,100.664627 
	C201.463165,105.935692 195.314148,108.530602 188.142975,109.633453 
	C188.000000,110.000000 187.500000,110.000000 187.034485,109.652161 
	C183.712646,109.536224 180.856323,109.768112 178.000000,110.000000 
	C177.250000,110.000000 176.500000,110.000000 175.375000,110.000000 
M199.817520,52.978348 
	C198.178741,40.383537 184.911209,34.686390 175.070831,40.586723 
	C167.990295,44.832245 165.286163,53.483509 168.410873,61.499619 
	C171.209351,68.678818 179.011597,72.655708 187.216324,71.085014 
	C194.867523,69.620293 199.801666,62.885021 199.817520,52.978348 
z"/>
<path fill="#9CB818" opacity="1.000000" stroke="none" 
	d="
M59.698853,75.004745 
	C54.350811,79.065117 49.518993,84.305649 43.539040,86.921364 
	C33.465183,91.327820 23.686296,89.133011 15.175581,80.700203 
	C15.072084,86.876411 11.525393,87.781479 6.891725,87.244705 
	C5.249748,87.054497 3.570125,87.189270 1.453844,87.087845 
	C1.000000,58.333290 1.000000,29.666580 1.000000,1.000000 
	C5.424131,1.000000 9.737938,1.000000 14.525872,1.000000 
	C15.332288,3.569900 15.906618,6.135618 15.951102,8.710489 
	C16.080240,16.185337 15.996865,23.663855 15.996865,32.313370 
	C22.250656,26.309450 29.172174,24.304905 36.909554,25.116371 
	C44.713146,25.934778 51.037148,29.632175 56.919716,35.559204 
	C66.259209,48.505913 66.827194,61.530411 59.698853,75.004745 
M45.172707,44.387337 
	C44.295341,43.632195 43.473984,42.797424 42.531666,42.134632 
	C35.606876,37.263966 26.832357,37.863914 20.585739,43.597225 
	C14.609738,49.082153 13.167179,58.873924 17.287161,65.987267 
	C21.468189,73.206009 29.941395,76.476685 37.851631,73.925186 
	C49.735088,70.092110 53.421646,56.425144 45.172707,44.387337 
z"/>
<path fill="#E40914" opacity="1.000000" stroke="none" 
	d="
M417.284241,60.176682 
	C415.582977,68.262093 423.563934,78.396187 432.864166,79.959763 
	C441.038086,81.333992 446.322113,79.881142 454.651031,73.779060 
	C456.091187,75.686646 457.545776,77.613342 458.987976,79.523636 
	C453.019165,88.304054 437.980591,90.727631 427.660828,87.361031 
	C415.271454,83.319252 406.946014,70.710899 407.315399,56.155693 
	C407.679718,41.799988 416.068512,30.073261 428.417053,26.657549 
	C444.303467,22.263233 458.192352,31.697519 462.657227,49.841507 
	C463.000000,53.030594 463.000000,56.061188 463.000000,59.545891 
	C462.836548,60.060047 462.673096,60.120098 461.969299,59.801613 
	C446.910980,59.279873 432.392944,59.132034 417.874573,59.042809 
	C417.680115,59.041611 417.481110,59.782272 417.284241,60.176682 
M416.688141,53.085335 
	C416.973846,53.394974 417.258545,53.974274 417.545441,53.975357 
	C428.825256,54.017914 440.105621,54.041531 451.384583,53.932957 
	C452.181335,53.925285 452.968231,52.893085 453.730804,51.470493 
	C453.332336,50.038502 453.007751,48.580982 452.523376,47.178654 
	C449.334015,37.945282 441.752106,32.995174 432.775940,34.244625 
	C424.179077,35.441284 417.408112,43.185974 416.688141,53.085335 
z"/>
<path fill="#AC8D8C" opacity="1.000000" stroke="none" 
	d="
M178.449982,110.000000 
	C180.856323,109.768112 183.712646,109.536224 186.784485,109.652161 
	C184.299988,110.000000 181.599976,110.000000 178.449982,110.000000 
z"/>
<path fill="#9CB919" opacity="1.000000" stroke="none" 
	d="
M214.444183,77.227654 
	C205.814072,63.739021 205.505203,50.349522 214.038757,36.597275 
	C221.260178,28.564262 229.782028,24.193991 240.549606,25.052479 
	C251.055527,25.890104 259.160278,30.519846 264.646179,40.525154 
	C264.957855,48.061260 264.900146,55.005116 264.842407,61.948971 
	C251.036423,61.948971 237.230438,61.948971 223.414215,61.948971 
	C224.114319,75.431892 239.384583,79.693169 254.914062,70.619156 
	C257.168732,73.806061 259.449066,77.029198 261.702820,80.214745 
	C252.518616,91.059685 228.061447,93.944389 214.444183,77.227654 
M252.641205,50.639027 
	C252.565384,49.399479 252.802124,48.034191 252.362366,46.941051 
	C249.754379,40.458118 243.789078,37.249317 236.207764,38.067169 
	C229.184967,38.824764 224.236877,43.625660 223.549744,51.514915 
	C229.983215,51.677116 236.417023,51.964520 242.849991,51.946762 
	C245.897552,51.938351 248.943512,51.346638 252.641205,50.639027 
z"/>
<path fill="#EA7307" opacity="1.000000" stroke="none" 
	d="
M59.818108,75.352280 
	C66.827194,61.530411 66.259209,48.505913 57.252602,35.698589 
	C57.088150,32.615917 57.088150,29.799675 57.088150,26.612888 
	C62.184227,26.612888 66.899788,26.612888 72.142357,26.612888 
	C72.142357,36.332966 72.140091,45.951393 72.144356,55.569824 
	C72.145164,57.402664 72.111740,59.238293 72.196884,61.067852 
	C72.572540,69.140198 76.904488,74.274841 83.838264,74.924362 
	C91.982094,75.687233 99.193611,70.870483 100.287476,62.989784 
	C101.128212,56.932755 100.783890,50.704048 100.861702,44.550362 
	C100.936913,38.602680 100.878006,32.653309 100.878006,26.476503 
	C106.007751,26.476503 110.589195,26.476503 115.460495,26.476503 
	C115.460495,46.622982 115.460495,66.540756 115.460495,86.880753 
	C111.544174,86.880753 107.650635,86.880753 103.227898,86.880753 
	C102.748573,84.940269 102.184814,82.657974 101.608368,80.324341 
	C84.442947,93.046783 68.104500,91.188843 59.818108,75.352280 
z"/>
<path fill="#E30511" opacity="1.000000" stroke="none" 
	d="
M323.934387,31.856823 
	C323.968353,31.503326 324.144318,31.247520 325.026550,31.005165 
	C326.002563,30.474667 326.414368,30.028400 326.826141,29.582138 
	C337.697510,22.405781 349.772552,24.900976 358.949280,36.472431 
	C359.937500,35.382206 360.872192,34.318913 361.840851,33.287472 
	C368.710876,25.971977 377.129364,24.179695 386.467194,26.974289 
	C395.477783,29.670944 400.350586,36.551365 400.796082,45.452305 
	C401.483856,59.193829 400.977295,72.995125 400.977295,87.035477 
	C398.245483,87.035477 395.654968,87.035477 392.257507,87.035477 
	C392.257507,83.973717 392.266785,80.904625 392.255768,77.835609 
	C392.222290,68.514275 392.419922,59.184158 392.077240,49.874043 
	C391.716064,40.062412 385.849854,33.982315 377.635925,34.209919 
	C369.192932,34.443867 362.235077,41.503922 362.043060,50.620071 
	C361.801178,62.102196 361.965088,73.592873 361.446747,85.541809 
	C354.003876,85.980682 354.002533,85.980682 354.001556,79.093544 
	C354.000244,69.674179 354.073029,60.253731 353.931091,50.836498 
	C353.907257,49.253891 352.958801,47.685215 352.437561,46.110104 
	C350.647644,39.670223 346.980408,35.001671 339.953186,34.370876 
	C333.213623,33.765896 328.112030,36.754658 324.196777,43.034668 
	C322.726898,46.091938 321.238373,48.814571 321.156311,51.578972 
	C320.860901,61.528885 321.061462,71.492966 321.022003,81.451492 
	C321.013916,83.490013 321.682678,85.949440 318.175842,86.052597 
	C314.374878,86.164398 314.972107,83.555588 314.969482,81.302933 
	C314.951324,65.701019 314.958344,50.099087 314.960419,34.497162 
	C314.961304,27.901730 314.964783,27.901730 321.836426,28.019182 
	C321.966095,29.552856 322.095795,31.086531 322.731934,32.922581 
	C323.470398,32.768913 323.702393,32.312866 323.934387,31.856823 
z"/>
<path fill="#266B29" opacity="1.000000" stroke="none" 
	d="
M264.876404,62.014301 
	C264.900146,55.005116 264.957855,48.061260 264.955566,40.679642 
	C264.895569,35.776779 264.895569,31.311682 264.895569,26.538763 
	C269.488800,26.538763 273.531982,26.538763 277.648132,26.538763 
	C278.023773,28.853365 278.365143,30.956806 278.554413,32.123096 
	C283.341766,29.778624 287.934937,26.463161 293.015045,25.329401 
	C298.529358,24.098728 304.107422,26.157701 309.087341,29.967365 
	C306.962646,33.819386 304.917664,37.526917 302.888092,41.206440 
	C290.535889,35.632141 282.228119,39.765923 279.469849,53.750839 
	C278.659241,55.778019 278.056458,57.298409 278.041077,58.824718 
	C277.949738,67.880211 277.994507,76.937065 277.531128,85.993927 
	C276.238312,85.994514 275.407715,86.005211 274.577454,85.993149 
	C264.714478,85.849846 266.230103,87.280113 265.972748,77.667328 
	C265.833008,72.447525 265.365387,67.236496 265.045654,62.021507 
	C265.045654,62.021507 264.910339,62.079632 264.876404,62.014301 
z"/>
<path fill="#E30210" opacity="1.000000" stroke="none" 
	d="
M165.514069,29.697342 
	C164.241638,32.755989 162.894287,35.798767 161.023956,38.476246 
	C160.215195,39.634026 158.326721,40.037598 156.569855,40.653030 
	C149.803650,37.131161 144.849030,38.340828 139.056976,44.944908 
	C138.460266,45.639061 138.359268,45.977711 138.258270,46.316360 
	C138.258270,46.316357 138.217072,46.155205 137.936401,46.286484 
	C136.770462,49.371822 135.240753,52.300205 135.121826,55.284805 
	C134.777267,63.931396 134.721008,72.613029 135.107590,81.256042 
	C135.326691,86.154625 132.757812,86.176834 129.275269,86.039276 
	C125.984268,85.909286 122.768211,86.835724 122.883011,81.312500 
	C123.215172,65.331131 122.956688,49.338127 123.055679,33.350471 
	C123.068062,31.350321 121.742722,27.928043 125.603882,28.146921 
	C128.680969,28.321350 133.476959,25.631655 134.107285,31.901892 
	C134.178650,32.611691 135.224686,33.223499 135.818756,33.880745 
	C136.475677,33.167980 137.132599,32.455215 137.789536,31.742453 
	C137.789536,31.742455 137.827286,31.856657 138.050720,31.770081 
	C138.450333,31.356724 138.626495,31.029943 138.802673,30.703167 
	C138.802673,30.703167 138.838531,30.843290 139.051620,30.763153 
	C139.449265,30.360708 139.633804,30.038401 139.818344,29.716091 
	C139.818344,29.716089 139.853241,29.856771 140.064774,29.776072 
	C140.490891,29.388180 140.705475,29.080988 140.920074,28.773800 
	C141.134491,28.533836 141.348892,28.293869 142.180206,28.023008 
	C143.482925,27.477039 144.168777,26.961966 144.854614,26.446892 
	C152.262314,23.403902 158.850128,25.772623 165.514069,29.697342 
z"/>
<path fill="#E51F21" opacity="1.000000" stroke="none" 
	d="
M321.749939,27.599751 
	C314.964783,27.901730 314.961304,27.901730 314.960419,34.497162 
	C314.958344,50.099087 314.951324,65.701019 314.969482,81.302933 
	C314.972107,83.555588 314.374878,86.164398 318.175842,86.052597 
	C321.682678,85.949440 321.013916,83.490013 321.022003,81.451492 
	C321.061462,71.492966 320.860901,61.528885 321.156311,51.578972 
	C321.238373,48.814571 322.726898,46.091938 323.932129,43.233654 
	C323.638275,48.507828 322.598907,53.885281 322.412659,59.292118 
	C322.098938,68.399002 322.326691,77.524536 322.326691,86.983627 
	C319.231964,86.983627 316.365662,86.983627 313.342682,86.983627 
	C313.342682,67.043297 313.342682,47.328136 313.342682,27.180321 
	C316.186218,27.180321 318.924835,27.180321 321.749939,27.599751 
z"/>
<path fill="#E30809" opacity="1.000000" stroke="none" 
	d="
M137.453003,31.925613 
	C137.132599,32.455215 136.475677,33.167980 135.818756,33.880745 
	C135.224686,33.223499 134.178650,32.611691 134.107285,31.901892 
	C133.476959,25.631655 128.680969,28.321350 125.603882,28.146921 
	C121.742722,27.928043 123.068062,31.350321 123.055679,33.350471 
	C122.956688,49.338127 123.215172,65.331131 122.883011,81.312500 
	C122.768211,86.835724 125.984268,85.909286 129.275269,86.039276 
	C132.757812,86.176834 135.326691,86.154625 135.107590,81.256042 
	C134.721008,72.613029 134.777267,63.931396 135.121826,55.284805 
	C135.240753,52.300205 136.770462,49.371822 138.017166,46.306335 
	C137.719925,52.921288 136.802780,59.635098 136.475052,66.377556 
	C136.145523,73.157272 136.402557,79.965508 136.402557,86.997559 
	C131.436691,86.997559 126.863686,86.997559 122.023956,86.997559 
	C122.023956,66.805504 122.023956,46.784042 122.023956,26.512897 
	C126.011543,26.512897 129.787598,26.512897 134.122757,26.512897 
	C134.425430,28.241951 134.703278,30.151096 135.173294,32.011700 
	C135.219818,32.195923 136.440643,32.083511 137.453003,31.925613 
z"/>
<path fill="#17641B" opacity="1.000000" stroke="none" 
	d="
M277.993530,85.993462 
	C277.994507,76.937065 277.949738,67.880211 278.041077,58.824718 
	C278.056458,57.298409 278.659241,55.778019 279.363800,54.136475 
	C279.782288,64.363838 279.827606,74.709618 279.607544,85.522202 
	C279.342194,85.988998 278.947876,86.013916 278.709229,86.010605 
	C278.470612,86.007286 277.993530,85.993462 277.993530,85.993462 
z"/>
<path fill="#E20000" opacity="1.000000" stroke="none" 
	d="
M352.460876,46.574100 
	C352.958801,47.685215 353.907257,49.253891 353.931091,50.836498 
	C354.073029,60.253731 354.000244,69.674179 354.001556,79.093544 
	C354.002533,85.980682 354.003876,85.980682 361.377319,86.006424 
	C359.142548,86.603188 356.470032,87.197289 352.484192,88.083344 
	C352.484192,73.770790 352.484192,60.404446 352.460876,46.574100 
z"/>
<path fill="#E20000" opacity="1.000000" stroke="none" 
	d="
M417.725220,60.274048 
	C417.481110,59.782272 417.680115,59.041611 417.874573,59.042809 
	C432.392944,59.132034 446.910980,59.279873 461.719177,59.726372 
	C447.394958,60.143585 432.780579,60.257500 417.725220,60.274048 
z"/>
<path fill="#0A640F" opacity="1.000000" stroke="none" 
	d="
M277.531128,85.993927 
	C277.993530,85.993462 278.470612,86.007286 278.727997,86.245964 
	C278.985382,86.484642 278.992401,86.957344 278.992401,86.957344 
	C274.537018,86.957344 270.081635,86.957344 265.006134,86.957344 
	C265.006134,79.048836 265.006134,71.000565 265.025879,62.486900 
	C265.365387,67.236496 265.833008,72.447525 265.972748,77.667328 
	C266.230103,87.280113 264.714478,85.849846 274.577454,85.993149 
	C275.407715,86.005211 276.238312,85.994514 277.531128,85.993927 
z"/>
<path fill="#E30809" opacity="1.000000" stroke="none" 
	d="
M144.541718,26.548058 
	C144.168777,26.961966 143.482925,27.477039 142.432373,28.007294 
	C142.788040,27.564724 143.508438,27.106974 144.541718,26.548058 
z"/>
<path fill="#E51F21" opacity="1.000000" stroke="none" 
	d="
M326.532349,29.673370 
	C326.414368,30.028400 326.002563,30.474667 325.260651,30.945210 
	C325.366547,30.567860 325.802551,30.166231 326.532349,29.673370 
z"/>
<path fill="#E51F21" opacity="1.000000" stroke="none" 
	d="
M323.692505,31.938259 
	C323.702393,32.312866 323.470398,32.768913 323.095795,33.046726 
	C323.119019,32.585564 323.284821,32.302628 323.692505,31.938259 
z"/>
<path fill="#E30809" opacity="1.000000" stroke="none" 
	d="
M138.501740,46.184029 
	C138.359268,45.977711 138.460266,45.639061 138.790314,45.152122 
	C138.927963,45.353115 138.836563,45.702404 138.501740,46.184029 
z"/>
<path fill="#E30809" opacity="1.000000" stroke="none" 
	d="
M139.555420,29.808353 
	C139.633804,30.038401 139.449265,30.360708 138.981232,30.746544 
	C138.896011,30.506920 139.094269,30.203768 139.555420,29.808353 
z"/>
<path fill="#E30809" opacity="1.000000" stroke="none" 
	d="
M138.541473,30.800020 
	C138.626495,31.029943 138.450333,31.356724 137.992615,31.754570 
	C137.900818,31.516048 138.090546,31.206463 138.541473,30.800020 
z"/>
<path fill="#E30809" opacity="1.000000" stroke="none" 
	d="
M140.642487,28.848427 
	C140.705475,29.080988 140.490891,29.388180 139.993683,29.762016 
	C139.928986,29.526794 140.146927,29.224924 140.642487,28.848427 
z"/>
<path fill="#266B29" opacity="1.000000" stroke="none" 
	d="
M279.277313,86.980995 
	C278.992401,86.957344 278.985382,86.484642 278.966614,86.249283 
	C278.947876,86.013916 279.342194,85.988998 279.539612,85.985123 
	C279.678772,86.322388 279.620514,86.663513 279.277313,86.980995 
z"/>
<path fill="#FDFCFC" opacity="1.000000" stroke="none" 
	d="
M199.844360,53.394508 
	C199.801666,62.885021 194.867523,69.620293 187.216324,71.085014 
	C179.011597,72.655708 171.209351,68.678818 168.410873,61.499619 
	C165.286163,53.483509 167.990295,44.832245 175.070831,40.586723 
	C184.911209,34.686390 198.178741,40.383537 199.844360,53.394508 
z"/>
<path fill="#FDFEFC" opacity="1.000000" stroke="none" 
	d="
M45.422348,44.660271 
	C53.421646,56.425144 49.735088,70.092110 37.851631,73.925186 
	C29.941395,76.476685 21.468189,73.206009 17.287161,65.987267 
	C13.167179,58.873924 14.609738,49.082153 20.585739,43.597225 
	C26.832357,37.863914 35.606876,37.263966 42.531666,42.134632 
	C43.473984,42.797424 44.295341,43.632195 45.422348,44.660271 
z"/>
<path fill="#FEFBFB" opacity="1.000000" stroke="none" 
	d="
M416.828003,52.485954 
	C417.408112,43.185974 424.179077,35.441284 432.775940,34.244625 
	C441.752106,32.995174 449.334015,37.945282 452.523376,47.178654 
	C453.007751,48.580982 453.332336,50.038502 453.228027,51.945511 
	C440.759521,52.442337 428.793762,52.464146 416.828003,52.485954 
z"/>
<path fill="#E20000" opacity="1.000000" stroke="none" 
	d="
M416.758057,52.785645 
	C428.793762,52.464146 440.759521,52.442337 453.242493,52.378910 
	C452.968231,52.893085 452.181335,53.925285 451.384583,53.932957 
	C440.105621,54.041531 428.825256,54.017914 417.545441,53.975357 
	C417.258545,53.974274 416.973846,53.394974 416.758057,52.785645 
z"/>
<path fill="#FAFBF5" opacity="1.000000" stroke="none" 
	d="
M223.031815,50.851173 
	C224.236877,43.625660 229.184967,38.824764 236.207764,38.067169 
	C243.789078,37.249317 249.754379,40.458118 252.362366,46.941051 
	C252.802124,48.034191 252.565384,49.399479 251.852478,50.757561 
	C241.719772,50.867790 232.375793,50.859482 223.031815,50.851173 
z"/>
<path fill="#98B600" opacity="1.000000" stroke="none" 
	d="
M223.290771,51.183044 
	C232.375793,50.859482 241.719772,50.867790 251.526978,50.947647 
	C248.943512,51.346638 245.897552,51.938351 242.849991,51.946762 
	C236.417023,51.964520 229.983215,51.677116 223.290771,51.183044 
z"/>
</svg>