<svg version="1.1" id="Layer_1" xmlns="http://www.w3.org/2000/svg" xmlns:xlink="http://www.w3.org/1999/xlink" x="0px" y="0px"
	 width="100%" viewBox="0 0 526 264" enable-background="new 0 0 526 264" xml:space="preserve">
<path fill="#FEFEFE" opacity="1.000000" stroke="none" 
	d="
M330.000000,265.000000 
	C220.034653,265.000000 110.569313,265.000000 1.051985,265.000000 
	C1.051985,177.062531 1.051985,89.125031 1.051985,1.093763 
	C176.215286,1.093763 351.430634,1.093763 526.822998,1.093763 
	C526.822998,88.999718 526.822998,176.999817 526.822998,265.000000 
	C461.458496,265.000000 395.979248,265.000000 330.000000,265.000000 
M363.013458,92.166817 
	C363.001038,91.110031 362.988617,90.053238 362.987793,88.108994 
	C362.985657,85.740562 362.983521,83.372131 362.922302,80.315216 
	C361.613251,79.872131 360.304169,79.429047 358.107239,78.986732 
	C355.737579,78.988777 353.367950,78.990814 350.165894,79.023911 
	C349.441071,80.414948 348.146332,81.783554 348.090576,83.200920 
	C347.855774,89.166946 348.039917,95.148056 347.976227,101.122643 
	C347.919891,106.403877 346.405090,108.048515 341.155487,107.942024 
	C335.218109,107.821587 329.290344,107.187881 323.353638,107.100990 
	C321.908783,107.079834 320.445435,108.325081 318.979034,109.915688 
	C318.976379,113.936096 318.973755,117.956497 318.148865,122.095116 
	C315.707977,122.394112 313.271118,122.905045 310.825439,122.951614 
	C304.000793,123.081573 303.999268,123.005630 303.998901,129.932602 
	C303.998840,130.761749 304.063416,131.596451 303.990814,132.419098 
	C303.684052,135.894897 305.329529,137.072601 308.699951,137.081070 
	C312.135895,137.089676 315.570374,137.669998 318.986786,138.925201 
	C318.988831,142.952332 318.990875,146.979446 319.172943,151.796310 
	C322.164764,152.197144 325.157562,152.891373 328.148010,152.881500 
	C329.770264,152.876144 331.388550,151.671738 333.020325,150.081940 
	C333.023102,146.054703 333.025909,142.027466 333.713654,137.941605 
	C334.808868,137.628754 335.904083,137.315903 337.936646,137.007278 
	C345.291107,137.005661 352.645538,137.004044 360.589081,137.254944 
	C361.393127,137.502884 362.197174,137.750824 362.997375,138.924988 
	C363.003998,142.945267 363.010620,146.965546 363.180817,151.780594 
	C367.595917,152.075256 372.009949,152.402573 376.429962,152.550232 
	C376.614899,152.556412 376.855774,150.887222 377.051666,149.090942 
	C377.054169,146.062027 377.056671,143.033096 377.805115,139.664444 
	C380.903168,139.440063 384.024750,139.374146 387.088654,138.919617 
	C388.469269,138.714798 389.734894,137.735077 391.719696,136.947830 
	C392.115784,135.980087 392.511871,135.012329 392.982300,133.130249 
	C392.987396,130.087219 392.992462,127.044182 393.001770,123.076019 
	C392.993225,119.055504 392.984680,115.034981 392.997620,110.337677 
	C393.315460,109.297043 393.633301,108.256416 394.868958,107.149300 
	C398.231384,107.150108 401.593842,107.150917 405.033600,107.762878 
	C405.697540,108.507561 406.361481,109.252243 407.008057,110.927589 
	C406.974213,123.962349 406.974213,123.962349 420.752350,121.912186 
	C420.870483,120.270256 420.988586,118.628326 421.082550,116.114090 
	C421.086914,114.077721 421.091278,112.041351 421.571075,109.516068 
	C421.001251,105.559006 417.853363,107.144569 415.789032,107.074638 
	C407.070892,106.779289 408.059387,108.247795 407.969513,98.978180 
	C407.966309,98.647568 408.003326,98.312927 407.964783,97.986870 
	C407.615967,95.036079 408.786377,93.841774 411.872498,93.897606 
	C414.575348,93.946503 417.290375,93.322739 420.676086,93.023422 
	C421.125793,93.001450 421.575500,92.979477 422.950531,93.062469 
	C426.565399,93.072914 430.193146,93.255920 433.787201,92.987587 
	C434.851624,92.908119 436.674927,91.574257 436.690765,90.785919 
	C436.772095,86.734406 436.377747,82.673347 436.036072,77.867401 
	C435.680084,77.348091 435.222534,76.331902 434.982697,76.380913 
	C424.336426,78.557076 423.228638,71.811249 423.179657,63.624386 
	C423.179657,63.624386 423.076782,63.290577 423.990936,63.217701 
	C428.015320,63.226582 432.039703,63.235462 436.401855,63.616734 
	C436.785065,63.542889 437.168243,63.469044 437.551453,63.395191 
	C437.371002,62.931145 437.190552,62.467098 436.979950,61.081776 
	C436.985840,57.387680 436.991760,53.693581 437.508026,49.543720 
	C436.752106,48.717983 436.039307,47.231819 435.232910,47.179161 
	C431.447876,46.932026 427.632812,46.989761 423.839752,47.172634 
	C423.204712,47.203247 422.625275,48.386730 421.510071,49.664280 
	C421.421753,53.727524 421.333466,57.790764 421.022339,62.393272 
	C421.013947,62.586422 421.005585,62.779568 420.061371,63.024818 
	C412.309540,63.035278 404.557739,63.047359 396.805908,63.055103 
	C394.774750,63.057137 392.600952,62.857422 392.843536,66.897942 
	C392.828125,70.263229 392.812744,73.628510 392.109406,76.929138 
	C391.415863,76.974487 390.722351,77.019844 389.466553,76.454620 
	C385.931946,76.585121 381.973114,74.018227 379.162964,78.160782 
	C379.162964,78.160782 379.156067,78.285797 378.462708,78.156532 
	C378.064758,78.825928 377.666840,79.495331 377.195557,81.060287 
	C377.200317,84.695686 377.205109,88.331085 376.553345,92.195778 
	C375.688416,92.492310 374.823486,92.788841 373.058258,93.054024 
	C370.051483,93.057861 367.044708,93.061691 363.539032,92.990402 
	C363.371582,92.979286 363.204102,92.968163 363.013458,92.166817 
M200.852875,141.846268 
	C204.344406,141.772507 207.851349,141.865005 211.319962,141.543686 
	C212.720535,141.413940 214.037292,140.379395 215.392212,139.756607 
	C214.234772,138.608337 213.268738,136.829285 211.889832,136.410812 
	C200.039001,132.814438 189.249664,141.167282 189.391418,153.635254 
	C189.530838,165.896866 201.554199,174.064713 212.805328,169.407227 
	C213.914963,168.947891 214.546310,167.333145 215.399643,166.254669 
	C214.222107,165.615738 213.104645,164.649948 211.852005,164.419754 
	C210.250305,164.125443 208.539612,164.462189 206.875931,164.460938 
	C199.574829,164.455460 195.434250,160.428574 195.745789,153.049393 
	C195.875137,149.985321 197.061813,146.965897 198.161194,143.472565 
	C198.744308,142.927597 199.327438,142.382629 200.852875,141.846268 
M190.836533,204.433212 
	C190.839828,198.276382 191.045471,192.108566 190.711838,185.970047 
	C190.622391,184.324158 189.119308,181.643082 187.865967,181.386368 
	C184.459778,180.688721 185.104370,183.743958 185.081345,185.771683 
	C185.019058,191.256104 185.059998,196.741669 185.059998,203.569626 
	C180.169159,196.010605 176.258743,189.664185 171.969757,183.584854 
	C171.076035,182.318069 168.807556,181.633743 167.119537,181.527954 
	C166.539993,181.491638 165.250854,184.027924 165.220779,185.409256 
	C165.039734,193.725342 164.994522,202.051605 165.255951,210.363403 
	C165.302795,211.852951 166.992355,213.290863 167.923447,214.752594 
	C168.870300,213.305054 170.561066,211.894104 170.634415,210.403580 
	C170.941635,204.160995 170.764008,197.894562 170.764008,191.297119 
	C171.457428,192.313934 172.179962,193.288956 172.814728,194.318100 
	C176.560440,200.391068 180.164200,206.557632 184.119476,212.490219 
	C184.919724,213.690521 187.244354,214.840057 188.459305,214.510910 
	C189.546768,214.216278 190.380463,211.926407 190.761322,210.377930 
	C191.147049,208.809662 190.840225,207.071045 190.836533,204.433212 
M416.646088,185.847366 
	C415.671844,184.714981 414.850647,183.372772 413.675629,182.515656 
	C412.711243,181.812225 410.956726,181.038391 410.217407,181.460480 
	C409.203125,182.039520 408.271515,183.709381 408.249420,184.928940 
	C408.089508,193.748032 408.066742,202.574051 408.294861,211.390274 
	C408.324341,212.530502 410.041412,213.627075 410.976746,214.743851 
	C411.845032,213.699615 413.228699,212.760696 413.468353,211.587982 
	C413.893585,209.507278 413.638214,207.284729 413.643158,205.121475 
	C413.652954,200.843063 413.646088,196.564621 413.646088,191.206207 
	C418.431366,198.865051 422.421326,205.549042 426.778961,211.984039 
	C427.694977,213.336761 429.962036,213.774643 431.606537,214.634079 
	C432.066803,213.156204 432.896240,211.685669 432.925781,210.199234 
	C433.084595,202.212677 433.171112,194.218948 432.970642,186.235550 
	C432.928375,184.551300 431.582703,182.899765 430.837616,181.233139 
	C429.973480,182.911911 428.468872,184.551819 428.364227,186.276672 
	C428.039032,191.635834 428.245178,197.027222 428.245178,202.406113 
	C427.832825,202.521454 427.420471,202.636795 427.008118,202.752136 
	C423.665833,197.332703 420.323547,191.913269 416.646088,185.847366 
M107.463905,139.374695 
	C107.477280,145.528290 107.326279,151.687790 107.547195,157.833923 
	C107.801933,164.921097 112.222931,169.693054 118.712288,170.350067 
	C124.588478,170.944992 130.383636,167.362717 131.455048,160.854492 
	C132.629227,153.722000 132.371490,146.338104 132.438873,139.060989 
	C132.446426,138.245010 130.282059,136.573914 129.530579,136.779831 
	C128.377670,137.095779 126.806221,138.661743 126.755318,139.759476 
	C126.478287,145.734329 126.688507,151.729584 126.582947,157.715225 
	C126.490807,162.939178 124.567009,164.743454 119.720467,164.764816 
	C114.915710,164.785980 113.330101,162.032455 113.329842,157.749496 
	C113.329498,152.094772 113.420372,146.436783 113.237946,140.787750 
	C113.195969,139.488037 112.399307,137.323227 111.599228,137.146759 
	C110.410728,136.884644 108.909721,138.039505 107.463905,139.374695 
M439.204559,199.318863 
	C441.418427,209.778275 446.389618,214.717804 454.957550,214.971573 
	C466.204834,215.304703 466.892914,214.629318 466.893463,203.256210 
	C466.893768,197.064896 465.477081,195.674149 459.315247,196.423569 
	C457.901001,196.595596 456.615540,197.826385 455.270813,198.569916 
	C456.320557,199.591202 457.263519,201.325119 458.439911,201.501465 
	C462.115631,202.052444 461.733612,204.844528 461.084106,206.741135 
	C460.576630,208.223022 457.891296,210.369888 456.937622,210.036423 
	C453.390839,208.796219 448.956696,207.456009 447.092468,204.661301 
	C444.312744,200.494202 444.452759,194.903717 447.750641,190.588898 
	C450.885712,186.487015 455.391418,185.105957 460.676239,186.083069 
	C462.182526,186.361557 463.935730,185.304352 465.575714,184.859680 
	C464.129456,183.612183 462.813202,181.494202 461.216187,181.255646 
	C448.997833,179.430603 440.632996,186.127808 439.204559,199.318863 
M299.034790,213.388321 
	C299.165222,210.427109 299.653503,207.426468 299.332764,204.514969 
	C298.957733,201.111176 300.813873,200.492783 303.124176,201.243729 
	C304.803589,201.789627 306.583130,203.273270 307.429352,204.823807 
	C308.504517,206.793961 308.238770,209.522339 309.386627,211.417923 
	C310.288727,212.907654 312.458008,213.630081 314.064362,214.693375 
	C314.297272,213.120941 315.045868,211.406464 314.659729,210.004532 
	C313.751007,206.705215 312.080505,203.614182 311.193848,200.311188 
	C310.899414,199.214462 311.868042,197.614487 312.579742,196.438599 
	C317.166290,188.860718 313.376099,181.567886 304.475769,181.057526 
	C302.317688,180.933777 300.144318,181.045044 297.978821,181.089203 
	C294.683716,181.156372 293.210541,182.872894 293.231781,186.154724 
	C293.284637,194.320450 293.258789,202.486786 293.240845,210.652817 
	C293.232025,214.675735 295.034363,215.765335 299.034790,213.388321 
M81.691162,154.487106 
	C81.689568,158.151093 81.312721,161.873138 81.866371,165.451218 
	C82.096016,166.935364 84.194130,169.061325 85.652374,169.246948 
	C89.749863,169.768539 93.966011,169.587189 98.113396,169.329468 
	C99.175354,169.263489 100.155945,167.888077 101.173920,167.114243 
	C100.103043,166.301453 99.127876,165.027649 97.939468,164.780899 
	C96.022156,164.382812 93.943855,164.475220 91.970284,164.693130 
	C88.021378,165.129135 87.268852,163.180542 87.264778,159.686996 
	C87.260658,156.163345 88.100693,154.563995 92.000145,154.604462 
	C94.459587,154.630020 99.115494,153.057770 99.066574,152.661835 
	C98.497047,148.052643 94.593086,149.941422 91.993042,149.902054 
	C88.573036,149.850311 87.299065,148.757874 87.279778,145.263916 
	C87.259651,141.618149 89.161209,141.159912 92.010361,141.321777 
	C93.669983,141.416061 95.435539,141.660080 96.976318,141.218613 
	C98.298027,140.839859 99.367989,139.582550 100.549278,138.713760 
	C99.422058,138.003922 98.330338,136.760056 97.161102,136.682327 
	C93.348061,136.428909 89.506081,136.647614 85.676476,136.594849 
	C82.605316,136.552551 81.610832,138.192184 81.662239,141.005371 
	C81.738304,145.167664 81.688675,149.332245 81.691162,154.487106 
M94.004967,198.742111 
	C95.807312,196.184677 94.255226,195.027252 92.022118,194.539474 
	C90.424179,194.190430 88.704254,194.250504 87.050362,194.340759 
	C84.300858,194.490814 82.620590,193.862549 82.698799,190.555969 
	C82.770050,187.543182 83.566101,185.710464 86.949226,185.896072 
	C88.610336,185.987183 90.333572,186.158432 91.930092,185.823471 
	C93.166847,185.563995 94.250435,184.574554 95.402107,183.909592 
	C94.288246,182.968460 93.238731,181.324890 92.048653,181.215851 
	C88.248337,180.867752 84.391449,181.202896 80.564873,181.055145 
	C77.463669,180.935379 76.345932,182.564011 76.334312,185.293091 
	C76.298119,193.790741 76.172592,202.294022 76.473763,210.781189 
	C76.523338,212.178467 78.430275,214.533005 79.683640,214.678314 
	C83.959152,215.173981 88.332710,215.010620 92.653442,214.792847 
	C93.681381,214.741013 94.649361,213.499557 95.644913,212.805283 
	C94.813248,211.707306 94.154282,209.913422 93.114197,209.655319 
	C90.906204,209.107376 88.411957,209.707336 86.207802,209.151581 
	C84.894836,208.820557 83.115639,207.322327 82.913147,206.118805 
	C81.973114,200.531448 82.752548,199.850815 88.400024,199.713776 
	C90.039307,199.673996 91.671356,199.335510 94.004967,198.742111 
M263.320618,164.679535 
	C258.094208,163.920105 260.636414,159.818588 260.460358,157.178345 
	C260.411804,156.450180 263.168396,155.227417 264.789032,154.783981 
	C266.338806,154.359924 268.135345,154.887405 269.726166,154.544937 
	C270.664856,154.342865 271.414581,153.263062 272.249298,152.578003 
	C271.502655,151.853012 270.854950,150.695511 269.987793,150.497116 
	C268.404510,150.134842 266.691010,150.305023 265.032288,150.316772 
	C261.915955,150.338837 259.629791,149.898560 259.568268,145.758011 
	C259.507172,141.646439 261.513336,141.030533 264.795837,141.267792 
	C266.447449,141.387177 268.187988,141.566284 269.752991,141.175919 
	C270.954803,140.876160 271.944885,139.727661 273.029114,138.956604 
	C271.959869,138.183243 270.930084,136.817581 269.814270,136.743271 
	C265.846771,136.479019 261.825195,136.410965 257.879333,136.812073 
	C256.694031,136.932556 254.777908,138.797134 254.745255,139.908234 
	C254.486847,148.702606 254.505356,157.510513 254.733078,166.306656 
	C254.760101,167.349838 256.496552,169.141693 257.550110,169.226486 
	C261.841095,169.571884 266.180542,169.509766 270.488129,169.304291 
	C271.439087,169.258926 272.332825,168.014877 273.252930,167.322800 
	C272.425293,166.470428 271.702362,165.058853 270.748566,164.880249 
	C268.659607,164.489059 266.453522,164.723083 263.320618,164.679535 
M183.319366,139.569504 
	C183.128204,138.946350 183.133759,138.093094 182.715530,137.735580 
	C178.423660,134.066742 169.993408,135.662933 166.446060,140.749878 
	C163.252701,145.329193 164.767578,149.998093 170.638199,153.465225 
	C171.771683,154.134659 173.044601,154.565460 174.243073,155.127960 
	C177.033768,156.437790 179.910278,157.876968 179.015808,161.668655 
	C178.110016,165.508453 174.730759,164.377792 172.045410,164.795059 
	C169.578217,165.178406 165.425629,162.130844 164.932800,166.346130 
	C164.434067,170.612106 169.335083,169.518433 171.861984,170.106979 
	C177.377960,171.391708 183.751419,167.196960 185.155045,162.023987 
	C186.184952,158.228317 183.211868,153.488586 178.291306,151.087601 
	C176.799667,150.359741 174.985916,149.952271 173.891373,148.837006 
	C172.544724,147.464859 171.796356,145.505554 170.789413,143.800018 
	C172.414246,142.960327 173.957260,141.808914 175.683563,141.355942 
	C178.113617,140.718307 180.679565,140.598587 183.319366,139.569504 
M343.038208,214.638565 
	C346.253448,215.370956 347.661133,214.077133 346.616455,210.952820 
	C343.623413,202.001373 340.539795,193.077148 337.260803,184.227814 
	C336.790558,182.958725 335.111816,181.464233 333.870026,181.344666 
	C332.642456,181.226456 330.483978,182.429428 330.067505,183.548965 
	C326.600128,192.869675 323.395477,202.290039 320.275330,211.734436 
	C320.021973,212.501358 320.867920,214.411438 321.406799,214.496292 
	C322.499359,214.668350 324.214996,214.312546 324.800201,213.525146 
	C325.845825,212.118225 326.150574,210.184692 326.943451,208.558273 
	C327.558350,207.296875 328.174591,205.579422 329.257629,205.081802 
	C334.012878,202.896881 338.893311,205.247604 340.696075,210.226654 
	C341.191925,211.596130 341.804718,212.923279 343.038208,214.638565 
M375.117645,189.628143 
	C375.121155,193.782730 375.037781,197.939575 375.146484,202.091415 
	C375.363159,210.365402 379.636353,214.955017 387.040527,215.021347 
	C394.776733,215.090637 399.525330,210.504684 399.827271,202.350937 
	C400.030121,196.874023 400.073822,191.374832 399.789368,185.906342 
	C399.705566,184.294739 398.259369,182.753983 397.437500,181.180771 
	C396.383026,182.734177 394.528198,184.233551 394.419006,185.850769 
	C394.039246,191.475693 394.362793,197.143784 394.229523,202.790985 
	C394.118835,207.482239 391.296967,210.510162 387.309875,210.202606 
	C382.890778,209.861710 380.935913,207.052536 380.871826,202.822830 
	C380.801331,198.170685 381.103729,193.495377 380.728149,188.872040 
	C380.509766,186.183823 382.892731,181.362671 377.822235,181.440811 
	C373.333099,181.510010 375.749969,186.086761 375.117645,189.628143 
M217.814835,211.914444 
	C217.823654,211.083466 217.714249,210.230682 217.862793,209.425491 
	C218.372559,206.662415 218.972717,203.916031 219.538406,201.163300 
	C221.480255,203.237167 223.500397,205.244263 225.341736,207.403824 
	C227.154190,209.529465 228.553940,212.069458 230.606567,213.898056 
	C231.462769,214.660828 233.538925,214.054184 235.060364,214.070206 
	C234.726364,212.931625 234.618225,211.653992 234.018143,210.679184 
	C231.762589,207.015121 229.656464,203.188416 226.901550,199.922729 
	C224.271515,196.805130 224.495880,194.660843 227.235748,191.846436 
	C230.105042,188.899048 232.480118,185.470566 235.695312,181.477234 
	C224.935074,180.006622 224.647385,191.008652 217.835266,193.713440 
	C217.835266,190.457916 218.153183,187.597275 217.700241,184.864410 
	C217.475998,183.511353 215.832428,182.393524 214.831024,181.169266 
	C213.962921,182.353302 212.371780,183.519638 212.342285,184.724213 
	C212.126694,193.528198 212.148560,202.341263 212.312302,211.147430 
	C212.334702,212.351746 213.557297,213.533752 214.224228,214.726089 
	C215.383972,214.068787 216.543732,213.411484 217.814835,211.914444 
M115.188225,180.666885 
	C104.645317,183.076614 98.567116,191.688354 100.534279,201.428940 
	C102.526680,211.294464 110.712654,216.842926 120.836723,214.836334 
	C122.515480,214.503601 125.255745,212.501511 125.155960,211.506546 
	C124.825554,208.212280 122.300758,209.552292 120.171013,210.016266 
	C114.528648,211.245453 108.282303,208.232529 107.163933,203.373306 
	C104.573257,192.117065 109.487732,183.758194 121.851868,186.148056 
	C122.881027,186.347000 124.162010,185.243149 125.325989,184.744598 
	C124.513535,183.538177 123.933891,181.641464 122.839088,181.272202 
	C120.704727,180.552338 118.281975,180.687500 115.188225,180.666885 
M245.794647,169.060898 
	C246.102921,158.851089 246.469131,148.641937 246.587021,138.429932 
	C246.594757,137.760666 244.680756,136.505295 243.699188,136.542389 
	C242.655502,136.581818 241.255112,137.629486 240.748260,138.615982 
	C240.193710,139.695374 240.427933,141.208008 240.414658,142.532791 
	C240.346268,149.351196 240.342300,149.074951 233.655182,149.432526 
	C228.935272,149.684906 226.743408,148.320633 227.489227,143.371735 
	C227.684814,142.073853 227.911072,140.482773 227.349426,139.445267 
	C226.674332,138.198242 225.227798,136.733322 224.009613,136.631897 
	C223.150543,136.560364 221.315277,138.581589 221.285858,139.704376 
	C221.055038,148.516785 221.054932,157.340317 221.272919,166.153290 
	C221.301895,167.325150 222.955994,168.456818 223.857498,169.607101 
	C225.065536,168.507523 226.751953,167.616867 227.348770,166.250351 
	C227.960983,164.848557 227.717361,162.951004 227.481400,161.323624 
	C226.768051,156.403946 228.417145,154.458694 233.689407,154.827957 
	C240.385513,155.296967 240.411087,154.933258 240.408112,161.732742 
	C240.407608,162.897446 240.482071,164.068207 240.390228,165.225723 
	C240.112854,168.721420 241.506195,170.282837 245.794647,169.060898 
M155.405701,181.234802 
	C152.351212,180.756287 151.068451,182.169815 151.166260,185.141602 
	C151.220963,186.803864 151.074707,188.477829 151.208054,190.131271 
	C151.443298,193.048096 150.405212,194.231842 147.281403,194.322174 
	C138.090317,194.587982 138.234741,194.710510 137.668213,185.767776 
	C137.566925,184.168655 135.762222,182.677414 134.744049,181.136368 
	C133.852707,182.648392 132.248535,184.134033 132.191437,185.676926 
	C131.920853,192.988297 131.912582,200.320709 132.160217,207.633789 
	C132.247314,210.205322 130.284012,214.374741 135.082932,214.490402 
	C135.933243,214.510895 137.562439,210.109283 137.678253,207.694351 
	C138.093262,199.041397 136.509659,199.854980 145.863693,199.787781 
	C146.196472,199.785385 146.533401,199.822540 146.861435,199.783203 
	C150.035187,199.402695 151.486465,200.638580 151.228470,203.982666 
	C151.024323,206.628632 150.868118,209.365891 151.354172,211.937164 
	C151.567841,213.067490 153.430176,213.886154 154.543930,214.846313 
	C155.353165,213.837021 156.796097,212.866547 156.860718,211.811646 
	C157.124710,207.501678 157.066498,203.163040 156.941223,198.840347 
	C156.774323,193.081345 156.434601,187.327347 155.405701,181.234802 
M361.717163,202.457977 
	C361.717255,199.966202 361.783539,197.472275 361.702911,194.983124 
	C361.557068,190.481094 360.774200,185.702209 367.996185,186.436813 
	C368.831543,186.521805 369.897522,184.340118 370.856598,183.209351 
	C369.761932,182.491196 368.689545,181.195404 367.568878,181.152237 
	C361.929108,180.935028 356.264954,180.839493 350.635742,181.161575 
	C348.890411,181.261429 347.227814,182.807053 345.527344,183.690765 
	C347.147308,184.712234 348.746918,186.550171 350.391296,186.591095 
	C354.222931,186.686432 355.250641,188.351700 355.161285,191.834946 
	C354.999512,198.143372 354.921875,204.468475 355.248932,210.763763 
	C355.322327,212.177216 357.206940,213.496582 358.257751,214.859268 
	C359.406860,213.543625 361.198853,212.381088 361.557037,210.877075 
	C362.118805,208.518234 361.712677,205.928879 361.717163,202.457977 
M286.940186,183.502823 
	C285.869904,182.441406 284.843903,180.529282 283.721436,180.470886 
	C279.612244,180.257095 275.426117,180.371765 271.368195,181.001816 
	C270.101715,181.198456 268.243317,183.384872 268.199310,184.711594 
	C267.913055,193.343796 268.088287,201.990311 268.030975,210.631607 
	C268.012451,213.427811 268.911774,215.068939 272.021637,214.996994 
	C276.007935,214.904770 280.015625,215.182953 283.976044,214.849518 
	C285.222046,214.744614 286.345490,213.184128 287.525024,212.289871 
	C286.416779,211.265442 285.451569,209.668732 284.167480,209.347794 
	C282.130524,208.838684 279.874237,209.072235 277.722076,209.193192 
	C275.062958,209.342667 273.893005,208.476181 273.740723,205.571777 
	C273.528961,201.531845 274.303284,199.047699 279.073242,199.817627 
	C280.367249,200.026489 281.887817,200.208069 283.013489,199.724701 
	C284.332977,199.158096 285.334869,197.851898 286.474518,196.866501 
	C285.395386,195.989655 284.438477,194.745621 283.204193,194.334778 
	C281.853546,193.885178 280.246613,194.192123 278.751373,194.193375 
	C276.251465,194.195496 273.792267,194.653595 273.732208,190.649277 
	C273.668396,186.395096 276.305481,187.092834 278.960999,186.709991 
	C281.664917,186.320129 284.254944,185.140549 286.940186,183.502823 
M57.066376,202.491714 
	C57.061588,205.318298 56.781170,208.183380 57.168427,210.955185 
	C57.361725,212.338760 58.775837,213.551773 59.637756,214.841934 
	C60.711723,213.504242 62.620064,212.221375 62.712208,210.819168 
	C63.071209,205.356033 63.038326,199.846924 62.796108,194.370636 
	C62.586475,189.630951 62.623180,185.672806 69.261299,186.541367 
	C70.165749,186.659714 71.358696,184.573227 72.418060,183.507599 
	C71.325211,182.690796 70.254982,181.205368 69.135788,181.167511 
	C62.659233,180.948349 56.168503,180.983231 49.689930,181.177612 
	C48.786484,181.204712 47.251995,182.553513 47.215046,183.346619 
	C47.170647,184.299652 48.224186,185.616104 49.160713,186.212067 
	C50.043568,186.773895 51.405792,186.800461 52.532776,186.720261 
	C56.092690,186.466888 57.252621,188.205017 57.100319,191.526108 
	C56.948139,194.844528 57.066673,198.175385 57.066376,202.491714 
M154.279495,136.625488 
	C150.125443,136.625000 145.956848,136.423325 141.824463,136.722351 
	C140.155518,136.843109 138.565750,138.058380 136.939957,138.775558 
	C138.459534,139.613113 140.018555,141.218445 141.491211,141.142807 
	C145.734222,140.924789 146.972595,142.587036 146.772522,146.648743 
	C146.478577,152.616364 146.526718,158.616470 146.798859,164.585876 
	C146.871368,166.176270 148.291840,167.705200 149.093430,169.262360 
	C149.919495,167.784439 151.395294,166.333633 151.458374,164.823853 
	C151.721603,158.520813 151.720688,152.194214 151.490768,145.888123 
	C151.365494,142.452713 152.466568,141.203842 155.983078,141.152298 
	C157.823029,141.125336 159.641052,139.602020 161.468979,138.754501 
	C159.544754,138.045288 157.621780,137.332581 155.693787,136.633774 
	C155.546722,136.580475 155.363968,136.625717 154.279495,136.625488 
M248.384491,180.997772 
	C240.272354,181.103989 240.271683,181.103989 240.270111,189.423233 
	C240.269104,194.733292 240.271378,200.043365 240.270462,205.353424 
	C240.268723,215.602203 240.312332,215.643143 250.600769,214.950684 
	C251.097198,214.917282 251.601761,214.931747 252.089096,214.846832 
	C260.936646,213.305161 264.077972,205.966156 259.242584,198.757996 
	C258.480133,197.621429 258.761200,195.175964 259.455627,193.781967 
	C261.802277,189.071228 261.044159,185.354568 256.323029,182.952332 
	C254.193436,181.868713 251.636414,181.625092 248.384491,180.997772 
M74.177719,144.498672 
	C69.281494,137.302399 57.988022,133.609909 50.371292,136.856720 
	C49.500546,137.227890 48.444145,138.481445 48.430050,139.341553 
	C48.280254,148.480820 48.239422,157.625107 48.436638,166.762207 
	C48.457909,167.747589 50.074429,169.418106 51.111290,169.554810 
	C68.622330,171.863708 79.032242,163.211441 74.177719,144.498672 
M450.704468,46.690044 
	C451.173767,47.341682 451.618927,48.537533 452.116119,48.559547 
	C456.404083,48.749439 461.334717,49.991295 464.750488,48.279301 
	C466.695190,47.304600 466.404175,41.416210 466.639465,37.710003 
	C466.731720,36.256489 465.534424,34.708820 464.853607,33.236774 
	C464.782440,33.082901 464.227814,33.163345 463.900330,33.115749 
	C451.338257,31.290070 450.232941,32.252533 450.437134,44.849934 
	C450.442474,45.180721 450.483246,45.510933 450.704468,46.690044 
M198.326782,186.889725 
	C198.326782,194.554153 198.284851,202.218948 198.352219,209.882782 
	C198.372513,212.192352 198.323532,215.232071 201.715607,214.583633 
	C202.965240,214.344727 204.536758,211.653183 204.597061,210.029648 
	C204.893707,202.042999 204.890778,194.033569 204.601379,186.046402 
	C204.541473,184.393173 203.064163,181.675003 201.808258,181.396729 
	C198.425995,180.647324 198.520660,183.669357 198.326782,186.889725 
M449.795105,107.617477 
	C446.662872,107.438927 443.518738,107.035599 440.404602,107.199989 
	C439.267059,107.260040 437.310211,108.610260 437.253357,109.472565 
	C436.981201,113.598389 436.264557,118.165352 437.755157,121.714966 
	C438.387848,123.221603 444.039398,122.624001 447.411102,122.971848 
	C447.739777,123.005753 448.211945,123.102089 448.386658,122.932137 
	C449.304504,122.039223 450.865570,121.089531 450.891907,120.123764 
	C450.999786,116.170822 450.631531,112.204880 449.795105,107.617477 
M288.007965,104.169647 
	C288.524841,105.303520 288.968994,107.372787 289.570374,107.419540 
	C293.488281,107.724106 297.442780,107.657959 301.378143,107.515640 
	C301.889130,107.497162 302.755707,106.361282 302.781921,105.715530 
	C302.922974,102.243294 303.031677,98.745995 302.720062,95.296318 
	C302.645111,94.466286 301.024139,93.317757 299.957642,93.106682 
	C289.893677,91.114861 288.001801,92.692818 288.002563,102.755150 
	C288.002563,102.921043 288.002686,103.086937 288.007965,104.169647 
z"/>
<path fill="#88C3DB" opacity="1.000000" stroke="none" 
	d="
M190.836639,204.920135 
	C190.840225,207.071045 191.147049,208.809662 190.761322,210.377930 
	C190.380463,211.926407 189.546768,214.216278 188.459305,214.510910 
	C187.244354,214.840057 184.919724,213.690521 184.119476,212.490219 
	C180.164200,206.557632 176.560440,200.391068 172.814728,194.318100 
	C172.179962,193.288956 171.457428,192.313934 170.764008,191.297119 
	C170.764008,197.894562 170.941635,204.160995 170.634415,210.403580 
	C170.561066,211.894104 168.870300,213.305054 167.923462,214.752594 
	C166.992355,213.290863 165.302795,211.852951 165.255951,210.363403 
	C164.994522,202.051605 165.039734,193.725342 165.220779,185.409256 
	C165.250854,184.027924 166.539993,181.491638 167.119537,181.527954 
	C168.807556,181.633743 171.076035,182.318069 171.969757,183.584854 
	C176.258743,189.664185 180.169159,196.010605 185.059998,203.569626 
	C185.059998,196.741669 185.019058,191.256104 185.081345,185.771683 
	C185.104370,183.743958 184.459778,180.688721 187.865967,181.386368 
	C189.119308,181.643082 190.622391,184.324158 190.711838,185.970047 
	C191.045471,192.108566 190.839828,198.276382 190.836639,204.920135 
z"/>
<path fill="#E4EFF5" opacity="1.000000" stroke="none" 
	d="
M360.000000,137.002441 
	C352.645538,137.004044 345.291107,137.005661 337.426422,136.627136 
	C336.551483,133.181671 336.430664,130.058182 335.719421,127.075493 
	C335.362610,125.579170 333.930908,124.339172 332.990631,122.519714 
	C332.993622,117.705994 332.991333,113.355804 333.347412,109.062042 
	C335.297577,109.520775 336.966736,110.454132 338.467987,110.235313 
	C345.753326,109.173462 347.508667,110.981224 346.794220,118.590958 
	C346.664307,119.974922 348.234741,121.518524 349.472229,122.989929 
	C352.949097,122.996246 355.973938,123.001053 359.034393,123.351242 
	C360.373352,125.132210 361.676697,126.567795 362.984802,128.431366 
	C362.985870,130.571274 362.982178,132.283188 362.639832,134.031647 
	C361.534088,135.046280 360.767059,136.024353 360.000000,137.002441 
z"/>
<path fill="#7FBED8" opacity="1.000000" stroke="none" 
	d="
M416.813660,186.170593 
	C420.323547,191.913269 423.665833,197.332703 427.008118,202.752136 
	C427.420471,202.636795 427.832825,202.521454 428.245178,202.406113 
	C428.245178,197.027222 428.039032,191.635834 428.364227,186.276672 
	C428.468872,184.551819 429.973480,182.911911 430.837616,181.233139 
	C431.582703,182.899765 432.928375,184.551300 432.970642,186.235550 
	C433.171112,194.218948 433.084595,202.212677 432.925781,210.199234 
	C432.896240,211.685669 432.066803,213.156204 431.606537,214.634079 
	C429.962036,213.774643 427.694977,213.336761 426.778961,211.984039 
	C422.421326,205.549042 418.431366,198.865051 413.646088,191.206207 
	C413.646088,196.564621 413.652954,200.843063 413.643158,205.121475 
	C413.638214,207.284729 413.893585,209.507278 413.468353,211.587982 
	C413.228699,212.760696 411.845032,213.699615 410.976746,214.743851 
	C410.041412,213.627075 408.324341,212.530502 408.294861,211.390274 
	C408.066742,202.574051 408.089508,193.748032 408.249420,184.928940 
	C408.271515,183.709381 409.203125,182.039520 410.217407,181.460480 
	C410.956726,181.038391 412.711243,181.812225 413.675629,182.515656 
	C414.850647,183.372772 415.671844,184.714981 416.813660,186.170593 
z"/>
<path fill="#848586" opacity="1.000000" stroke="none" 
	d="
M107.502815,138.982971 
	C108.909721,138.039505 110.410728,136.884644 111.599228,137.146759 
	C112.399307,137.323227 113.195969,139.488037 113.237946,140.787750 
	C113.420372,146.436783 113.329498,152.094772 113.329842,157.749496 
	C113.330101,162.032455 114.915710,164.785980 119.720467,164.764816 
	C124.567009,164.743454 126.490807,162.939178 126.582947,157.715225 
	C126.688507,151.729584 126.478287,145.734329 126.755318,139.759476 
	C126.806221,138.661743 128.377670,137.095779 129.530579,136.779831 
	C130.282059,136.573914 132.446426,138.245010 132.438873,139.060989 
	C132.371490,146.338104 132.629227,153.722000 131.455048,160.854492 
	C130.383636,167.362717 124.588478,170.944992 118.712288,170.350067 
	C112.222931,169.693054 107.801933,164.921097 107.547195,157.833923 
	C107.326279,151.687790 107.477280,145.528290 107.502815,138.982971 
z"/>
<path fill="#84C1D9" opacity="1.000000" stroke="none" 
	d="
M439.201141,198.908539 
	C440.632996,186.127808 448.997833,179.430603 461.216187,181.255646 
	C462.813202,181.494202 464.129456,183.612183 465.575714,184.859680 
	C463.935730,185.304352 462.182526,186.361557 460.676239,186.083069 
	C455.391418,185.105957 450.885712,186.487015 447.750641,190.588898 
	C444.452759,194.903717 444.312744,200.494202 447.092468,204.661301 
	C448.956696,207.456009 453.390839,208.796219 456.937622,210.036423 
	C457.891296,210.369888 460.576630,208.223022 461.084106,206.741135 
	C461.733612,204.844528 462.115631,202.052444 458.439911,201.501465 
	C457.263519,201.325119 456.320557,199.591202 455.270813,198.569916 
	C456.615540,197.826385 457.901001,196.595596 459.315247,196.423569 
	C465.477081,195.674149 466.893768,197.064896 466.893463,203.256210 
	C466.892914,214.629318 466.204834,215.304703 454.957550,214.971573 
	C446.389618,214.717804 441.418427,209.778275 439.201141,198.908539 
z"/>
<path fill="#84C1D9" opacity="1.000000" stroke="none" 
	d="
M298.831543,213.730438 
	C295.034363,215.765335 293.232025,214.675735 293.240845,210.652817 
	C293.258789,202.486786 293.284637,194.320450 293.231781,186.154724 
	C293.210541,182.872894 294.683716,181.156372 297.978821,181.089203 
	C300.144318,181.045044 302.317688,180.933777 304.475769,181.057526 
	C313.376099,181.567886 317.166290,188.860718 312.579742,196.438599 
	C311.868042,197.614487 310.899414,199.214462 311.193848,200.311188 
	C312.080505,203.614182 313.751007,206.705215 314.659729,210.004532 
	C315.045868,211.406464 314.297272,213.120941 314.064362,214.693375 
	C312.458008,213.630081 310.288727,212.907654 309.386627,211.417923 
	C308.238770,209.522339 308.504517,206.793961 307.429352,204.823807 
	C306.583130,203.273270 304.803589,201.789627 303.124176,201.243729 
	C300.813873,200.492783 298.957733,201.111176 299.332764,204.514969 
	C299.653503,207.426468 299.165222,210.427109 298.831543,213.730438 
M307.979401,186.967117 
	C306.923981,186.385788 305.868561,185.804474 303.973572,185.171173 
	C297.793976,184.067307 299.012604,188.474792 299.011078,191.894989 
	C299.008789,196.959671 300.992950,198.278824 305.612457,196.085648 
	C306.967285,195.442413 307.962830,194.042374 309.637177,192.514328 
	C309.234650,190.957184 308.832123,189.400024 308.307526,187.700378 
	C308.307526,187.700378 308.173889,187.568604 307.979401,186.967117 
z"/>
<path fill="#7D7E7F" opacity="1.000000" stroke="none" 
	d="
M81.691864,153.991486 
	C81.688675,149.332245 81.738304,145.167664 81.662239,141.005371 
	C81.610832,138.192184 82.605316,136.552551 85.676476,136.594849 
	C89.506081,136.647614 93.348061,136.428909 97.161102,136.682327 
	C98.330338,136.760056 99.422058,138.003922 100.549278,138.713760 
	C99.367989,139.582550 98.298027,140.839859 96.976318,141.218613 
	C95.435539,141.660080 93.669983,141.416061 92.010361,141.321777 
	C89.161209,141.159912 87.259651,141.618149 87.279778,145.263916 
	C87.299065,148.757874 88.573036,149.850311 91.993042,149.902054 
	C94.593086,149.941422 98.497047,148.052643 99.066574,152.661835 
	C99.115494,153.057770 94.459587,154.630020 92.000145,154.604462 
	C88.100693,154.563995 87.260658,156.163345 87.264778,159.686996 
	C87.268852,163.180542 88.021378,165.129135 91.970284,164.693130 
	C93.943855,164.475220 96.022156,164.382812 97.939468,164.780899 
	C99.127876,165.027649 100.103043,166.301453 101.173920,167.114243 
	C100.155945,167.888077 99.175354,169.263489 98.113396,169.329468 
	C93.966011,169.587189 89.749863,169.768539 85.652374,169.246948 
	C84.194130,169.061325 82.096016,166.935364 81.866371,165.451218 
	C81.312721,161.873138 81.689568,158.151093 81.691864,153.991486 
z"/>
<path fill="#88C3DB" opacity="1.000000" stroke="none" 
	d="
M93.655838,198.938034 
	C91.671356,199.335510 90.039307,199.673996 88.400024,199.713776 
	C82.752548,199.850815 81.973114,200.531448 82.913147,206.118805 
	C83.115639,207.322327 84.894836,208.820557 86.207802,209.151581 
	C88.411957,209.707336 90.906204,209.107376 93.114197,209.655319 
	C94.154282,209.913422 94.813248,211.707306 95.644913,212.805283 
	C94.649361,213.499557 93.681381,214.741013 92.653442,214.792847 
	C88.332710,215.010620 83.959152,215.173981 79.683640,214.678314 
	C78.430275,214.533005 76.523338,212.178467 76.473763,210.781189 
	C76.172592,202.294022 76.298119,193.790741 76.334312,185.293091 
	C76.345932,182.564011 77.463669,180.935379 80.564873,181.055145 
	C84.391449,181.202896 88.248337,180.867752 92.048653,181.215851 
	C93.238731,181.324890 94.288246,182.968460 95.402107,183.909592 
	C94.250435,184.574554 93.166847,185.563995 91.930092,185.823471 
	C90.333572,186.158432 88.610336,185.987183 86.949226,185.896072 
	C83.566101,185.710464 82.770050,187.543182 82.698799,190.555969 
	C82.620590,193.862549 84.300858,194.490814 87.050362,194.340759 
	C88.704254,194.250504 90.424179,194.190430 92.022118,194.539474 
	C94.255226,195.027252 95.807312,196.184677 93.655838,198.938034 
z"/>
<path fill="#777879" opacity="1.000000" stroke="none" 
	d="
M263.807953,164.690674 
	C266.453522,164.723083 268.659607,164.489059 270.748566,164.880249 
	C271.702362,165.058853 272.425293,166.470428 273.252930,167.322800 
	C272.332825,168.014877 271.439087,169.258926 270.488129,169.304291 
	C266.180542,169.509766 261.841095,169.571884 257.550110,169.226486 
	C256.496552,169.141693 254.760101,167.349838 254.733078,166.306656 
	C254.505356,157.510513 254.486847,148.702606 254.745255,139.908234 
	C254.777908,138.797134 256.694031,136.932556 257.879333,136.812073 
	C261.825195,136.410965 265.846771,136.479019 269.814270,136.743271 
	C270.930084,136.817581 271.959869,138.183243 273.029114,138.956604 
	C271.944885,139.727661 270.954803,140.876160 269.752991,141.175919 
	C268.187988,141.566284 266.447449,141.387177 264.795837,141.267792 
	C261.513336,141.030533 259.507172,141.646439 259.568268,145.758011 
	C259.629791,149.898560 261.915955,150.338837 265.032288,150.316772 
	C266.691010,150.305023 268.404510,150.134842 269.987793,150.497116 
	C270.854950,150.695511 271.502655,151.853012 272.249298,152.578003 
	C271.414581,153.263062 270.664856,154.342865 269.726166,154.544937 
	C268.135345,154.887405 266.338806,154.359924 264.789032,154.783981 
	C263.168396,155.227417 260.411804,156.450180 260.460358,157.178345 
	C260.636414,159.818588 258.094208,163.920105 263.807953,164.690674 
z"/>
<path fill="#848586" opacity="1.000000" stroke="none" 
	d="
M183.253387,139.913452 
	C180.679565,140.598587 178.113617,140.718307 175.683563,141.355942 
	C173.957260,141.808914 172.414246,142.960327 170.789413,143.800018 
	C171.796356,145.505554 172.544724,147.464859 173.891373,148.837006 
	C174.985916,149.952271 176.799667,150.359741 178.291306,151.087601 
	C183.211868,153.488586 186.184952,158.228317 185.155045,162.023987 
	C183.751419,167.196960 177.377960,171.391708 171.861984,170.106979 
	C169.335083,169.518433 164.434067,170.612106 164.932800,166.346130 
	C165.425629,162.130844 169.578217,165.178406 172.045410,164.795059 
	C174.730759,164.377792 178.110016,165.508453 179.015808,161.668655 
	C179.910278,157.876968 177.033768,156.437790 174.243073,155.127960 
	C173.044601,154.565460 171.771683,154.134659 170.638199,153.465225 
	C164.767578,149.998093 163.252701,145.329193 166.446060,140.749878 
	C169.993408,135.662933 178.423660,134.066742 182.715530,137.735580 
	C183.133759,138.093094 183.128204,138.946350 183.253387,139.913452 
z"/>
<path fill="#BCD8E7" opacity="1.000000" stroke="none" 
	d="
M364.037933,93.065521 
	C367.044708,93.061691 370.051483,93.057861 373.596130,93.434357 
	C374.762085,95.721718 375.470673,97.606926 375.994598,99.542145 
	C376.478180,101.328407 376.763733,103.168289 377.131836,105.279816 
	C377.424408,106.047379 377.721619,106.519684 378.000153,107.368774 
	C377.976471,108.500015 377.971436,109.254463 377.680298,110.303635 
	C377.260590,114.751205 377.126923,118.904045 376.529236,123.042847 
	C371.706909,123.022423 367.348602,123.016037 362.990906,122.544548 
	C362.952820,117.729065 362.914215,113.378685 363.175781,108.790009 
	C362.987915,106.696754 362.499847,104.841805 362.012512,102.572327 
	C362.012390,100.776039 362.011627,99.394272 362.374237,97.933533 
	C363.171082,96.258209 363.604492,94.661865 364.037933,93.065521 
z"/>
<path fill="#84C1D9" opacity="1.000000" stroke="none" 
	d="
M342.701050,214.454224 
	C341.804718,212.923279 341.191925,211.596130 340.696075,210.226654 
	C338.893311,205.247604 334.012878,202.896881 329.257629,205.081802 
	C328.174591,205.579422 327.558350,207.296875 326.943451,208.558273 
	C326.150574,210.184692 325.845825,212.118225 324.800201,213.525146 
	C324.214996,214.312546 322.499359,214.668350 321.406799,214.496292 
	C320.867920,214.411438 320.021973,212.501358 320.275330,211.734436 
	C323.395477,202.290039 326.600128,192.869675 330.067505,183.548965 
	C330.483978,182.429428 332.642456,181.226456 333.870026,181.344666 
	C335.111816,181.464233 336.790558,182.958725 337.260803,184.227814 
	C340.539795,193.077148 343.623413,202.001373 346.616455,210.952820 
	C347.661133,214.077133 346.253448,215.370956 342.701050,214.454224 
M329.156128,199.493393 
	C331.585876,200.067474 334.015625,200.641556 337.836487,201.544327 
	C336.272766,196.197067 335.211395,192.567627 334.150024,188.938187 
	C333.630554,188.852142 333.111115,188.766098 332.591644,188.680054 
	C331.427155,192.015518 330.262665,195.350983 329.156128,199.493393 
z"/>
<path fill="#88C3DB" opacity="1.000000" stroke="none" 
	d="
M375.117432,189.150696 
	C375.749969,186.086761 373.333099,181.510010 377.822235,181.440811 
	C382.892731,181.362671 380.509766,186.183823 380.728149,188.872040 
	C381.103729,193.495377 380.801331,198.170685 380.871826,202.822830 
	C380.935913,207.052536 382.890778,209.861710 387.309875,210.202606 
	C391.296967,210.510162 394.118835,207.482239 394.229523,202.790985 
	C394.362793,197.143784 394.039246,191.475693 394.419006,185.850769 
	C394.528198,184.233551 396.383026,182.734177 397.437500,181.180756 
	C398.259369,182.753983 399.705566,184.294739 399.789368,185.906342 
	C400.073822,191.374832 400.030121,196.874023 399.827271,202.350937 
	C399.525330,210.504684 394.776733,215.090637 387.040527,215.021347 
	C379.636353,214.955017 375.363159,210.365402 375.146484,202.091415 
	C375.037781,197.939575 375.121155,193.782730 375.117432,189.150696 
M396.000000,190.668854 
	C396.000000,195.487946 396.000000,200.307037 396.000000,205.126129 
	C396.454590,205.122391 396.909149,205.118637 397.363739,205.114899 
	C397.363739,198.302719 397.363739,191.490555 397.363739,184.678391 
	C396.909149,184.670792 396.454590,184.663193 396.000000,184.655594 
	C396.000000,186.349274 396.000000,188.042953 396.000000,190.668854 
z"/>
<path fill="#88C3DB" opacity="1.000000" stroke="none" 
	d="
M217.759155,212.334320 
	C216.543732,213.411484 215.383972,214.068787 214.224228,214.726089 
	C213.557297,213.533752 212.334702,212.351746 212.312302,211.147430 
	C212.148560,202.341263 212.126694,193.528198 212.342285,184.724213 
	C212.371780,183.519638 213.962921,182.353302 214.831024,181.169266 
	C215.832428,182.393524 217.475998,183.511353 217.700241,184.864410 
	C218.153183,187.597275 217.835266,190.457916 217.835266,193.713440 
	C224.647385,191.008652 224.935074,180.006622 235.695312,181.477234 
	C232.480118,185.470566 230.105042,188.899048 227.235748,191.846436 
	C224.495880,194.660843 224.271515,196.805130 226.901550,199.922729 
	C229.656464,203.188416 231.762589,207.015121 234.018143,210.679184 
	C234.618225,211.653992 234.726364,212.931625 235.060364,214.070206 
	C233.538925,214.054184 231.462769,214.660828 230.606567,213.898056 
	C228.553940,212.069458 227.154190,209.529465 225.341736,207.403824 
	C223.500397,205.244263 221.480255,203.237167 219.538422,201.163300 
	C218.972717,203.916031 218.372559,206.662415 217.862793,209.425491 
	C217.714249,210.230682 217.823654,211.083466 217.759155,212.334320 
M213.989426,195.527649 
	C213.989426,200.818985 213.989426,206.110306 213.989426,211.401642 
	C214.648590,211.378540 215.307739,211.355438 215.966904,211.332321 
	C215.966904,202.443619 215.966904,193.554916 215.966904,184.666214 
	C215.307281,184.645508 214.647644,184.624802 213.988022,184.604080 
	C213.988022,187.916382 213.988022,191.228683 213.989426,195.527649 
z"/>
<path fill="#84C1D9" opacity="1.000000" stroke="none" 
	d="
M115.583435,180.567734 
	C118.281975,180.687500 120.704727,180.552338 122.839088,181.272202 
	C123.933891,181.641464 124.513535,183.538177 125.325989,184.744598 
	C124.162010,185.243149 122.881027,186.347000 121.851868,186.148056 
	C109.487732,183.758194 104.573257,192.117065 107.163933,203.373306 
	C108.282303,208.232529 114.528648,211.245453 120.171013,210.016266 
	C122.300758,209.552292 124.825554,208.212280 125.155960,211.506546 
	C125.255745,212.501511 122.515480,214.503601 120.836723,214.836334 
	C110.712654,216.842926 102.526680,211.294464 100.534279,201.428940 
	C98.567116,191.688354 104.645317,183.076614 115.583435,180.567734 
z"/>
<path fill="#9C9D9E" opacity="1.000000" stroke="none" 
	d="
M245.441681,169.250946 
	C241.506195,170.282837 240.112854,168.721420 240.390228,165.225723 
	C240.482071,164.068207 240.407608,162.897446 240.408112,161.732742 
	C240.411087,154.933258 240.385513,155.296967 233.689407,154.827957 
	C228.417145,154.458694 226.768051,156.403946 227.481400,161.323624 
	C227.717361,162.951004 227.960983,164.848557 227.348770,166.250351 
	C226.751953,167.616867 225.065536,168.507523 223.857498,169.607101 
	C222.955994,168.456818 221.301895,167.325150 221.272919,166.153290 
	C221.054932,157.340317 221.055038,148.516785 221.285858,139.704376 
	C221.315277,138.581589 223.150543,136.560364 224.009613,136.631897 
	C225.227798,136.733322 226.674332,138.198242 227.349426,139.445267 
	C227.911072,140.482773 227.684814,142.073853 227.489227,143.371735 
	C226.743408,148.320633 228.935272,149.684906 233.655182,149.432526 
	C240.342300,149.074951 240.346268,149.351196 240.414658,142.532791 
	C240.427933,141.208008 240.193710,139.695374 240.748260,138.615982 
	C241.255112,137.629486 242.655502,136.581818 243.699188,136.542389 
	C244.680756,136.505295 246.594757,137.760666 246.587021,138.429932 
	C246.469131,148.641937 246.102921,158.851089 245.441681,169.250946 
M225.012955,157.771637 
	C224.878723,155.167511 225.437775,152.687851 228.621750,153.120773 
	C233.282318,153.754425 238.691864,150.626770 242.498032,155.629745 
	C242.931046,156.198898 242.878647,157.239395 242.834686,158.049591 
	C242.718307,160.194443 242.325195,162.335388 242.359650,164.472778 
	C242.377747,165.595337 243.061615,166.707169 243.444839,167.823853 
	C243.737289,167.687912 244.029755,167.551987 244.322205,167.416046 
	C244.322205,157.738586 244.322205,148.061127 244.322205,138.383667 
	C243.813324,138.384857 243.304428,138.386032 242.795547,138.387222 
	C242.795547,140.118698 242.648041,141.865173 242.822205,143.578949 
	C243.433746,149.596756 242.178558,151.109055 236.322250,151.133148 
	C234.158691,151.142059 231.987854,151.020142 229.833084,151.157684 
	C226.096878,151.396133 224.729706,149.646790 224.980042,146.060181 
	C225.153015,143.581940 225.013275,141.081863 225.013275,138.591553 
	C224.556793,138.616425 224.100296,138.641312 223.643814,138.666183 
	C223.643814,148.227951 223.643814,157.789703 223.643814,167.351471 
	C224.101532,167.357407 224.559265,167.363358 225.016983,167.369308 
	C225.016983,164.474579 225.016983,161.579849 225.012955,157.771637 
z"/>
<path fill="#91C8DE" opacity="1.000000" stroke="none" 
	d="
M155.787415,181.403000 
	C156.434601,187.327347 156.774323,193.081345 156.941223,198.840347 
	C157.066498,203.163040 157.124710,207.501678 156.860718,211.811646 
	C156.796097,212.866547 155.353165,213.837021 154.543945,214.846313 
	C153.430176,213.886154 151.567841,213.067490 151.354172,211.937164 
	C150.868118,209.365891 151.024323,206.628632 151.228470,203.982666 
	C151.486465,200.638580 150.035187,199.402695 146.861435,199.783203 
	C146.533401,199.822540 146.196472,199.785385 145.863693,199.787781 
	C136.509659,199.854980 138.093262,199.041397 137.678253,207.694351 
	C137.562439,210.109283 135.933243,214.510895 135.082932,214.490402 
	C130.284012,214.374741 132.247314,210.205322 132.160217,207.633789 
	C131.912582,200.320709 131.920853,192.988297 132.191437,185.676926 
	C132.248535,184.134033 133.852707,182.648392 134.744049,181.136368 
	C135.762222,182.677414 137.566925,184.168655 137.668213,185.767776 
	C138.234741,194.710510 138.090317,194.587982 147.281403,194.322174 
	C150.405212,194.231842 151.443298,193.048096 151.208054,190.131271 
	C151.074707,188.477829 151.220963,186.803864 151.166260,185.141602 
	C151.068451,182.169815 152.351212,180.756287 155.787415,181.403000 
M135.865738,184.321533 
	C135.232040,185.182190 134.067429,186.031433 134.048630,186.905289 
	C133.898239,193.897293 133.945938,200.894073 133.979248,207.889145 
	C133.986450,209.398865 134.180740,210.907700 134.288864,212.416931 
	C134.865936,212.399460 135.443024,212.382004 136.020096,212.364548 
	C136.020096,209.362045 136.223511,206.342316 135.971359,203.361145 
	C135.613007,199.124512 137.441162,197.920731 141.501373,197.943069 
	C153.079269,198.006821 153.759033,198.135742 153.955765,203.364105 
	C154.050034,205.869507 153.971985,208.381378 153.971985,210.890320 
	C154.313522,210.884048 154.655045,210.877777 154.996582,210.871506 
	C154.996582,206.572189 154.996567,202.272873 154.996567,197.973557 
	C154.996567,193.729446 154.996582,189.485352 154.996582,185.241241 
	C153.973557,186.581741 153.978806,187.885788 153.972687,189.189789 
	C153.940735,196.004181 153.939636,196.032928 146.957977,196.010162 
	C134.209793,195.968613 136.239365,197.226212 135.865738,184.321533 
z"/>
<path fill="#91C8DE" opacity="1.000000" stroke="none" 
	d="
M361.716827,202.947571 
	C361.712677,205.928879 362.118805,208.518234 361.557037,210.877075 
	C361.198853,212.381088 359.406860,213.543625 358.257751,214.859268 
	C357.206940,213.496582 355.322327,212.177216 355.248932,210.763763 
	C354.921875,204.468475 354.999512,198.143372 355.161285,191.834946 
	C355.250641,188.351700 354.222931,186.686432 350.391296,186.591095 
	C348.746918,186.550171 347.147308,184.712234 345.527344,183.690765 
	C347.227814,182.807053 348.890411,181.261429 350.635742,181.161575 
	C356.264954,180.839493 361.929108,180.935028 367.568878,181.152237 
	C368.689545,181.195404 369.761932,182.491196 370.856598,183.209351 
	C369.897522,184.340118 368.831543,186.521805 367.996185,186.436813 
	C360.774200,185.702209 361.557068,190.481094 361.702911,194.983124 
	C361.783539,197.472275 361.717255,199.966202 361.716827,202.947571 
z"/>
<path fill="#9FCFE2" opacity="1.000000" stroke="none" 
	d="
M286.917511,183.904785 
	C284.254944,185.140549 281.664917,186.320129 278.960999,186.709991 
	C276.305481,187.092834 273.668396,186.395096 273.732208,190.649277 
	C273.792267,194.653595 276.251465,194.195496 278.751373,194.193375 
	C280.246613,194.192123 281.853546,193.885178 283.204193,194.334778 
	C284.438477,194.745621 285.395386,195.989655 286.474518,196.866486 
	C285.334869,197.851898 284.332977,199.158096 283.013489,199.724701 
	C281.887817,200.208069 280.367249,200.026489 279.073242,199.817627 
	C274.303284,199.047699 273.528961,201.531845 273.740723,205.571777 
	C273.893005,208.476181 275.062958,209.342667 277.722076,209.193192 
	C279.874237,209.072235 282.130524,208.838684 284.167480,209.347794 
	C285.451569,209.668732 286.416779,211.265442 287.525024,212.289871 
	C286.345490,213.184128 285.222046,214.744614 283.976044,214.849518 
	C280.015625,215.182953 276.007935,214.904770 272.021637,214.996994 
	C268.911774,215.068939 268.012451,213.427811 268.030975,210.631607 
	C268.088287,201.990311 267.913055,193.343796 268.199310,184.711594 
	C268.243317,183.384872 270.101715,181.198456 271.368195,181.001816 
	C275.426117,180.371765 279.612244,180.257095 283.721436,180.470886 
	C284.843903,180.529282 285.869904,182.441406 286.917511,183.904785 
M279.346283,198.050629 
	C280.742981,197.877731 282.139648,197.704819 283.536346,197.531906 
	C283.478271,197.014145 283.420166,196.496368 283.362091,195.978592 
	C280.585297,195.978592 277.777832,196.240143 275.038696,195.919037 
	C270.615479,195.400558 272.166626,191.742523 272.076416,189.222992 
	C271.743073,179.913864 279.729401,186.220459 283.430817,182.983475 
	C279.926422,182.983475 276.855408,183.140289 273.807770,182.940201 
	C270.640961,182.732300 269.779297,184.163132 269.895782,187.072418 
	C270.061798,191.219116 269.930664,195.377487 269.935150,199.530884 
	C269.950562,213.744888 269.952118,213.746704 284.350220,212.918900 
	C284.559418,212.906860 284.752991,212.623230 285.615662,211.949493 
	C282.763062,211.949493 280.639221,211.965805 278.515747,211.946411 
	C272.332031,211.889954 272.033875,211.560089 272.030334,204.897110 
	C272.026733,198.137482 272.026764,198.137482 279.346283,198.050629 
z"/>
<path fill="#E4EFF5" opacity="1.000000" stroke="none" 
	d="
M362.010803,98.012505 
	C362.011627,99.394272 362.012390,100.776039 361.997101,102.828201 
	C361.972809,103.669197 361.964630,103.839790 361.607117,104.010208 
	C359.837158,105.012009 358.416443,106.013977 356.579529,107.015427 
	C354.776001,107.015488 353.388672,107.016060 351.825623,106.670532 
	C351.114746,105.315094 350.098022,104.294899 350.120483,103.298134 
	C350.303131,95.193893 350.680328,87.094048 350.998291,78.992859 
	C353.367950,78.990814 355.737579,78.988777 358.739197,79.255676 
	C360.574554,80.017647 361.777954,80.510674 362.981384,81.003700 
	C362.983521,83.372131 362.985657,85.740562 362.643372,88.611496 
	C362.201599,90.411522 362.104218,91.709053 362.003418,93.423492 
	C362.003632,95.231110 362.007233,96.621803 362.010803,98.012505 
z"/>
<path fill="#91C8DE" opacity="1.000000" stroke="none" 
	d="
M57.066452,201.996246 
	C57.066673,198.175385 56.948139,194.844528 57.100319,191.526108 
	C57.252621,188.205017 56.092690,186.466888 52.532776,186.720261 
	C51.405792,186.800461 50.043568,186.773895 49.160713,186.212067 
	C48.224186,185.616104 47.170647,184.299652 47.215046,183.346619 
	C47.251995,182.553513 48.786484,181.204712 49.689930,181.177612 
	C56.168503,180.983231 62.659233,180.948349 69.135788,181.167511 
	C70.254982,181.205368 71.325211,182.690796 72.418060,183.507599 
	C71.358696,184.573227 70.165749,186.659714 69.261299,186.541367 
	C62.623180,185.672806 62.586475,189.630951 62.796108,194.370636 
	C63.038326,199.846924 63.071209,205.356033 62.712208,210.819168 
	C62.620064,212.221375 60.711723,213.504242 59.637753,214.841934 
	C58.775837,213.551773 57.361725,212.338760 57.168427,210.955185 
	C56.781170,208.183380 57.061588,205.318298 57.066452,201.996246 
z"/>
<path fill="#777879" opacity="1.000000" stroke="none" 
	d="
M154.738647,136.625305 
	C155.363968,136.625717 155.546722,136.580475 155.693787,136.633774 
	C157.621780,137.332581 159.544754,138.045288 161.468979,138.754517 
	C159.641052,139.602020 157.823029,141.125336 155.983078,141.152298 
	C152.466568,141.203842 151.365494,142.452713 151.490768,145.888123 
	C151.720688,152.194214 151.721603,158.520813 151.458374,164.823853 
	C151.395294,166.333633 149.919495,167.784439 149.093430,169.262360 
	C148.291840,167.705200 146.871368,166.176270 146.798859,164.585876 
	C146.526718,158.616470 146.478577,152.616364 146.772522,146.648743 
	C146.972595,142.587036 145.734222,140.924789 141.491211,141.142807 
	C140.018555,141.218445 138.459534,139.613113 136.939957,138.775558 
	C138.565750,138.058380 140.155518,136.843109 141.824463,136.722351 
	C145.956848,136.423325 150.125443,136.625000 154.738647,136.625305 
z"/>
<path fill="#68B7D9" opacity="1.000000" stroke="none" 
	d="
M392.797363,76.993797 
	C392.812744,73.628510 392.828125,70.263229 393.367004,66.448181 
	C402.909271,66.002586 411.928009,66.006752 420.981628,66.467178 
	C421.083282,70.289528 421.150116,73.655617 420.814941,77.167358 
	C415.956726,77.488922 411.500488,77.664841 406.927185,77.467506 
	C402.547424,77.037552 398.284760,76.980850 393.715393,76.932327 
	C393.204926,76.958267 393.001129,76.976036 392.797363,76.993797 
z"/>
<path fill="#88C3DB" opacity="1.000000" stroke="none" 
	d="
M248.828903,180.999054 
	C251.636414,181.625092 254.193436,181.868713 256.323029,182.952332 
	C261.044159,185.354568 261.802277,189.071228 259.455627,193.781967 
	C258.761200,195.175964 258.480133,197.621429 259.242584,198.757996 
	C264.077972,205.966156 260.936646,213.305161 252.089096,214.846832 
	C251.601761,214.931747 251.097198,214.917282 250.600769,214.950684 
	C240.312332,215.643143 240.268723,215.602203 240.270462,205.353424 
	C240.271378,200.043365 240.269104,194.733292 240.270111,189.423233 
	C240.271683,181.103989 240.272354,181.103989 248.828903,180.999054 
M253.304016,194.254807 
	C256.697418,190.644394 254.979263,187.760483 251.844330,184.281265 
	C245.948792,181.221924 242.002594,183.370087 241.995163,189.652542 
	C241.987732,195.934494 241.839661,202.223373 242.119827,208.492844 
	C242.179749,209.834030 243.685013,212.054825 244.754410,212.202271 
	C246.735840,212.475418 248.887009,211.517365 251.552658,210.709198 
	C258.518372,205.866943 258.575104,204.460648 252.377625,198.430939 
	C252.574692,197.254318 252.771744,196.077698 253.304016,194.254807 
z"/>
<path fill="#9C9D9E" opacity="1.000000" stroke="none" 
	d="
M197.767654,143.926163 
	C197.061813,146.965897 195.875137,149.985321 195.745789,153.049393 
	C195.434250,160.428574 199.574829,164.455460 206.875931,164.460938 
	C208.539612,164.462189 210.250305,164.125443 211.852005,164.419754 
	C213.104645,164.649948 214.222107,165.615738 215.399643,166.254669 
	C214.546310,167.333145 213.914963,168.947891 212.805328,169.407227 
	C201.554199,174.064713 189.530838,165.896866 189.391418,153.635254 
	C189.249664,141.167282 200.039001,132.814438 211.889832,136.410812 
	C213.268738,136.829285 214.234772,138.608337 215.392212,139.756607 
	C214.037292,140.379395 212.720535,141.413940 211.319962,141.543686 
	C207.851349,141.865005 204.344406,141.772507 200.346161,141.496185 
	C198.435593,141.375732 196.579681,141.112473 195.702835,141.916702 
	C190.784348,146.427856 191.268204,152.555801 192.055634,158.244629 
	C193.187607,166.422546 205.864655,171.394547 212.137924,166.515106 
	C203.219040,167.742218 198.622482,166.006805 195.533981,160.246353 
	C192.407623,154.415344 193.151031,148.983734 197.767654,143.926163 
M212.342606,138.375107 
	C208.688354,138.375107 205.034119,138.375107 201.379868,138.375107 
	C201.403320,138.779312 201.426773,139.183533 201.450226,139.587738 
	C205.164108,139.424789 208.877991,139.261826 212.342606,138.375107 
z"/>
<path fill="#8A8A8C" opacity="1.000000" stroke="none" 
	d="
M74.373909,144.831726 
	C79.032242,163.211441 68.622330,171.863708 51.111290,169.554810 
	C50.074429,169.418106 48.457909,167.747589 48.436638,166.762207 
	C48.239422,157.625107 48.280254,148.480820 48.430050,139.341553 
	C48.444145,138.481445 49.500546,137.227890 50.371292,136.856720 
	C57.988022,133.609909 69.281494,137.302399 74.373909,144.831726 
M64.933807,140.535095 
	C62.658894,138.242706 53.428486,136.797928 51.275684,138.602692 
	C50.525562,139.231522 50.034538,140.582138 50.020844,141.611038 
	C49.917252,149.395126 49.894886,157.182449 50.041935,164.965088 
	C50.061085,165.978592 51.151337,167.803848 51.812023,167.834854 
	C55.422268,168.004288 59.055908,167.765686 62.669281,167.500671 
	C62.842934,167.487930 62.900940,165.898346 63.461288,164.541092 
	C70.140663,160.088852 71.412109,155.988892 69.935310,146.125015 
	C73.836838,150.722595 71.689255,155.631958 70.093315,161.035278 
	C76.475540,154.977951 74.725563,145.875992 66.758926,140.510513 
	C66.853462,141.360703 66.940582,142.144226 66.441505,142.944000 
	C65.940178,142.414597 65.438843,141.885193 64.933807,140.535095 
z"/>
<path fill="#72B8D4" opacity="1.000000" stroke="none" 
	d="
M450.606018,46.265732 
	C450.483246,45.510933 450.442474,45.180721 450.437134,44.849934 
	C450.232941,32.252533 451.338257,31.290070 463.900330,33.115749 
	C464.227814,33.163345 464.782440,33.082901 464.853607,33.236774 
	C465.534424,34.708820 466.731720,36.256489 466.639465,37.710003 
	C466.404175,41.416210 466.695190,47.304600 464.750488,48.279301 
	C461.334717,49.991295 456.404083,48.749439 452.116119,48.559547 
	C451.618927,48.537533 451.173767,47.341682 450.606018,46.265732 
z"/>
<path fill="#B3D7E8" opacity="1.000000" stroke="none" 
	d="
M392.453369,76.961472 
	C393.001129,76.976036 393.204926,76.958267 393.992249,77.240921 
	C398.731934,77.641159 402.888092,77.740959 407.044250,77.840759 
	C411.500488,77.664841 415.956726,77.488922 421.098267,77.193695 
	C422.218719,77.636925 422.653870,78.199471 422.803223,79.038651 
	C422.353363,83.862686 422.189301,88.410095 422.025208,92.957504 
	C421.575500,92.979477 421.125793,93.001450 420.048828,92.714844 
	C415.310181,92.267975 411.198822,92.129684 407.063110,91.592484 
	C407.045380,90.127571 407.051971,89.061569 407.308167,87.780708 
	C407.392731,86.378654 407.227753,85.191452 407.051270,83.613998 
	C406.963470,82.129128 406.887115,81.034515 406.814880,79.999008 
	C401.930481,79.999008 397.370514,79.999008 392.553284,79.889305 
	C391.523254,79.281441 390.750519,78.783287 389.993896,77.980286 
	C390.016266,77.472023 390.022552,77.268608 390.028809,77.065201 
	C390.722351,77.019844 391.415863,76.974487 392.453369,76.961472 
z"/>
<path fill="#72BBDB" opacity="1.000000" stroke="none" 
	d="
M389.977753,78.285126 
	C390.750519,78.783287 391.523254,79.281441 392.548828,80.352814 
	C392.747437,84.940094 392.693207,88.954170 392.482544,93.008392 
	C392.123993,93.154457 391.993774,93.317764 391.529541,93.571327 
	C386.748230,93.409996 382.372925,93.215805 377.946960,92.793167 
	C377.755035,92.264862 377.526215,92.065460 377.209869,91.966484 
	C377.205109,88.331085 377.200317,84.695686 377.505920,80.534439 
	C378.262848,79.434319 378.709442,78.860046 379.156067,78.285789 
	C379.156067,78.285797 379.162964,78.160782 379.561829,78.166740 
	C383.299713,78.210175 386.638733,78.247650 389.977753,78.285126 
z"/>
<path fill="#84C1D9" opacity="1.000000" stroke="none" 
	d="
M198.327332,186.442383 
	C198.520660,183.669357 198.425995,180.647324 201.808258,181.396729 
	C203.064163,181.675003 204.541473,184.393173 204.601379,186.046402 
	C204.890778,194.033569 204.893707,202.042999 204.597061,210.029648 
	C204.536758,211.653183 202.965240,214.344727 201.715607,214.583633 
	C198.323532,215.232071 198.372513,212.192352 198.352219,209.882782 
	C198.284851,202.218948 198.326782,194.554153 198.327332,186.442383 
z"/>
<path fill="#BCD8E7" opacity="1.000000" stroke="none" 
	d="
M450.116821,107.930603 
	C450.631531,112.204880 450.999786,116.170822 450.891907,120.123764 
	C450.865570,121.089531 449.304504,122.039223 448.386658,122.932137 
	C448.211945,123.102089 447.739777,123.005753 447.411102,122.971848 
	C444.039398,122.624001 438.387848,123.221603 437.755157,121.714966 
	C436.264557,118.165352 436.981201,113.598389 437.253357,109.472565 
	C437.310211,108.610260 439.267059,107.260040 440.404602,107.199989 
	C443.518738,107.035599 446.662872,107.438927 450.116821,107.930603 
z"/>
<path fill="#D4E7F0" opacity="1.000000" stroke="none" 
	d="
M288.005371,103.711243 
	C288.002686,103.086937 288.002563,102.921043 288.002563,102.755150 
	C288.001801,92.692818 289.893677,91.114861 299.957642,93.106682 
	C301.024139,93.317757 302.645111,94.466286 302.720062,95.296318 
	C303.031677,98.745995 302.922974,102.243294 302.781921,105.715530 
	C302.755707,106.361282 301.889130,107.497162 301.378143,107.515640 
	C297.442780,107.657959 293.488281,107.724106 289.570374,107.419540 
	C288.968994,107.372787 288.524841,105.303520 288.005371,103.711243 
z"/>
<path fill="#72BBDB" opacity="1.000000" stroke="none" 
	d="
M422.487854,93.009979 
	C422.189301,88.410095 422.353363,83.862686 423.256409,79.091522 
	C428.046783,78.783707 432.098175,78.699661 436.149536,78.615616 
	C436.377747,82.673347 436.772095,86.734406 436.690765,90.785919 
	C436.674927,91.574257 434.851624,92.908119 433.787201,92.987587 
	C430.193146,93.255920 426.565399,93.072914 422.487854,93.009979 
z"/>
<path fill="#72BBDB" opacity="1.000000" stroke="none" 
	d="
M421.245178,61.854004 
	C421.333466,57.790764 421.421753,53.727524 422.226654,49.361000 
	C427.628052,49.371643 432.312836,49.685566 436.997650,49.999485 
	C436.991760,53.693581 436.985840,57.387680 436.756348,61.677826 
	C436.376495,62.597366 436.220306,62.920856 436.064087,63.244347 
	C432.039703,63.235462 428.015320,63.226582 423.408813,62.962959 
	C422.299530,62.423477 421.772369,62.138741 421.245178,61.854004 
z"/>
<path fill="#E8F2F7" opacity="1.000000" stroke="none" 
	d="
M319.005493,138.000000 
	C315.570374,137.669998 312.135895,137.089676 308.699951,137.081070 
	C305.329529,137.072601 303.684052,135.894897 303.990814,132.419098 
	C304.063416,131.596451 303.998840,130.761749 303.998901,129.932602 
	C303.999268,123.005630 304.000793,123.081573 310.825439,122.951614 
	C313.271118,122.905045 315.707977,122.394112 318.573730,122.287903 
	C318.999115,122.648689 318.999573,122.816681 319.000244,123.448967 
	C319.337158,128.604538 319.673828,133.295807 319.759308,137.994232 
	C319.340546,138.000916 319.173004,138.000458 319.005493,138.000000 
z"/>
<path fill="#D1E3ED" opacity="1.000000" stroke="none" 
	d="
M319.000000,122.984665 
	C318.999573,122.816681 318.999115,122.648689 318.984863,122.228798 
	C318.973755,117.956497 318.976379,113.936096 319.450409,109.457253 
	C324.277527,109.001083 328.633270,109.003349 332.989014,109.005615 
	C332.991333,113.355804 332.993622,117.705994 332.995728,122.527969 
	C332.995514,122.999756 333.000000,123.013199 332.535339,123.009628 
	C327.713806,122.998924 323.356903,122.991791 319.000000,122.984665 
z"/>
<path fill="#E4EFF5" opacity="1.000000" stroke="none" 
	d="
M392.976135,111.014465 
	C392.984680,115.034981 392.993225,119.055504 392.740540,123.429977 
	C391.982239,123.525078 391.485138,123.266220 390.530762,123.004372 
	C386.715607,122.999634 383.357819,122.997894 379.832672,122.617447 
	C379.439331,118.163063 379.213318,114.087379 379.394257,109.957779 
	C384.374664,108.117020 388.739014,108.810867 392.976135,111.014465 
z"/>
<path fill="#D1E3ED" opacity="1.000000" stroke="none" 
	d="
M377.059204,140.004181 
	C377.056671,143.033096 377.054169,146.062027 376.670013,149.705383 
	C371.864655,150.541840 367.440948,150.763840 363.017242,150.985840 
	C363.010620,146.965546 363.003998,142.945267 363.005249,138.225266 
	C363.013153,137.525543 363.003662,137.052231 363.456909,137.039536 
	C366.929565,137.033569 369.949036,137.040298 373.027039,137.378174 
	C374.410126,138.474289 375.734650,139.239227 377.059204,140.004181 
z"/>
<path fill="#BCD8E7" opacity="1.000000" stroke="none" 
	d="
M420.050415,122.055359 
	C406.974213,123.962349 406.974213,123.962349 407.391785,110.294601 
	C412.215576,109.776070 416.655609,109.890526 421.095642,110.004982 
	C421.091278,112.041351 421.086914,114.077721 420.794128,116.789398 
	C420.353943,118.994926 420.202179,120.525139 420.050415,122.055359 
z"/>
<path fill="#D1E3ED" opacity="1.000000" stroke="none" 
	d="
M318.996155,138.462601 
	C319.173004,138.000458 319.340546,138.000916 320.218597,137.997131 
	C324.606781,137.976883 328.284454,137.960861 332.228577,137.962463 
	C332.672943,137.986801 332.850830,137.993515 333.028687,138.000229 
	C333.025909,142.027466 333.023102,146.054703 332.548859,150.542236 
	C327.715912,151.003876 323.354431,151.005219 318.992950,151.006561 
	C318.990875,146.979446 318.988831,142.952332 318.996155,138.462601 
z"/>
<path fill="#BCD8E7" opacity="1.000000" stroke="none" 
	d="
M380.000000,122.996147 
	C383.357819,122.997894 386.715607,122.999634 390.537323,123.458969 
	C391.636780,127.292564 392.272339,130.668564 392.907928,134.044571 
	C392.511871,135.012329 392.115784,135.980087 390.921539,136.987183 
	C386.418030,137.016235 382.712708,137.005951 379.002563,136.534698 
	C379.331848,131.714539 379.665924,127.355339 380.000000,122.996147 
z"/>
<path fill="#BCD8E7" opacity="1.000000" stroke="none" 
	d="
M404.956268,107.151726 
	C401.593842,107.150917 398.231384,107.150108 394.311768,106.911942 
	C393.444824,106.468941 393.135071,106.263290 392.860138,105.593483 
	C392.904541,101.751976 392.914062,98.374619 393.281555,94.992912 
	C394.440338,94.352791 395.241150,93.717033 396.488342,93.066605 
	C399.610748,93.061966 402.286804,93.071991 405.030121,93.486160 
	C405.050354,98.310783 405.003296,102.731255 404.956268,107.151726 
z"/>
<path fill="#E8F2F7" opacity="1.000000" stroke="none" 
	d="
M333.347412,109.062042 
	C328.633270,109.003349 324.277527,109.001083 319.456177,108.993423 
	C320.445435,108.325081 321.908783,107.079834 323.353638,107.100990 
	C329.290344,107.187881 335.218109,107.821587 341.155487,107.942024 
	C346.405090,108.048515 347.919891,106.403877 347.976227,101.122643 
	C348.039917,95.148056 347.855774,89.166946 348.090576,83.200920 
	C348.146332,81.783554 349.441071,80.414948 350.582092,79.008385 
	C350.680328,87.094048 350.303131,95.193893 350.120483,103.298134 
	C350.098022,104.294899 351.114746,105.315094 351.572998,106.953278 
	C350.662048,108.942307 349.234924,110.249977 349.108917,111.672852 
	C348.777313,115.417969 349.011444,119.213173 349.020233,122.988426 
	C348.234741,121.518524 346.664307,119.974922 346.794220,118.590958 
	C347.508667,110.981224 345.753326,109.173462 338.467987,110.235313 
	C336.966736,110.454132 335.297577,109.520775 333.347412,109.062042 
z"/>
<path fill="#D4E7F0" opacity="1.000000" stroke="none" 
	d="
M404.994934,107.457306 
	C405.003296,102.731255 405.050354,98.310783 405.297546,93.350754 
	C406.027618,92.537918 406.557526,92.264656 407.087463,91.991394 
	C411.198822,92.129684 415.310181,92.267975 419.710754,92.701187 
	C417.290375,93.322739 414.575348,93.946503 411.872498,93.897606 
	C408.786377,93.841774 407.615967,95.036079 407.964783,97.986870 
	C408.003326,98.312927 407.966309,98.647568 407.969513,98.978180 
	C408.059387,108.247795 407.070892,106.779289 415.789032,107.074638 
	C417.853363,107.144569 421.001251,105.559006 421.333374,109.760529 
	C416.655609,109.890526 412.215576,109.776070 407.400513,109.829269 
	C406.361481,109.252243 405.697540,108.507561 404.994934,107.457306 
z"/>
<path fill="#666769" opacity="1.000000" stroke="none" 
	d="
M197.964417,143.699371 
	C193.151031,148.983734 192.407623,154.415344 195.533981,160.246353 
	C198.622482,166.006805 203.219040,167.742218 212.137924,166.515106 
	C205.864655,171.394547 193.187607,166.422546 192.055634,158.244629 
	C191.268204,152.555801 190.784348,146.427856 195.702835,141.916702 
	C196.579681,141.112473 198.435593,141.375732 199.875000,141.491882 
	C199.327438,142.382629 198.744308,142.927597 197.964417,143.699371 
z"/>
<path fill="#7FBED8" opacity="1.000000" stroke="none" 
	d="
M420.946777,66.010918 
	C411.928009,66.006752 402.909271,66.002586 393.415985,65.990875 
	C392.600952,62.857422 394.774750,63.057137 396.805908,63.055103 
	C404.557739,63.047359 412.309540,63.035278 420.517334,63.264343 
	C420.997986,63.679203 421.022644,63.854542 421.050903,64.361031 
	C421.018616,65.131760 420.982697,65.571342 420.946777,66.010918 
z"/>
<path fill="#D4E7F0" opacity="1.000000" stroke="none" 
	d="
M420.981628,66.467178 
	C420.982697,65.571342 421.018616,65.131760 421.419739,64.359039 
	C422.280914,64.004280 422.776855,63.982655 423.272827,63.961033 
	C423.228638,71.811249 424.336426,78.557076 434.982697,76.380913 
	C435.222534,76.331902 435.680084,77.348091 436.092834,78.241508 
	C432.098175,78.699661 428.046783,78.783707 423.542175,78.814880 
	C422.653870,78.199471 422.218719,77.636925 421.500244,77.048050 
	C421.150116,73.655617 421.083282,70.289528 420.981628,66.467178 
z"/>
<path fill="#E8F2F7" opacity="1.000000" stroke="none" 
	d="
M333.371155,137.970917 
	C332.850830,137.993515 332.672943,137.986801 332.295166,137.556030 
	C332.396851,132.425720 332.698425,127.719460 333.000000,123.013199 
	C333.000000,123.013199 332.995514,122.999756 332.990417,122.991501 
	C333.930908,124.339172 335.362610,125.579170 335.719421,127.075493 
	C336.430664,130.058182 336.551483,133.181671 336.957764,136.625031 
	C335.904083,137.315903 334.808868,137.628754 333.371155,137.970917 
z"/>
<path fill="#EEF7FA" opacity="1.000000" stroke="none" 
	d="
M392.825287,106.057640 
	C393.135071,106.263290 393.444824,106.468941 393.852905,106.945190 
	C393.633301,108.256416 393.315460,109.297043 392.986877,110.676071 
	C388.739014,108.810867 384.374664,108.117020 379.139099,109.954956 
	C378.306824,110.007011 378.136597,110.007957 377.966400,110.008911 
	C377.971436,109.254463 377.976471,108.500015 378.461487,107.369843 
	C383.569397,106.681961 388.197357,106.369797 392.825287,106.057640 
z"/>
<path fill="#E4EFF5" opacity="1.000000" stroke="none" 
	d="
M379.007355,136.995697 
	C382.712708,137.005951 386.418030,137.016235 390.588043,137.066742 
	C389.734894,137.735077 388.469269,138.714798 387.088654,138.919617 
	C384.024750,139.374146 380.903168,139.440063 377.432159,139.834320 
	C375.734650,139.239227 374.410126,138.474289 373.380463,137.357208 
	C374.782043,136.669678 375.888733,136.334290 377.255249,136.107239 
	C378.012512,136.475601 378.509949,136.735641 379.007355,136.995697 
z"/>
<path fill="#D4E7F0" opacity="1.000000" stroke="none" 
	d="
M437.252838,49.771603 
	C432.312836,49.685566 427.628052,49.371643 422.481689,49.047615 
	C422.625275,48.386730 423.204712,47.203247 423.839752,47.172634 
	C427.632812,46.989761 431.447876,46.932026 435.232910,47.179161 
	C436.039307,47.231819 436.752106,48.717983 437.252838,49.771603 
z"/>
<path fill="#E4EFF5" opacity="1.000000" stroke="none" 
	d="
M363.099030,151.383209 
	C367.440948,150.763840 371.864655,150.541840 376.679443,150.159195 
	C376.855774,150.887222 376.614899,152.556412 376.429962,152.550232 
	C372.009949,152.402573 367.595917,152.075256 363.099030,151.383209 
z"/>
<path fill="#D4E7F0" opacity="1.000000" stroke="none" 
	d="
M376.881592,92.081131 
	C377.526215,92.065460 377.755035,92.264862 377.963989,93.247803 
	C377.733246,97.615448 377.434875,101.300003 377.136475,104.984558 
	C376.763733,103.168289 376.478180,101.328407 375.994598,99.542145 
	C375.470673,97.606926 374.762085,95.721718 374.046265,93.450043 
	C374.823486,92.788841 375.688416,92.492310 376.881592,92.081131 
z"/>
<path fill="#E4EFF5" opacity="1.000000" stroke="none" 
	d="
M319.082947,151.401428 
	C323.354431,151.005219 327.715912,151.003876 332.542999,151.005371 
	C331.388550,151.671738 329.770264,152.876144 328.148010,152.881500 
	C325.157562,152.891373 322.164764,152.197144 319.082947,151.401428 
z"/>
<path fill="#E8F2F7" opacity="1.000000" stroke="none" 
	d="
M389.993896,77.980286 
	C386.638733,78.247650 383.299713,78.210175 379.509644,78.132118 
	C381.973114,74.018227 385.931946,76.585121 389.747681,76.759903 
	C390.022552,77.268608 390.016266,77.472023 389.993896,77.980286 
z"/>
<path fill="#D4E7F0" opacity="1.000000" stroke="none" 
	d="
M392.945129,133.587402 
	C392.272339,130.668564 391.636780,127.292564 390.994629,123.461960 
	C391.485138,123.266220 391.982239,123.525078 392.738434,123.892532 
	C392.992462,127.044182 392.987396,130.087219 392.945129,133.587402 
z"/>
<path fill="#D4E7F0" opacity="1.000000" stroke="none" 
	d="
M420.401367,121.983772 
	C420.202179,120.525139 420.353943,118.994926 420.806213,117.225555 
	C420.988586,118.628326 420.870483,120.270256 420.401367,121.983772 
z"/>
<path fill="#D4E7F0" opacity="1.000000" stroke="none" 
	d="
M362.374207,97.933533 
	C362.007233,96.621803 362.003632,95.231110 362.261047,93.415344 
	C362.693604,92.979195 362.865112,92.968117 363.036652,92.957039 
	C363.204102,92.968163 363.371582,92.979286 363.788483,93.027962 
	C363.604492,94.661865 363.171082,96.258209 362.374207,97.933533 
z"/>
<path fill="#E8F2F7" opacity="1.000000" stroke="none" 
	d="
M363.003662,137.052231 
	C363.003662,137.052231 363.013153,137.525543 363.007202,137.762161 
	C362.197174,137.750824 361.393127,137.502884 360.294556,137.128693 
	C360.767059,136.024353 361.534088,135.046280 362.647644,134.413223 
	C362.997314,135.522919 363.000488,136.287567 363.003662,137.052231 
z"/>
<path fill="#E8F2F7" opacity="1.000000" stroke="none" 
	d="
M362.951843,80.659454 
	C361.777954,80.510674 360.574554,80.017647 359.183105,79.255295 
	C360.304169,79.429047 361.613251,79.872131 362.951843,80.659454 
z"/>
<path fill="#E8F2F7" opacity="1.000000" stroke="none" 
	d="
M363.025055,92.561928 
	C362.865112,92.968117 362.693604,92.979195 362.264465,92.998428 
	C362.104218,91.709053 362.201599,90.411522 362.637573,89.055222 
	C362.988617,90.053238 363.001038,91.110031 363.025055,92.561928 
z"/>
<path fill="#B3D7E8" opacity="1.000000" stroke="none" 
	d="
M378.809387,78.221161 
	C378.709442,78.860046 378.262848,79.434319 377.542572,80.086655 
	C377.666840,79.495331 378.064758,78.825928 378.809387,78.221161 
z"/>
<path fill="#D4E7F0" opacity="1.000000" stroke="none" 
	d="
M436.232971,63.430542 
	C436.220306,62.920856 436.376495,62.597366 436.771393,62.138462 
	C437.190552,62.467098 437.371002,62.931145 437.551453,63.395195 
	C437.168243,63.469044 436.785065,63.542889 436.232971,63.430542 
z"/>
<path fill="#B3D7E8" opacity="1.000000" stroke="none" 
	d="
M423.226257,63.792709 
	C422.776855,63.982655 422.280914,64.004280 421.416138,64.027893 
	C421.022644,63.854542 420.997986,63.679203 420.985260,63.238289 
	C421.005585,62.779568 421.013947,62.586422 421.133759,62.123634 
	C421.772369,62.138741 422.299530,62.423477 422.951752,62.999397 
	C423.076782,63.290577 423.179657,63.624386 423.226257,63.792709 
z"/>
<path fill="#FEFEFE" opacity="1.000000" stroke="none" 
	d="
M349.472229,122.989929 
	C349.011444,119.213173 348.777313,115.417969 349.108917,111.672852 
	C349.234924,110.249977 350.662048,108.942307 351.748749,107.299385 
	C353.388672,107.016060 354.776001,107.015488 356.829407,107.288689 
	C358.976715,107.724655 360.457977,107.886856 362.040710,108.260056 
	C362.325562,108.737236 362.570007,108.922989 362.875610,109.028305 
	C362.914215,113.378685 362.952820,117.729065 362.995605,122.539894 
	C362.999725,123.000343 362.996002,123.003990 362.596375,123.000015 
	C361.130768,122.999321 360.064758,123.002594 358.998779,123.005859 
	C355.973938,123.001053 352.949097,122.996246 349.472229,122.989929 
z"/>
<path fill="#FEFEFE" opacity="1.000000" stroke="none" 
	d="
M363.456909,137.039536 
	C363.000488,136.287567 362.997314,135.522919 362.986328,134.376678 
	C362.982178,132.283188 362.985870,130.571274 362.991791,128.014648 
	C362.994690,125.781296 362.995361,124.392639 362.996033,123.003990 
	C362.996002,123.003990 362.999725,123.000343 362.995026,123.004997 
	C367.348602,123.016037 371.706909,123.022423 376.523163,123.499725 
	C376.985901,127.980064 376.990662,131.989487 376.995422,135.998901 
	C375.888733,136.334290 374.782043,136.669678 373.321899,137.026031 
	C369.949036,137.040298 366.929565,137.033569 363.456909,137.039536 
z"/>
<path fill="#E8F2F7" opacity="1.000000" stroke="none" 
	d="
M362.596375,123.000015 
	C362.995361,124.392639 362.994690,125.781296 362.987000,127.586655 
	C361.676697,126.567795 360.373352,125.132210 359.034393,123.351242 
	C360.064758,123.002594 361.130768,122.999321 362.596375,123.000015 
z"/>
<path fill="#FEFEFE" opacity="1.000000" stroke="none" 
	d="
M309.122986,192.989182 
	C307.962830,194.042374 306.967285,195.442413 305.612457,196.085648 
	C300.992950,198.278824 299.008789,196.959671 299.011078,191.894989 
	C299.012604,188.474792 297.793976,184.067307 304.504242,185.505615 
	C306.081238,186.416229 307.127563,186.992416 308.173889,187.568604 
	C308.173889,187.568604 308.307526,187.700378 308.259766,188.164459 
	C308.515686,190.082108 308.819336,191.535645 309.122986,192.989182 
z"/>
<path fill="#BCD8E7" opacity="1.000000" stroke="none" 
	d="
M309.380066,192.751755 
	C308.819336,191.535645 308.515686,190.082108 308.320801,188.235718 
	C308.832123,189.400024 309.234650,190.957184 309.380066,192.751755 
z"/>
<path fill="#BCD8E7" opacity="1.000000" stroke="none" 
	d="
M308.076660,187.267853 
	C307.127563,186.992416 306.081238,186.416229 304.924011,185.531601 
	C305.868561,185.804474 306.923981,186.385788 308.076660,187.267853 
z"/>
<path fill="#FEFEFE" opacity="1.000000" stroke="none" 
	d="
M377.131836,105.279816 
	C377.434875,101.300003 377.733246,97.615448 378.014587,93.476257 
	C382.372925,93.215805 386.748230,93.409996 391.602448,93.875328 
	C392.362091,94.430069 392.642853,94.713676 392.923615,94.997269 
	C392.914062,98.374619 392.904541,101.751976 392.860138,105.593483 
	C388.197357,106.369797 383.569397,106.681961 378.480164,106.993057 
	C377.721619,106.519684 377.424408,106.047379 377.131836,105.279816 
z"/>
<path fill="#D4E7F0" opacity="1.000000" stroke="none" 
	d="
M377.255249,136.107224 
	C376.990662,131.989487 376.985901,127.980064 376.987213,123.513771 
	C377.126923,118.904045 377.260590,114.751205 377.680298,110.303635 
	C378.136597,110.007957 378.306824,110.007011 378.732178,110.008881 
	C379.213318,114.087379 379.439331,118.163063 379.832672,122.617447 
	C379.665924,127.355339 379.331848,131.714539 379.002563,136.534714 
	C378.509949,136.735641 378.012512,136.475601 377.255249,136.107224 
z"/>
<path fill="#D4E7F0" opacity="1.000000" stroke="none" 
	d="
M363.175781,108.790009 
	C362.570007,108.922989 362.325562,108.737236 362.059570,107.855011 
	C361.970093,106.162773 361.963257,105.086578 361.956421,104.010384 
	C361.964630,103.839790 361.972809,103.669197 361.996399,103.242729 
	C362.499847,104.841805 362.987915,106.696754 363.175781,108.790009 
z"/>
<path fill="#E4EFF5" opacity="1.000000" stroke="none" 
	d="
M329.127136,199.089920 
	C330.262665,195.350983 331.427155,192.015518 332.591644,188.680054 
	C333.111115,188.766098 333.630554,188.852142 334.150024,188.938187 
	C335.211395,192.567627 336.272766,196.197067 337.836487,201.544327 
	C334.015625,200.641556 331.585876,200.067474 329.127136,199.089920 
z"/>
<path fill="#66B2D0" opacity="1.000000" stroke="none" 
	d="
M396.000000,190.202744 
	C396.000000,188.042953 396.000000,186.349274 396.000000,184.655594 
	C396.454590,184.663193 396.909149,184.670792 397.363739,184.678391 
	C397.363739,191.490555 397.363739,198.302719 397.363739,205.114899 
	C396.909149,205.118637 396.454590,205.122391 396.000000,205.126129 
	C396.000000,200.307037 396.000000,195.487946 396.000000,190.202744 
z"/>
<path fill="#66B2D0" opacity="1.000000" stroke="none" 
	d="
M213.988724,195.034317 
	C213.988022,191.228683 213.988022,187.916382 213.988022,184.604080 
	C214.647644,184.624802 215.307281,184.645508 215.966904,184.666214 
	C215.966904,193.554916 215.966904,202.443619 215.966904,211.332321 
	C215.307739,211.355438 214.648590,211.378540 213.989426,211.401642 
	C213.989426,206.110306 213.989426,200.818985 213.988724,195.034317 
z"/>
<path fill="#666769" opacity="1.000000" stroke="none" 
	d="
M225.014969,158.228378 
	C225.016983,161.579849 225.016983,164.474579 225.016983,167.369308 
	C224.559265,167.363358 224.101532,167.357407 223.643814,167.351471 
	C223.643814,157.789703 223.643814,148.227951 223.643814,138.666183 
	C224.100296,138.641312 224.556793,138.616425 225.013275,138.591553 
	C225.013275,141.081863 225.153015,143.581940 224.980042,146.060181 
	C224.729706,149.646790 226.096878,151.396133 229.833084,151.157684 
	C231.987854,151.020142 234.158691,151.142059 236.322250,151.133148 
	C242.178558,151.109055 243.433746,149.596756 242.822205,143.578949 
	C242.648041,141.865173 242.795547,140.118698 242.795547,138.387222 
	C243.304428,138.386032 243.813324,138.384857 244.322205,138.383667 
	C244.322205,148.061127 244.322205,157.738586 244.322205,167.416046 
	C244.029755,167.551987 243.737289,167.687912 243.444839,167.823853 
	C243.061615,166.707169 242.377747,165.595337 242.359650,164.472778 
	C242.325195,162.335388 242.718307,160.194443 242.834686,158.049591 
	C242.878647,157.239395 242.931046,156.198898 242.498032,155.629745 
	C238.691864,150.626770 233.282318,153.754425 228.621750,153.120773 
	C225.437775,152.687851 224.878723,155.167511 225.014969,158.228378 
z"/>
<path fill="#66B2D0" opacity="1.000000" stroke="none" 
	d="
M135.930283,184.732132 
	C136.239365,197.226212 134.209793,195.968613 146.957977,196.010162 
	C153.939636,196.032928 153.940735,196.004181 153.972687,189.189789 
	C153.978806,187.885788 153.973557,186.581741 154.996582,185.241241 
	C154.996582,189.485352 154.996567,193.729446 154.996567,197.973557 
	C154.996567,202.272873 154.996582,206.572189 154.996582,210.871506 
	C154.655045,210.877777 154.313522,210.884048 153.971985,210.890320 
	C153.971985,208.381378 154.050034,205.869507 153.955765,203.364105 
	C153.759033,198.135742 153.079269,198.006821 141.501373,197.943069 
	C137.441162,197.920731 135.613007,199.124512 135.971359,203.361145 
	C136.223511,206.342316 136.020096,209.362045 136.020096,212.364548 
	C135.443024,212.382004 134.865936,212.399460 134.288864,212.416931 
	C134.180740,210.907700 133.986450,209.398865 133.979248,207.889145 
	C133.945938,200.894073 133.898239,193.897293 134.048630,186.905289 
	C134.067429,186.031433 135.232040,185.182190 135.930283,184.732132 
z"/>
<path fill="#66B2D0" opacity="1.000000" stroke="none" 
	d="
M278.902740,198.050751 
	C272.026764,198.137482 272.026733,198.137482 272.030334,204.897110 
	C272.033875,211.560089 272.332031,211.889954 278.515747,211.946411 
	C280.639221,211.965805 282.763062,211.949493 285.615662,211.949493 
	C284.752991,212.623230 284.559418,212.906860 284.350220,212.918900 
	C269.952118,213.746704 269.950562,213.744888 269.935150,199.530884 
	C269.930664,195.377487 270.061798,191.219116 269.895782,187.072418 
	C269.779297,184.163132 270.640961,182.732300 273.807770,182.940201 
	C276.855408,183.140289 279.926422,182.983475 283.430817,182.983475 
	C279.729401,186.220459 271.743073,179.913864 272.076416,189.222992 
	C272.166626,191.742523 270.615479,195.400558 275.038696,195.919037 
	C277.777832,196.240143 280.585297,195.978592 283.362091,195.978592 
	C283.420166,196.496368 283.478271,197.014145 283.536346,197.531906 
	C282.139648,197.704819 280.742981,197.877731 278.902740,198.050751 
z"/>
<path fill="#E8F2F7" opacity="1.000000" stroke="none" 
	d="
M361.607117,104.010208 
	C361.963257,105.086578 361.970093,106.162773 361.958069,107.644012 
	C360.457977,107.886856 358.976715,107.724655 357.245605,107.289200 
	C358.416443,106.013977 359.837158,105.012009 361.607117,104.010208 
z"/>
<path fill="#7FBED8" opacity="1.000000" stroke="none" 
	d="
M406.927185,77.467514 
	C402.888092,77.740959 398.731934,77.641159 394.298920,77.232758 
	C398.284760,76.980850 402.547424,77.037552 406.927185,77.467514 
z"/>
<path fill="#EEF7FA" opacity="1.000000" stroke="none" 
	d="
M252.028046,198.926056 
	C258.575104,204.460648 258.518372,205.866943 250.828217,210.866608 
	C248.418503,210.287704 245.376328,209.681717 245.290848,208.791748 
	C244.977509,205.529358 245.647369,202.172516 246.359222,198.911606 
	C247.873642,198.900345 248.975922,198.828720 250.399582,198.819183 
	C251.156662,198.896194 251.592361,198.911118 252.028046,198.926056 
z"/>
<path fill="#66B2D0" opacity="1.000000" stroke="none" 
	d="
M245.947067,198.851242 
	C245.647369,202.172516 244.977509,205.529358 245.290848,208.791748 
	C245.376328,209.681717 248.418503,210.287704 250.535629,211.048035 
	C248.887009,211.517365 246.735840,212.475418 244.754410,212.202271 
	C243.685013,212.054825 242.179749,209.834030 242.119827,208.492844 
	C241.839661,202.223373 241.987732,195.934494 241.995163,189.652542 
	C242.002594,183.370087 245.948792,181.221924 251.477814,184.656174 
	C249.093124,185.736450 245.690598,186.043320 245.348648,187.231201 
	C244.663895,189.609894 245.653702,192.470657 245.964615,195.503601 
	C245.967056,196.866959 245.957062,197.859100 245.947067,198.851242 
z"/>
<path fill="#EEF7FA" opacity="1.000000" stroke="none" 
	d="
M245.952179,195.132385 
	C245.653702,192.470657 244.663895,189.609894 245.348648,187.231201 
	C245.690598,186.043320 249.093124,185.736450 251.553986,185.043671 
	C254.979263,187.760483 256.697418,190.644394 252.774933,194.617737 
	C251.524384,195.072586 250.802917,195.164520 249.676590,195.156403 
	C248.165222,195.081711 247.058701,195.107040 245.952179,195.132385 
z"/>
<path fill="#66B2D0" opacity="1.000000" stroke="none" 
	d="
M250.081421,195.256439 
	C250.802917,195.164520 251.524384,195.072586 252.607330,194.940857 
	C252.771744,196.077698 252.574692,197.254318 252.202835,198.678497 
	C251.592361,198.911118 251.156662,198.896194 250.377075,198.470612 
	C250.049255,197.125458 250.065338,196.190964 250.081421,195.256439 
z"/>
<path fill="#666769" opacity="1.000000" stroke="none" 
	d="
M212.467239,138.737000 
	C208.877991,139.261826 205.164108,139.424789 201.450226,139.587738 
	C201.426773,139.183533 201.403320,138.779312 201.379868,138.375107 
	C205.034119,138.375107 208.688354,138.375107 212.467239,138.737000 
z"/>
<path fill="#F6F6F6" opacity="1.000000" stroke="none" 
	d="
M69.231422,145.934509 
	C71.412109,155.988892 70.140663,160.088852 62.909283,164.774933 
	C61.931538,165.102310 61.505798,165.195831 60.643257,165.190704 
	C57.843010,164.997360 55.479568,164.902679 53.067841,164.353516 
	C52.972202,156.590469 52.924839,149.281891 53.122887,141.845016 
	C53.608250,141.239304 53.848206,140.761887 54.511951,140.201782 
	C58.269665,140.531311 61.603588,140.943542 64.937508,141.355774 
	C65.438843,141.885193 65.940178,142.414597 66.969559,143.146820 
	C68.075546,144.211258 68.653481,145.072891 69.231422,145.934509 
z"/>
<path fill="#666769" opacity="1.000000" stroke="none" 
	d="
M64.935654,140.945435 
	C61.603588,140.943542 58.269665,140.531311 54.382957,139.984665 
	C53.512608,140.557938 53.195042,141.265640 52.877480,141.973328 
	C52.924839,149.281891 52.972202,156.590469 53.081055,164.751801 
	C55.878693,167.773575 58.542107,168.110962 61.080059,165.289352 
	C61.505798,165.195831 61.931538,165.102310 62.685040,165.025940 
	C62.900940,165.898346 62.842934,167.487930 62.669281,167.500671 
	C59.055908,167.765686 55.422268,168.004288 51.812023,167.834854 
	C51.151337,167.803848 50.061085,165.978592 50.041935,164.965088 
	C49.894886,157.182449 49.917252,149.395126 50.020844,141.611038 
	C50.034538,140.582138 50.525562,139.231522 51.275684,138.602692 
	C53.428486,136.797928 62.658894,138.242706 64.935654,140.945435 
z"/>
<path fill="#666769" opacity="1.000000" stroke="none" 
	d="
M69.583366,146.029755 
	C68.653481,145.072891 68.075546,144.211258 67.262657,143.138687 
	C66.940582,142.144226 66.853462,141.360703 66.758926,140.510513 
	C74.725563,145.875992 76.475540,154.977951 70.093315,161.035278 
	C71.689255,155.631958 73.836838,150.722595 69.583366,146.029755 
z"/>
<path fill="#FEFEFE" opacity="1.000000" stroke="none" 
	d="
M407.063110,91.592484 
	C406.557526,92.264656 406.027618,92.537918 405.230286,92.946602 
	C402.286804,93.071991 399.610748,93.061966 396.066040,93.032089 
	C394.344604,92.997581 393.491791,92.982918 392.638977,92.968246 
	C392.693207,88.954170 392.747437,84.940094 392.806091,80.462509 
	C397.370514,79.999008 401.930481,79.999008 406.814880,79.999008 
	C406.887115,81.034515 406.963470,82.129128 406.781921,83.818314 
	C406.702209,85.607117 406.880402,86.801338 407.058594,87.995560 
	C407.051971,89.061569 407.045380,90.127571 407.063110,91.592484 
z"/>
<path fill="#D4E7F0" opacity="1.000000" stroke="none" 
	d="
M407.308167,87.780708 
	C406.880402,86.801338 406.702209,85.607117 406.793396,84.208572 
	C407.227753,85.191452 407.392731,86.378654 407.308167,87.780708 
z"/>
<path fill="#D4E7F0" opacity="1.000000" stroke="none" 
	d="
M392.482544,93.008392 
	C393.491791,92.982918 394.344604,92.997581 395.619690,93.046761 
	C395.241150,93.717033 394.440338,94.352791 393.281555,94.992920 
	C392.642853,94.713676 392.362091,94.430069 392.008423,93.842468 
	C391.993774,93.317764 392.123993,93.154457 392.482544,93.008392 
z"/>
<path fill="#FEFEFE" opacity="1.000000" stroke="none" 
	d="
M332.535339,123.009628 
	C332.698425,127.719460 332.396851,132.425720 332.028687,137.538422 
	C328.284454,137.960861 324.606781,137.976883 320.469818,137.989990 
	C319.673828,133.295807 319.337158,128.604538 319.000244,123.448967 
	C323.356903,122.991791 327.713806,122.998924 332.535339,123.009628 
z"/>
<path fill="#88C3DB" opacity="1.000000" stroke="none" 
	d="
M249.676575,195.156418 
	C250.065338,196.190964 250.049255,197.125458 250.055664,198.408524 
	C248.975922,198.828720 247.873642,198.900345 246.359222,198.911606 
	C245.957062,197.859100 245.967056,196.866959 245.964615,195.503601 
	C247.058701,195.107040 248.165222,195.081711 249.676575,195.156418 
z"/>
<path fill="#8A8A8C" opacity="1.000000" stroke="none" 
	d="
M60.643257,165.190704 
	C58.542107,168.110962 55.878693,167.773575 53.129333,165.206299 
	C55.479568,164.902679 57.843010,164.997360 60.643257,165.190704 
z"/>
<path fill="#8A8A8C" opacity="1.000000" stroke="none" 
	d="
M53.122887,141.845016 
	C53.195042,141.265640 53.512608,140.557938 53.959167,140.067368 
	C53.848206,140.761887 53.608250,141.239304 53.122887,141.845016 
z"/>
</svg>