<?xml version="1.0" standalone="no"?>
<!DOCTYPE svg PUBLIC "-//W3C//DTD SVG 20010904//EN"
 "http://www.w3.org/TR/2001/REC-SVG-20010904/DTD/svg10.dtd">
<svg version="1.0" xmlns="http://www.w3.org/2000/svg"
 width="728.000000pt" height="310.000000pt" viewBox="0 0 728.000000 310.000000"
 preserveAspectRatio="xMidYMid meet">

<g transform="translate(0.000000,310.000000) scale(0.100000,-0.100000)"
fill="#000000" stroke="none">
<path d="M2178 1320 c-84 -25 -124 -79 -116 -154 7 -61 50 -107 127 -136 66
-25 81 -35 105 -72 22 -34 15 -87 -15 -114 -27 -24 -121 -30 -176 -11 -40 14
-42 13 -47 -7 -9 -34 -8 -34 46 -51 68 -20 117 -19 170 4 76 33 116 103 98
170 -16 60 -46 89 -137 132 -70 33 -87 45 -99 74 -16 40 -7 75 28 99 26 18
103 21 144 6 29 -12 44 -1 44 31 0 29 -110 48 -172 29z"/>
<path d="M2675 1313 c-71 -26 -108 -55 -146 -115 -33 -51 -34 -56 -34 -153 0
-87 3 -106 26 -150 50 -99 170 -149 302 -127 39 7 73 14 74 16 2 2 1 15 -2 29
-6 23 -9 24 -38 16 -42 -12 -123 -11 -169 1 -47 13 -104 76 -119 132 -6 24 -9
74 -6 111 5 78 38 137 95 170 40 24 148 34 193 18 37 -13 35 -14 44 20 8 33
-5 39 -100 45 -51 3 -83 0 -120 -13z"/>
<path d="M43 1313 c-10 -3 -13 -68 -13 -272 l0 -268 53 -6 c108 -13 248 17
302 65 19 16 47 55 62 86 23 47 28 70 28 132 0 96 -16 140 -69 193 -58 58
-123 77 -252 76 -54 0 -105 -3 -111 -6z m222 -54 c54 -14 109 -62 124 -108 6
-19 11 -66 11 -105 0 -90 -27 -148 -88 -190 -37 -26 -52 -30 -132 -34 l-90 -4
0 219 c0 121 3 223 7 226 10 11 120 8 168 -4z"/>
<path d="M610 1045 l1 -275 154 0 155 0 0 28 0 27 -108 -1 c-59 0 -113 2 -119
4 -9 3 -13 33 -13 103 l0 99 111 0 110 0 -3 28 -3 27 -107 3 -108 3 0 84 0 85
115 0 115 0 0 30 0 30 -150 0 -150 0 0 -275z"/>
<path d="M1062 1108 c3 -206 4 -214 28 -257 72 -126 275 -118 344 14 19 36 21
60 24 248 l3 207 -35 0 -36 0 0 -195 c0 -217 -9 -258 -59 -288 -33 -19 -112
-23 -143 -6 -11 6 -28 29 -39 52 -16 37 -19 67 -19 240 l0 197 -36 0 -35 0 3
-212z"/>
<path d="M1570 1290 l0 -30 85 0 85 0 0 -245 0 -245 30 0 30 0 0 245 0 245 85
0 85 0 0 30 0 30 -200 0 -200 0 0 -30z"/>
<path d="M3038 1243 c-2 -43 -2 -167 0 -275 l3 -198 34 0 35 0 -2 128 -3 127
138 3 137 3 0 -131 0 -130 30 0 30 0 0 275 0 275 -30 0 -30 0 0 -115 0 -116
-137 3 -137 3 -1 35 c0 19 -2 70 -3 113 l-2 77 -30 0 -29 0 -3 -77z"/>
<path d="M3610 1045 l0 -275 155 0 155 0 0 29 c0 29 0 30 -47 24 -27 -3 -81
-2 -120 2 l-73 7 0 99 0 99 105 0 105 0 0 30 0 30 -105 0 -105 0 0 85 0 85
109 0 c90 0 110 3 115 16 16 43 13 44 -144 44 l-150 0 0 -275z"/>
</g>
</svg>
