<svg version="1.1" id="Layer_1" xmlns="http://www.w3.org/2000/svg" xmlns:xlink="http://www.w3.org/1999/xlink" x="0px" y="0px"
	 width="100%" viewBox="0 0 596 398" enable-background="new 0 0 596 398" xml:space="preserve">
<path fill="#5098C7" opacity="1.000000" stroke="none" 
	d="
M315.000000,399.000000 
	C210.000031,399.000000 105.500053,399.000000 1.000056,399.000000 
	C1.000037,266.333405 1.000037,133.666779 1.000019,1.000127 
	C199.666565,1.000085 398.333130,1.000085 596.999756,1.000042 
	C596.999878,133.666534 596.999878,266.333069 596.999939,398.999817 
	C503.166656,399.000000 409.333344,399.000000 315.000000,399.000000 
M412.937866,165.171066 
	C412.972321,160.755463 413.006775,156.339859 413.966309,151.918182 
	C415.294067,151.921326 416.621826,151.926025 417.949585,151.927368 
	C427.626556,151.937180 427.264282,151.386078 427.011871,160.650940 
	C426.898254,164.821655 428.500214,166.423355 432.556854,166.030823 
	C434.531342,165.839783 436.574951,166.190353 438.512726,165.859299 
	C439.612610,165.671387 441.398773,164.647156 441.438446,163.921082 
	C441.644165,160.154327 441.956024,156.199356 440.947906,152.677185 
	C440.640930,151.604736 436.265594,151.444061 433.730530,151.313583 
	C428.117340,151.024689 427.913818,150.647751 427.665955,144.215897 
	C427.487488,139.584930 428.965027,137.383606 433.871674,137.784454 
	C436.659698,138.012207 439.497253,137.633636 443.195587,137.550369 
	C447.304932,137.550369 451.414276,137.550369 455.662537,137.550369 
	C455.662537,132.393784 455.662537,127.990898 455.662537,122.917145 
	C450.894409,122.917145 446.448059,122.917145 442.001343,122.996658 
	C442.001343,122.996658 442.080872,122.996902 441.918884,122.077118 
	C441.730682,117.701859 441.542480,113.326591 442.398651,108.917992 
	C445.891571,108.900124 449.409424,109.110855 452.863251,108.734367 
	C453.997803,108.610695 455.757782,107.047844 455.867188,106.000565 
	C456.241974,102.412994 456.010986,98.762131 456.010986,94.374092 
	C451.750702,94.374092 447.941895,94.103546 444.216919,94.543243 
	C443.136200,94.670815 441.640839,96.748795 441.470978,98.077797 
	C441.009888,101.685425 441.157227,105.370827 440.124359,108.906067 
	C435.468262,108.885941 430.812195,108.851036 426.156097,108.848473 
	C412.181702,108.840775 412.181702,108.845703 412.102081,122.974159 
	C407.732178,122.974159 403.362305,122.974159 398.304779,122.974159 
	C398.304779,128.189743 398.304779,132.602982 397.427643,137.117996 
	C392.952393,137.347916 388.477173,137.577835 384.010864,136.911850 
	C384.007080,135.081924 384.001862,133.251999 383.999786,131.422073 
	C383.990082,122.803528 383.964539,122.949402 375.433472,122.948189 
	C371.313141,122.947609 369.809387,124.486237 369.914978,128.552414 
	C370.117859,136.366150 369.994995,144.188324 369.076385,151.994965 
	C364.703674,152.018814 360.330963,152.042664 355.033661,152.031265 
	C351.914093,152.025101 348.790436,152.116364 345.676025,151.986359 
	C342.330109,151.846680 340.844116,153.266891 340.986420,156.642868 
	C341.117676,159.757126 341.022278,162.880951 340.091309,166.000443 
	C337.448975,166.003464 334.793427,166.177216 332.167084,165.973740 
	C326.814789,165.559036 326.892059,169.052612 326.981384,172.742981 
	C327.068878,176.358505 326.252594,180.442169 332.121582,180.058075 
	C335.081940,179.864349 338.064545,180.011124 341.021027,180.936325 
	C341.014496,182.267334 341.003723,183.598343 341.002106,184.929352 
	C340.989227,195.578323 341.346649,195.822769 351.892273,194.983475 
	C354.930786,194.741669 356.057404,193.367950 355.862518,190.553925 
	C355.644623,187.407516 355.378479,184.264420 355.924347,180.892502 
	C365.295258,180.596558 374.666199,180.300629 384.016724,180.936874 
	C384.011566,182.261627 384.002808,183.586365 384.001801,184.911118 
	C383.993866,195.456238 384.878571,196.340820 395.253082,194.769806 
	C396.620270,194.562775 398.534576,192.586502 398.747894,191.205917 
	C399.273224,187.806549 398.955688,184.276917 399.837341,180.811722 
	C413.353699,180.103516 413.353760,180.103516 412.906677,166.617783 
	C412.901184,166.452286 412.887482,166.287064 412.937866,165.171066 
M192.946335,253.824326 
	C196.176758,254.922653 196.098495,252.813324 196.088776,250.649185 
	C196.059479,244.120804 196.078201,237.592178 196.078201,229.642258 
	C197.339294,231.604034 197.772125,232.258133 198.185944,232.924026 
	C202.138504,239.284210 206.017654,245.692154 210.107224,251.962891 
	C210.787704,253.006317 212.314484,253.730820 213.586182,254.036072 
	C214.066177,254.151306 215.519714,252.669815 215.531372,251.901077 
	C215.664978,243.078537 215.656601,234.252258 215.508423,225.429932 
	C215.495789,224.678055 214.210266,223.947540 213.516037,223.207108 
	C212.940506,224.048813 211.900436,224.872696 211.867340,225.735214 
	C211.695114,230.224518 211.825531,234.724426 211.748001,239.218887 
	C211.722260,240.710724 211.391449,242.197281 211.200104,243.686264 
	C210.769577,243.767548 210.339050,243.848831 209.908524,243.930115 
	C209.011536,242.623917 208.071350,241.345016 207.225266,240.006638 
	C204.112961,235.083298 201.152893,230.056686 197.847305,225.267899 
	C197.093811,224.176315 195.186600,223.881104 193.810394,223.219360 
	C193.251175,224.430618 192.217880,225.638260 192.208572,226.853729 
	C192.140991,235.671494 192.279953,244.490845 192.946335,253.824326 
M452.030975,231.588715 
	C452.017578,229.428329 452.143860,227.252609 451.909454,225.116486 
	C451.834900,224.437363 450.797424,223.368698 450.206268,223.372437 
	C449.535248,223.376709 448.479279,224.277603 448.289154,224.978241 
	C447.951355,226.223206 448.115173,227.610977 448.112671,228.939087 
	C448.102325,234.423645 448.108337,239.908234 448.108337,245.392822 
	C443.047729,239.002472 439.127319,232.472504 434.890839,226.154465 
	C433.854675,224.609100 431.783691,223.757599 430.188477,222.587097 
	C429.723724,222.923813 429.258942,223.260529 428.794189,223.597260 
	C428.794189,232.355072 428.706451,241.114655 428.882324,249.868958 
	C428.910919,251.292618 430.106232,252.692856 430.762238,254.103912 
	C431.393982,252.656616 432.520386,251.226364 432.570984,249.759064 
	C432.778259,243.746582 432.657501,237.722794 432.657501,231.703186 
	C437.792603,238.020950 441.928772,244.545303 445.957581,251.135284 
	C447.381042,253.463638 448.836426,255.224442 452.030945,253.440659 
	C452.030945,246.505646 452.030945,239.536621 452.030975,231.588715 
M279.617493,253.344116 
	C286.639282,248.862869 286.772247,244.361206 281.240906,238.604950 
	C282.011993,234.489349 283.965759,230.656967 282.820587,228.389923 
	C281.580353,225.934647 277.562134,224.668777 274.534760,223.418640 
	C272.976654,222.775192 270.938202,223.316986 269.117615,223.281937 
	C266.216888,223.226089 265.008087,224.477966 265.123993,227.508270 
	C265.320587,232.648071 265.173798,237.800934 265.173950,242.948318 
	C265.174316,256.215118 265.578491,256.531128 279.617493,253.344116 
M85.477852,211.030930 
	C92.516930,211.157501 98.816368,209.692398 101.973938,202.495468 
	C104.682304,196.322388 104.936394,189.968323 100.337730,184.678116 
	C94.363968,177.805969 86.374573,179.433655 78.746735,180.175781 
	C78.468216,181.156845 78.220596,181.627090 78.217873,182.098755 
	C78.174759,189.567520 78.152100,197.036484 78.147522,204.505386 
	C78.143547,210.995850 78.156174,210.995865 85.477852,211.030930 
M336.126770,229.328339 
	C333.484985,224.157578 324.082184,220.993790 318.925110,223.749344 
	C318.054962,224.214294 317.359253,225.830307 317.338562,226.928711 
	C317.188446,234.902771 317.154755,242.881927 317.304199,250.855377 
	C317.324860,251.957214 318.555542,253.036392 319.226074,254.126053 
	C319.947632,252.943359 321.168640,251.810242 321.291901,250.568161 
	C321.594360,247.521347 321.390778,244.424301 321.390778,241.433060 
	C328.564697,240.924377 329.904266,241.848755 331.502808,247.737274 
	C331.893799,249.177551 331.927338,250.835922 332.700531,252.017609 
	C333.484070,253.215134 334.979828,253.946625 336.163666,254.882217 
	C336.605988,254.452377 337.048309,254.022537 337.490631,253.592697 
	C335.883759,248.811111 334.276886,244.029526 333.032837,240.327621 
	C334.212616,236.576752 335.238068,233.316681 336.126770,229.328339 
M471.418793,223.572769 
	C468.048065,226.050018 463.812073,227.909119 461.501343,231.143600 
	C457.651917,236.531906 459.190277,245.765503 463.509888,250.167145 
	C467.731354,254.468826 477.846527,256.239563 483.149445,253.444275 
	C483.971130,253.011124 484.825439,251.773590 484.865540,250.872452 
	C485.048340,246.766663 484.945709,242.648163 484.945709,238.290192 
	C483.321838,238.156052 482.175659,237.863235 481.091187,238.014069 
	C478.991119,238.306122 476.925781,238.847931 474.846069,239.286224 
	C476.647614,240.258865 478.449127,241.231506 480.966736,242.590759 
	C480.966736,243.430878 480.820618,245.066986 480.997437,246.667435 
	C481.353363,249.889481 480.019318,251.040970 476.808258,251.161758 
	C468.868805,251.460464 464.276337,247.675201 463.891266,240.115082 
	C463.467865,231.802612 467.573029,227.072586 475.665680,226.717453 
	C477.470947,226.638229 479.318512,227.225815 481.101288,227.049179 
	C482.084106,226.951797 482.972748,225.903824 483.903839,225.284409 
	C483.732239,224.623184 483.560638,223.961975 483.389038,223.300766 
	C479.664459,223.300766 475.939850,223.300766 471.418793,223.572769 
M396.835876,244.590622 
	C398.328918,251.749237 401.895813,254.998169 408.089844,254.841339 
	C414.440857,254.680527 418.635193,250.831436 419.247925,243.771454 
	C419.749725,237.989456 419.645874,232.142944 419.532776,226.330429 
	C419.512054,225.263855 418.160400,224.223145 417.423096,223.170471 
	C416.726715,224.266281 415.477600,225.337540 415.427643,226.462067 
	C415.184326,231.941620 415.416748,237.442032 415.182587,242.922318 
	C414.939270,248.616608 412.500336,251.280243 408.043884,251.298630 
	C403.573029,251.317078 401.139160,248.577713 400.966187,242.918076 
	C400.803558,237.599579 401.030396,232.267258 400.788544,226.954544 
	C400.729950,225.667572 399.501190,224.433868 398.810516,223.175659 
	C398.071747,224.375107 396.734589,225.555939 396.696564,226.777206 
	C396.520844,232.424072 396.706360,238.082199 396.835876,244.590622 
M279.071045,186.666290 
	C279.071045,194.583435 279.071045,202.500565 279.071045,210.849411 
	C284.660645,210.849411 289.456970,210.913239 294.248169,210.785248 
	C295.026642,210.764435 295.782379,209.893951 296.548615,209.416214 
	C295.777100,208.763687 295.057556,207.639145 294.224304,207.547424 
	C291.755615,207.275604 289.227692,207.560287 286.752441,207.321381 
	C285.603180,207.210480 283.950806,206.691895 283.504700,205.843643 
	C280.944550,200.975662 283.781952,196.264832 289.096252,196.221237 
	C290.261139,196.211685 291.503326,196.462341 292.568939,196.134644 
	C293.601776,195.817047 294.453125,194.909286 295.384216,194.260727 
	C295.216217,193.833572 295.048218,193.406418 294.880219,192.979263 
	C291.125885,192.979263 287.371582,192.979263 283.707855,192.979263 
	C282.216797,183.398346 282.300964,183.293060 290.925995,183.217957 
	C291.924072,183.209259 292.986755,183.388336 293.900024,183.100845 
	C294.660309,182.861481 295.245087,182.064545 295.907593,181.514603 
	C295.254883,180.955750 294.615662,179.931915 293.947296,179.912537 
	C289.148560,179.773285 284.343842,179.838058 279.071381,179.838058 
	C279.071381,182.123322 279.071381,183.921997 279.071045,186.666290 
M115.609169,206.513657 
	C114.274010,196.879333 114.273972,196.878738 123.937859,196.225449 
	C124.434967,196.191849 125.113808,196.380219 125.396500,196.122940 
	C126.123779,195.461075 126.675842,194.606689 128.050201,192.889069 
	C123.020149,192.889069 119.416023,192.889069 115.909126,192.889069 
	C114.019882,183.820862 114.427582,183.289886 122.893219,183.227188 
	C123.890640,183.219803 124.945496,183.394928 125.867554,183.124023 
	C126.638588,182.897522 127.254250,182.142136 127.938705,181.620941 
	C127.335159,181.026352 126.746010,179.933975 126.125786,179.916016 
	C121.222656,179.774200 116.313606,179.837173 111.441833,179.837173 
	C111.441833,190.511490 111.441833,200.409363 111.441833,210.875565 
	C116.398254,210.875565 121.014816,210.980072 125.619530,210.793091 
	C126.618225,210.752533 127.574432,209.665741 128.550217,209.060837 
	C127.500282,208.513062 126.488914,207.604141 125.392982,207.487106 
	C122.430389,207.170761 119.431831,207.191208 115.609169,206.513657 
M175.320328,239.860779 
	C178.104004,239.507568 179.207352,240.653259 179.041443,243.512726 
	C178.843079,246.931931 178.994644,250.371445 178.994644,253.802155 
	C179.549164,254.062759 180.103683,254.323364 180.658203,254.583984 
	C181.452728,253.538422 182.913025,252.507553 182.936447,251.444992 
	C183.123459,242.959427 183.099075,234.466812 182.949600,225.979706 
	C182.933365,225.057999 181.712708,224.157516 181.050735,223.247192 
	C180.370193,224.138107 179.172684,224.990433 179.102768,225.926910 
	C178.860138,229.176697 179.009109,232.455719 179.009109,235.850967 
	C173.721313,235.850967 169.144119,235.850967 164.007278,235.850967 
	C164.007278,232.459412 164.192261,229.322983 163.904846,226.230484 
	C163.807007,225.177765 162.519882,224.235596 161.776184,223.242905 
	C161.181870,224.218414 160.085678,225.186630 160.071426,226.170547 
	C159.939148,235.300110 159.993240,244.432373 159.993240,253.563843 
	C160.441040,253.870087 160.888840,254.176331 161.336639,254.482574 
	C162.227692,253.425949 163.782715,252.430634 163.887024,251.301331 
	C164.218613,247.711014 164.009781,244.070801 164.009781,239.857193 
	C167.807465,239.857193 171.087402,239.857193 175.320328,239.860779 
M305.129272,254.268982 
	C306.782013,253.785202 308.434753,253.301422 310.087524,252.817642 
	C309.924377,252.175568 309.761261,251.533508 309.598145,250.891449 
	C305.508057,250.891449 301.417938,250.891449 297.101379,250.891449 
	C297.101379,247.023529 297.101379,243.686340 297.101379,239.903336 
	C300.369507,239.903336 303.181549,240.040024 305.965820,239.821899 
	C306.825653,239.754562 307.609772,238.720688 308.428558,238.129364 
	C307.584137,237.543564 306.805634,236.787567 305.874084,236.426620 
	C305.148407,236.145462 304.232208,236.356857 303.400696,236.347778 
	C295.951599,236.266449 295.100433,234.970444 297.684601,226.832748 
	C301.236725,226.832748 304.977203,226.832748 308.731140,226.832748 
	C308.408569,222.773743 301.300995,221.686554 292.598999,223.948029 
	C292.598999,233.763855 292.598999,243.657806 292.598999,254.269333 
	C296.657990,254.269333 300.437622,254.269333 305.129272,254.268982 
M242.117172,248.477783 
	C242.368073,245.369904 241.046768,241.671844 245.003174,240.027649 
	C250.442917,243.891449 250.864639,252.708603 258.135895,254.329071 
	C258.527283,253.939056 258.918640,253.549057 259.310028,253.159058 
	C255.594284,247.659210 251.878540,242.159378 248.112244,236.584702 
	C251.670593,232.204971 255.057327,228.036469 258.444061,223.867981 
	C249.683655,223.954697 248.645523,233.137451 242.076065,236.726929 
	C242.076065,232.906464 242.249390,229.605942 241.978317,226.342316 
	C241.888290,225.258453 240.656738,224.269409 239.947083,223.237015 
	C239.313217,224.191910 238.145523,225.137711 238.129059,226.103134 
	C237.984268,234.600342 237.956390,243.103149 238.159637,251.597931 
	C238.183945,252.613678 239.795547,253.591415 240.671417,254.586777 
	C241.079086,254.296112 241.486755,254.005447 241.894440,253.714783 
	C241.968613,252.257904 242.042801,250.801025 242.117172,248.477783 
M118.841621,239.891754 
	C119.893456,239.226883 120.945282,238.562012 121.997116,237.897110 
	C120.939026,237.397583 119.907295,236.549423 118.817665,236.467026 
	C116.078018,236.259857 113.312225,236.398529 110.581665,236.398529 
	C110.581665,232.755997 110.581665,230.045135 110.581665,226.843491 
	C114.296783,226.843491 117.601288,226.940186 120.891205,226.764099 
	C121.570999,226.727722 122.196449,225.676102 122.846939,225.092407 
	C122.257454,224.456741 121.684311,223.288269 121.075897,223.269592 
	C116.173935,223.119247 111.265320,223.185379 106.291779,223.185379 
	C106.291779,233.908524 106.291779,243.817245 106.291779,253.679596 
	C115.969620,255.284958 122.253281,254.480881 123.522781,250.973129 
	C119.092850,250.973129 114.858200,250.973129 110.396317,250.973129 
	C110.396317,247.091690 110.396317,243.817108 110.396317,239.893616 
	C113.079033,239.893616 115.534691,239.893616 118.841621,239.891754 
M359.090515,227.346680 
	C357.871735,226.045517 356.830475,224.414154 355.342285,223.614182 
	C354.787170,223.315765 352.540222,224.723862 352.166809,225.753571 
	C348.832550,234.947159 345.744873,244.230179 342.592224,253.464478 
	C346.286804,255.345657 346.838837,252.924393 347.761169,250.689453 
	C348.604919,248.644928 349.333893,245.792938 350.959106,244.973038 
	C355.907501,242.476624 360.883575,245.013718 362.709595,250.417709 
	C363.566620,252.954163 364.294800,255.293152 368.107025,253.505005 
	C365.168518,244.999557 362.244568,236.536224 359.090515,227.346680 
M136.579239,202.544830 
	C138.179413,204.955078 139.249817,208.182785 141.476715,209.625977 
	C148.867004,214.415375 157.898041,209.392929 158.753998,200.053696 
	C159.283844,194.272751 159.076172,188.405777 158.850937,182.590912 
	C158.810074,181.535934 157.081970,180.546280 156.132782,179.526474 
	C154.939163,183.003143 155.013550,185.494370 154.923294,187.979599 
	C154.748856,192.783737 154.786591,197.625229 154.152267,202.373199 
	C153.679550,205.911530 150.886215,207.870255 147.379822,207.847107 
	C143.840820,207.823776 141.466141,205.727814 140.737183,202.193588 
	C140.337830,200.257431 140.158478,198.248688 140.128235,196.268860 
	C140.047394,190.975571 140.100693,185.680252 140.100693,180.385727 
	C139.619095,180.089813 139.137497,179.793915 138.655914,179.498001 
	C137.776642,180.584915 136.164017,181.655441 136.139297,182.761459 
	C135.998138,189.075668 136.235092,195.398346 136.579239,202.544830 
M252.922958,192.754654 
	C252.278580,191.797211 251.204315,190.893250 251.077133,189.871445 
	C250.791153,187.573456 251.207275,185.182175 250.865097,182.899704 
	C250.704086,181.825729 249.452667,180.915237 248.695389,179.930649 
	C248.110260,180.912704 247.033417,181.886795 247.017380,182.878036 
	C246.882721,191.206802 246.882324,199.539719 247.024658,207.868271 
	C247.041260,208.839401 248.170212,209.791519 248.783493,210.752441 
	C249.511612,209.732925 250.793533,208.751953 250.867661,207.686905 
	C251.126465,203.968658 250.967834,200.221329 250.967834,196.597900 
	C256.474731,196.597900 261.048584,196.597900 265.962158,196.597900 
	C265.962158,200.652939 265.830414,204.312790 266.050385,207.951370 
	C266.108887,208.919159 267.246521,209.821686 267.888702,210.754166 
	C268.592896,209.887100 269.892731,209.030914 269.908783,208.151291 
	C270.063660,199.656555 270.062592,191.156860 269.917664,182.661789 
	C269.901917,181.738968 268.698853,180.836426 268.046478,179.924484 
	C267.353027,180.796967 266.130737,181.629608 266.061462,182.549103 
	C265.816498,185.799988 265.966064,189.080597 265.966064,192.798508 
	C261.444366,192.798508 257.645020,192.798508 252.922958,192.754654 
M132.710129,249.736450 
	C137.467041,254.639465 143.268936,255.707138 149.645248,254.084106 
	C150.772308,253.797241 151.635544,252.473907 152.620605,251.629181 
	C152.304169,251.217865 151.987732,250.806549 151.671295,250.395218 
	C150.729141,250.568451 149.789627,250.757751 148.844421,250.912247 
	C143.633575,251.763931 138.832077,251.286179 135.536469,246.479660 
	C132.922104,242.666748 132.894226,235.134964 135.594543,231.293274 
	C138.857117,226.651749 143.495361,225.774323 148.826401,226.648666 
	C149.890411,226.823166 151.143494,225.844666 152.309387,225.397812 
	C151.249390,224.612762 150.265305,223.294220 149.116852,223.130798 
	C142.527374,222.193085 136.266769,223.127533 132.242508,229.046341 
	C127.799522,235.581039 128.088821,242.461334 132.710129,249.736450 
M226.063858,180.320267 
	C217.540878,184.319977 214.112137,192.325562 217.020264,201.435654 
	C219.286331,208.534363 227.102249,212.557663 235.740494,210.818756 
	C237.020996,210.560974 238.064087,209.123718 239.217010,208.232147 
	C238.938049,207.769913 238.659073,207.307678 238.380112,206.845428 
	C232.360626,208.485794 226.474747,208.843338 222.585983,203.035629 
	C219.482559,198.400772 219.498505,193.090958 222.242661,188.316681 
	C226.023590,181.738632 232.395370,182.511383 239.146210,183.012985 
	C238.600540,181.545654 237.689331,179.953445 236.666611,179.878250 
	C233.406448,179.638580 230.104843,179.962814 226.063858,180.320267 
M200.983521,192.615540 
	C198.219650,191.256088 195.214996,189.769775 196.446884,186.007858 
	C197.611465,182.451447 200.825150,182.438873 203.951614,182.893906 
	C204.934967,183.037048 205.911789,183.391678 206.884888,183.368393 
	C207.372345,183.356735 208.196625,182.754089 208.244080,182.346100 
	C208.321609,181.679382 208.108643,180.688583 207.635315,180.295242 
	C204.580048,177.756180 196.236664,179.484802 193.531799,183.123932 
	C190.726913,186.897614 191.861450,191.774918 196.358765,194.633911 
	C197.882935,195.602844 199.652695,196.182220 201.299805,196.961670 
	C204.379761,198.419220 206.945984,200.461288 205.691116,204.242508 
	C204.473816,207.910614 201.229263,208.341202 197.862656,207.775085 
	C196.087204,207.476501 194.350647,206.946732 192.596512,206.521347 
	C192.283035,206.771454 191.969574,207.021545 191.656097,207.271637 
	C192.383667,208.303055 193.125153,210.229568 193.836502,210.218491 
	C198.001755,210.153656 202.618866,210.653976 206.213806,209.033783 
	C211.710922,206.556351 211.547958,198.983963 206.507217,195.460999 
	C205.025879,194.425674 203.290802,193.753418 200.983521,192.615540 
M381.597015,250.822647 
	C381.599121,245.327209 381.802582,239.822250 381.543304,234.339172 
	C381.311768,229.442398 381.630920,225.605469 388.212616,226.796890 
	C388.984894,226.936691 390.027557,225.582901 390.944855,224.921494 
	C390.141785,224.317947 389.351349,223.211777 388.533600,223.191177 
	C382.542603,223.040253 376.544495,223.039490 370.553162,223.181610 
	C369.707733,223.201660 368.886780,224.253937 368.054504,224.828445 
	C368.939026,225.520126 369.754761,226.662140 370.722321,226.809875 
	C372.745911,227.118790 374.849548,226.903473 377.282837,226.903473 
	C377.282837,235.504562 377.223816,243.153992 377.348602,250.800446 
	C377.366608,251.904984 378.267639,252.995117 378.760040,254.091904 
	C379.700470,253.274811 380.640869,252.457718 381.597015,250.822647 
M311.149597,139.964539 
	C311.124756,142.623962 310.894714,145.304321 311.163055,147.933823 
	C311.293854,149.215805 312.274200,151.405823 313.007507,151.464447 
	C316.768738,151.765137 320.789124,152.181046 324.250061,151.081207 
	C325.481537,150.689865 325.729645,146.152008 325.795074,143.491425 
	C325.843445,141.524063 325.429779,139.028427 324.213562,137.672821 
	C322.553497,135.822449 313.558289,137.215393 311.149597,139.964539 
M483.926392,80.396683 
	C470.590393,78.706100 469.375580,79.599396 470.178284,90.504875 
	C470.190399,90.669548 470.118134,90.907875 470.202942,90.989532 
	C471.304413,92.049995 472.337891,93.870728 473.558563,94.010056 
	C484.669769,95.278404 485.171753,94.734451 484.808960,83.540070 
	C484.782410,82.721054 484.612274,81.906700 483.926392,80.396683 
M468.050720,165.971451 
	C470.815186,164.060730 472.040802,154.718552 469.780670,152.705353 
	C469.539368,152.490417 469.210846,152.228226 468.924805,152.230560 
	C465.119446,152.261719 461.105835,151.670532 457.622803,152.761963 
	C456.407715,153.142715 456.413055,157.688965 456.018646,160.356186 
	C455.380585,164.671539 457.254211,166.581635 461.656586,166.104965 
	C463.469574,165.908661 465.319427,166.052902 468.050720,165.971451 
M90.991615,250.919785 
	C90.991615,242.999527 90.991615,235.079269 90.991615,226.864471 
	C93.787186,226.864471 95.797874,227.038773 97.753395,226.786102 
	C98.643456,226.671082 99.424416,225.711761 100.254868,225.135406 
	C99.512375,224.472229 98.784714,223.254089 98.025055,223.233795 
	C92.035042,223.073807 86.037239,223.073303 80.046646,223.220184 
	C79.208748,223.240738 78.397057,224.330399 77.573242,224.925171 
	C78.512665,225.572372 79.382790,226.599792 80.406181,226.786316 
	C82.433296,227.155792 84.545059,227.060883 86.935928,227.172607 
	C86.935928,236.381226 86.935928,244.993500 86.935928,253.605774 
	C87.347855,253.921951 87.759789,254.238113 88.171715,254.554291 
	C89.109108,253.627838 90.046509,252.701385 90.991615,250.919785 
M175.569519,210.749802 
	C176.395889,209.337830 177.891464,207.946930 177.936691,206.510376 
	C178.175400,198.926895 178.048645,191.331940 178.048645,183.167618 
	C180.788635,183.167618 182.929794,183.337524 185.020187,183.085709 
	C185.880600,182.982040 186.631683,181.970932 187.432495,181.372559 
	C186.711441,180.864807 185.998596,179.930481 185.268051,179.916443 
	C179.120331,179.798264 172.968369,179.798065 166.820770,179.919403 
	C166.139572,179.932861 165.477768,180.929306 164.806976,181.469864 
	C165.457687,182.029861 166.069778,183.008469 166.766235,183.072723 
	C169.010315,183.279785 171.285477,183.149887 173.998505,183.149887 
	C173.998505,186.677185 173.926163,189.472839 174.013321,192.263535 
	C174.203613,198.355515 174.475021,204.444977 175.569519,210.749802 
M224.820175,235.571838 
	C224.820175,241.656540 224.820175,247.741241 224.820175,253.825943 
	C225.334198,254.101151 225.848206,254.376343 226.362228,254.651535 
	C227.214111,253.622635 228.781403,252.609863 228.805023,251.562286 
	C228.999252,242.949188 228.969498,234.328384 228.802338,225.713913 
	C228.785889,224.866669 227.392563,224.046158 226.638306,223.213242 
	C226.042984,224.030579 224.997940,224.814285 224.933853,225.671371 
	C224.711975,228.638535 224.831390,231.631241 224.820175,235.571838 
z"/>
<path fill="#8DBBDB" opacity="1.000000" stroke="none" 
	d="
M442.312500,137.528122 
	C439.497253,137.633636 436.659698,138.012207 433.871674,137.784454 
	C428.965027,137.383606 427.487488,139.584930 427.665955,144.215897 
	C427.913818,150.647751 428.117340,151.024689 433.730530,151.313583 
	C436.265594,151.444061 440.640930,151.604736 440.947906,152.677185 
	C441.956024,156.199356 441.644165,160.154327 441.438446,163.921082 
	C441.398773,164.647156 439.612610,165.671387 438.512726,165.859299 
	C436.574951,166.190353 434.531342,165.839783 432.556854,166.030823 
	C428.500214,166.423355 426.898254,164.821655 427.011871,160.650940 
	C427.264282,151.386078 427.626556,151.937180 417.949585,151.927368 
	C416.621826,151.926025 415.294067,151.921326 413.489319,151.947235 
	C413.012329,151.976303 413.068817,151.979477 413.055847,151.514893 
	C413.026947,146.338242 413.011017,141.626144 412.997528,136.949768 
	C413.000000,136.985458 412.928589,136.990234 413.397644,137.037079 
	C428.303864,136.920578 427.438660,139.921692 427.304840,123.230316 
	C432.546844,123.123566 437.313873,123.060234 442.080872,122.996902 
	C442.080872,122.996902 442.001343,122.996658 441.992645,123.427979 
	C442.093475,128.415573 442.203003,132.971848 442.312500,137.528122 
z"/>
<path fill="#6BA8CF" opacity="1.000000" stroke="none" 
	d="
M384.037109,180.004684 
	C374.666199,180.300629 365.295258,180.596558 355.488953,180.737946 
	C355.036469,180.404312 355.019379,180.225220 355.006470,179.576843 
	C354.977203,174.766800 354.943756,170.426056 355.118134,165.723572 
	C355.536743,160.930069 355.747498,156.498306 355.958252,152.066528 
	C360.330963,152.042664 364.703674,152.018814 369.537903,151.997192 
	C369.999451,151.999435 369.993286,151.993271 369.994934,152.458862 
	C370.000153,155.552216 370.136475,158.188141 369.975922,160.805847 
	C369.742523,164.610764 371.348328,166.246536 375.173309,166.026489 
	C378.119781,165.857010 381.083862,165.994141 384.014832,166.000793 
	C383.989563,166.006638 384.005402,165.957214 384.007263,166.426392 
	C384.005646,171.277039 384.002228,175.658493 383.998413,180.021393 
	C383.998077,180.002838 384.037109,180.004684 384.037109,180.004684 
z"/>
<path fill="#8DBBDB" opacity="1.000000" stroke="none" 
	d="
M384.001923,137.807770 
	C388.477173,137.577835 392.952393,137.347916 398.019226,137.143463 
	C398.803131,137.306686 398.937988,137.487350 398.991455,138.196411 
	C398.986115,143.115005 399.004700,147.548080 399.009399,152.446899 
	C398.991699,157.280365 398.987885,161.648117 398.994751,166.005188 
	C399.005463,165.994537 399.026825,165.973160 398.558777,166.000580 
	C393.395630,166.004395 388.700531,165.980804 384.005402,165.957214 
	C384.005402,165.957214 383.989563,166.006638 384.002075,165.536987 
	C383.974457,160.736237 383.934296,156.405151 383.915100,151.604736 
	C383.957977,146.692841 383.979950,142.250305 384.001923,137.807770 
z"/>
<path fill="#F0F6FA" opacity="1.000000" stroke="none" 
	d="
M192.649963,253.567017 
	C192.279953,244.490845 192.140991,235.671494 192.208572,226.853729 
	C192.217880,225.638260 193.251175,224.430618 193.810394,223.219360 
	C195.186600,223.881104 197.093811,224.176315 197.847305,225.267899 
	C201.152893,230.056686 204.112961,235.083298 207.225266,240.006638 
	C208.071350,241.345016 209.011536,242.623917 209.908524,243.930115 
	C210.339050,243.848831 210.769577,243.767548 211.200104,243.686264 
	C211.391449,242.197281 211.722260,240.710724 211.748001,239.218887 
	C211.825531,234.724426 211.695114,230.224518 211.867340,225.735214 
	C211.900436,224.872696 212.940506,224.048813 213.516052,223.207108 
	C214.210266,223.947540 215.495789,224.678055 215.508423,225.429932 
	C215.656601,234.252258 215.664978,243.078537 215.531372,251.901077 
	C215.519714,252.669815 214.066177,254.151306 213.586182,254.036072 
	C212.314484,253.730820 210.787704,253.006317 210.107224,251.962891 
	C206.017654,245.692154 202.138504,239.284210 198.185944,232.924026 
	C197.772125,232.258133 197.339294,231.604034 196.078201,229.642258 
	C196.078201,237.592178 196.059479,244.120804 196.088776,250.649185 
	C196.098495,252.813324 196.176758,254.922653 192.649963,253.567017 
M211.748734,246.120773 
	C211.540695,245.829422 211.332642,245.538071 211.124603,245.246719 
	C211.177246,245.651108 211.229889,246.055481 211.748734,246.120773 
z"/>
<path fill="#F4F8FB" opacity="1.000000" stroke="none" 
	d="
M452.030945,232.078156 
	C452.030945,239.536621 452.030945,246.505646 452.030945,253.440659 
	C448.836426,255.224442 447.381042,253.463638 445.957581,251.135284 
	C441.928772,244.545303 437.792603,238.020950 432.657501,231.703186 
	C432.657501,237.722794 432.778259,243.746582 432.570984,249.759064 
	C432.520386,251.226364 431.393982,252.656616 430.762238,254.103912 
	C430.106232,252.692856 428.910919,251.292618 428.882324,249.868958 
	C428.706451,241.114655 428.794189,232.355072 428.794189,223.597260 
	C429.258942,223.260529 429.723724,222.923813 430.188477,222.587097 
	C431.783691,223.757599 433.854675,224.609100 434.890839,226.154465 
	C439.127319,232.472504 443.047729,239.002472 448.108337,245.392822 
	C448.108337,239.908234 448.102325,234.423645 448.112671,228.939087 
	C448.115173,227.610977 447.951355,226.223206 448.289154,224.978241 
	C448.479279,224.277603 449.535248,223.376709 450.206268,223.372437 
	C450.797424,223.368698 451.834900,224.437363 451.909454,225.116486 
	C452.143860,227.252609 452.017578,229.428329 452.030945,232.078156 
z"/>
<path fill="#D4E5F1" opacity="1.000000" stroke="none" 
	d="
M441.999878,122.537010 
	C437.313873,123.060234 432.546844,123.123566 426.853210,123.192207 
	C421.602234,123.115189 417.277893,123.032852 412.975098,122.972603 
	C412.996674,122.994690 413.040070,123.038559 413.040070,123.038559 
	C412.181702,108.845703 412.181702,108.840775 426.156097,108.848473 
	C430.812195,108.851036 435.468262,108.885941 440.669739,108.960281 
	C441.215149,109.014503 441.354279,108.951332 441.354279,108.951332 
	C441.542480,113.326591 441.730682,117.701859 441.999878,122.537010 
z"/>
<path fill="#6BA8CF" opacity="1.000000" stroke="none" 
	d="
M384.006409,137.359802 
	C383.979950,142.250305 383.957977,146.692841 383.460815,151.585602 
	C378.654846,152.021637 374.324066,152.007446 369.993286,151.993271 
	C369.993286,151.993271 369.999451,151.999435 370.003357,152.003220 
	C369.994995,144.188324 370.117859,136.366150 369.914978,128.552414 
	C369.809387,124.486237 371.313141,122.947609 375.433472,122.948189 
	C383.964539,122.949402 383.990082,122.803528 383.999786,131.422073 
	C384.001862,133.251999 384.007080,135.081924 384.006409,137.359802 
z"/>
<path fill="#F0F6FA" opacity="1.000000" stroke="none" 
	d="
M279.263855,253.523849 
	C265.578491,256.531128 265.174316,256.215118 265.173950,242.948318 
	C265.173798,237.800934 265.320587,232.648071 265.123993,227.508270 
	C265.008087,224.477966 266.216888,223.226089 269.117615,223.281937 
	C270.938202,223.316986 272.976654,222.775192 274.534760,223.418640 
	C277.562134,224.668777 281.580353,225.934647 282.820587,228.389923 
	C283.965759,230.656967 282.011993,234.489349 281.240906,238.604950 
	C286.772247,244.361206 286.639282,248.862869 279.263855,253.523849 
M275.081177,239.816589 
	C268.972565,239.489929 269.120941,239.488678 269.185944,247.175659 
	C269.213348,250.418243 270.304321,251.760529 273.523132,251.372955 
	C276.600861,251.002365 279.543152,250.411484 280.241394,246.726257 
	C280.909760,243.198547 279.178864,241.079971 275.081177,239.816589 
M269.461914,235.052856 
	C271.259308,235.382141 273.090790,236.104965 274.846436,235.952805 
	C277.832489,235.693970 279.861481,233.824234 279.401947,230.665817 
	C278.814484,226.628372 275.462036,226.294327 272.225952,226.250122 
	C268.486084,226.199005 269.400055,229.073929 269.267914,231.225800 
	C269.207611,232.208405 269.293884,233.200043 269.461914,235.052856 
z"/>
<path fill="#F4F8FB" opacity="1.000000" stroke="none" 
	d="
M85.012718,211.030930 
	C78.156174,210.995865 78.143547,210.995850 78.147522,204.505386 
	C78.152100,197.036484 78.174759,189.567520 78.217873,182.098755 
	C78.220596,181.627090 78.468216,181.156845 78.746735,180.175781 
	C86.374573,179.433655 94.363968,177.805969 100.337730,184.678116 
	C104.936394,189.968323 104.682304,196.322388 101.973938,202.495468 
	C98.816368,209.692398 92.516930,211.157501 85.012718,211.030930 
M99.222000,197.120758 
	C99.626526,185.753326 93.936707,181.063934 82.284477,183.734360 
	C82.284477,190.835785 82.184555,198.079666 82.417366,205.312851 
	C82.444893,206.168121 84.209045,207.526825 85.314949,207.696701 
	C92.154915,208.747330 97.121788,205.134338 99.222000,197.120758 
z"/>
<path fill="#F0F6FA" opacity="1.000000" stroke="none" 
	d="
M336.195129,229.692474 
	C335.238068,233.316681 334.212616,236.576752 333.032837,240.327621 
	C334.276886,244.029526 335.883759,248.811111 337.490631,253.592697 
	C337.048309,254.022537 336.605988,254.452377 336.163666,254.882217 
	C334.979828,253.946625 333.484070,253.215134 332.700531,252.017609 
	C331.927338,250.835922 331.893799,249.177551 331.502808,247.737274 
	C329.904266,241.848755 328.564697,240.924377 321.390778,241.433060 
	C321.390778,244.424301 321.594360,247.521347 321.291901,250.568161 
	C321.168640,251.810242 319.947632,252.943359 319.226074,254.126068 
	C318.555542,253.036392 317.324860,251.957214 317.304199,250.855377 
	C317.154755,242.881927 317.188446,234.902771 317.338562,226.928711 
	C317.359253,225.830307 318.054962,224.214294 318.925110,223.749344 
	C324.082184,220.993790 333.484985,224.157578 336.195129,229.692474 
M322.964844,226.407822 
	C322.703583,230.054230 322.442291,233.700653 322.181030,237.347061 
	C325.206543,236.677979 328.720062,236.740921 331.123535,235.138718 
	C333.643280,233.459000 332.449890,228.650742 329.488037,227.293991 
	C327.781891,226.512436 325.688385,226.576401 322.964844,226.407822 
z"/>
<path fill="#F4F8FB" opacity="1.000000" stroke="none" 
	d="
M471.817017,223.436768 
	C475.939850,223.300766 479.664459,223.300766 483.389038,223.300766 
	C483.560638,223.961975 483.732239,224.623184 483.903839,225.284409 
	C482.972748,225.903824 482.084106,226.951797 481.101288,227.049179 
	C479.318512,227.225815 477.470947,226.638229 475.665680,226.717453 
	C467.573029,227.072586 463.467865,231.802612 463.891266,240.115082 
	C464.276337,247.675201 468.868805,251.460464 476.808258,251.161758 
	C480.019318,251.040970 481.353363,249.889481 480.997437,246.667435 
	C480.820618,245.066986 480.966736,243.430878 480.966736,242.590759 
	C478.449127,241.231506 476.647614,240.258865 474.846069,239.286224 
	C476.925781,238.847931 478.991119,238.306122 481.091187,238.014069 
	C482.175659,237.863235 483.321838,238.156052 484.945709,238.290192 
	C484.945709,242.648163 485.048340,246.766663 484.865540,250.872452 
	C484.825439,251.773590 483.971130,253.011124 483.149445,253.444275 
	C477.846527,256.239563 467.731354,254.468826 463.509888,250.167145 
	C459.190277,245.765503 457.651917,236.531906 461.501343,231.143600 
	C463.812073,227.909119 468.048065,226.050018 471.817017,223.436768 
z"/>
<path fill="#E8F1F8" opacity="1.000000" stroke="none" 
	d="
M396.799133,244.163452 
	C396.706360,238.082199 396.520844,232.424072 396.696564,226.777206 
	C396.734589,225.555939 398.071747,224.375107 398.810516,223.175659 
	C399.501190,224.433868 400.729950,225.667572 400.788544,226.954544 
	C401.030396,232.267258 400.803558,237.599579 400.966187,242.918076 
	C401.139160,248.577713 403.573029,251.317078 408.043884,251.298630 
	C412.500336,251.280243 414.939270,248.616608 415.182587,242.922318 
	C415.416748,237.442032 415.184326,231.941620 415.427643,226.462067 
	C415.477600,225.337540 416.726715,224.266281 417.423096,223.170471 
	C418.160400,224.223145 419.512054,225.263855 419.532776,226.330429 
	C419.645874,232.142944 419.749725,237.989456 419.247925,243.771454 
	C418.635193,250.831436 414.440857,254.680527 408.089844,254.841339 
	C401.895813,254.998169 398.328918,251.749237 396.799133,244.163452 
z"/>
<path fill="#F4F8FB" opacity="1.000000" stroke="none" 
	d="
M279.071228,186.193481 
	C279.071381,183.921997 279.071381,182.123322 279.071381,179.838058 
	C284.343842,179.838058 289.148560,179.773285 293.947296,179.912537 
	C294.615662,179.931915 295.254883,180.955750 295.907593,181.514603 
	C295.245087,182.064545 294.660309,182.861481 293.900024,183.100845 
	C292.986755,183.388336 291.924072,183.209259 290.925995,183.217957 
	C282.300964,183.293060 282.216797,183.398346 283.707855,192.979263 
	C287.371582,192.979263 291.125885,192.979263 294.880219,192.979263 
	C295.048218,193.406418 295.216217,193.833572 295.384216,194.260727 
	C294.453125,194.909286 293.601776,195.817047 292.568939,196.134644 
	C291.503326,196.462341 290.261139,196.211685 289.096252,196.221237 
	C283.781952,196.264832 280.944550,200.975662 283.504700,205.843643 
	C283.950806,206.691895 285.603180,207.210480 286.752441,207.321381 
	C289.227692,207.560287 291.755615,207.275604 294.224304,207.547424 
	C295.057556,207.639145 295.777100,208.763687 296.548615,209.416229 
	C295.782379,209.893951 295.026642,210.764435 294.248169,210.785248 
	C289.456970,210.913239 284.660645,210.849411 279.071045,210.849411 
	C279.071045,202.500565 279.071045,194.583435 279.071228,186.193481 
z"/>
<path fill="#F2F7FB" opacity="1.000000" stroke="none" 
	d="
M116.028351,206.795853 
	C119.431831,207.191208 122.430389,207.170761 125.392982,207.487106 
	C126.488914,207.604141 127.500282,208.513062 128.550217,209.060822 
	C127.574432,209.665741 126.618225,210.752533 125.619530,210.793091 
	C121.014816,210.980072 116.398254,210.875565 111.441833,210.875565 
	C111.441833,200.409363 111.441833,190.511490 111.441833,179.837173 
	C116.313606,179.837173 121.222656,179.774200 126.125786,179.916016 
	C126.746010,179.933975 127.335159,181.026352 127.938705,181.620941 
	C127.254250,182.142136 126.638588,182.897522 125.867554,183.124023 
	C124.945496,183.394928 123.890640,183.219803 122.893219,183.227188 
	C114.427582,183.289886 114.019882,183.820862 115.909126,192.889069 
	C119.416023,192.889069 123.020149,192.889069 128.050201,192.889069 
	C126.675842,194.606689 126.123779,195.461075 125.396500,196.122940 
	C125.113808,196.380219 124.434967,196.191849 123.937859,196.225449 
	C114.273972,196.878738 114.274010,196.879333 116.028351,206.795853 
z"/>
<path fill="#FAFCFD" opacity="1.000000" stroke="none" 
	d="
M174.843826,239.858978 
	C171.087402,239.857193 167.807465,239.857193 164.009781,239.857193 
	C164.009781,244.070801 164.218613,247.711014 163.887024,251.301331 
	C163.782715,252.430634 162.227692,253.425949 161.336639,254.482574 
	C160.888840,254.176331 160.441040,253.870087 159.993240,253.563843 
	C159.993240,244.432373 159.939148,235.300110 160.071426,226.170547 
	C160.085678,225.186630 161.181870,224.218414 161.776184,223.242905 
	C162.519882,224.235596 163.807007,225.177765 163.904846,226.230484 
	C164.192261,229.322983 164.007278,232.459412 164.007278,235.850967 
	C169.144119,235.850967 173.721313,235.850967 179.009109,235.850967 
	C179.009109,232.455719 178.860138,229.176697 179.102768,225.926910 
	C179.172684,224.990433 180.370193,224.138107 181.050720,223.247192 
	C181.712708,224.157516 182.933365,225.057999 182.949600,225.979706 
	C183.099075,234.466812 183.123459,242.959427 182.936447,251.444992 
	C182.913025,252.507553 181.452728,253.538422 180.658203,254.583984 
	C180.103683,254.323364 179.549164,254.062759 178.994644,253.802155 
	C178.994644,250.371445 178.843079,246.931931 179.041443,243.512726 
	C179.207352,240.653259 178.104004,239.507568 174.843826,239.858978 
z"/>
<path fill="#E8F1F8" opacity="1.000000" stroke="none" 
	d="
M304.673248,254.269165 
	C300.437622,254.269333 296.657990,254.269333 292.598999,254.269333 
	C292.598999,243.657806 292.598999,233.763855 292.598999,223.948029 
	C301.300995,221.686554 308.408569,222.773743 308.731140,226.832748 
	C304.977203,226.832748 301.236725,226.832748 297.684601,226.832748 
	C295.100433,234.970444 295.951599,236.266449 303.400696,236.347778 
	C304.232208,236.356857 305.148407,236.145462 305.874084,236.426620 
	C306.805634,236.787567 307.584137,237.543564 308.428558,238.129364 
	C307.609772,238.720688 306.825653,239.754562 305.965820,239.821899 
	C303.181549,240.040024 300.369507,239.903336 297.101379,239.903336 
	C297.101379,243.686340 297.101379,247.023529 297.101379,250.891449 
	C301.417938,250.891449 305.508057,250.891449 309.598145,250.891449 
	C309.761261,251.533508 309.924377,252.175568 310.087524,252.817642 
	C308.434753,253.301422 306.782013,253.785202 304.673248,254.269165 
z"/>
<path fill="#F4F8FB" opacity="1.000000" stroke="none" 
	d="
M242.117081,248.910965 
	C242.042801,250.801025 241.968613,252.257904 241.894440,253.714783 
	C241.486755,254.005447 241.079086,254.296112 240.671417,254.586777 
	C239.795547,253.591415 238.183945,252.613678 238.159637,251.597931 
	C237.956390,243.103149 237.984268,234.600342 238.129059,226.103134 
	C238.145523,225.137711 239.313217,224.191910 239.947083,223.237015 
	C240.656738,224.269409 241.888290,225.258453 241.978317,226.342316 
	C242.249390,229.605942 242.076065,232.906464 242.076065,236.726929 
	C248.645523,233.137451 249.683655,223.954697 258.444061,223.867981 
	C255.057327,228.036469 251.670593,232.204971 248.112244,236.584702 
	C251.878540,242.159378 255.594284,247.659210 259.310028,253.159058 
	C258.918640,253.549057 258.527283,253.939056 258.135895,254.329071 
	C250.864639,252.708603 250.442917,243.891449 245.003174,240.027649 
	C241.046768,241.671844 242.368073,245.369904 242.117081,248.910965 
z"/>
<path fill="#F0F6FA" opacity="1.000000" stroke="none" 
	d="
M118.415985,239.892685 
	C115.534691,239.893616 113.079033,239.893616 110.396317,239.893616 
	C110.396317,243.817108 110.396317,247.091690 110.396317,250.973129 
	C114.858200,250.973129 119.092850,250.973129 123.522781,250.973129 
	C122.253281,254.480881 115.969620,255.284958 106.291779,253.679596 
	C106.291779,243.817245 106.291779,233.908524 106.291779,223.185379 
	C111.265320,223.185379 116.173935,223.119247 121.075897,223.269592 
	C121.684311,223.288269 122.257454,224.456741 122.846939,225.092407 
	C122.196449,225.676102 121.570999,226.727722 120.891205,226.764099 
	C117.601288,226.940186 114.296783,226.843491 110.581665,226.843491 
	C110.581665,230.045135 110.581665,232.755997 110.581665,236.398529 
	C113.312225,236.398529 116.078018,236.259857 118.817665,236.467026 
	C119.907295,236.549423 120.939026,237.397583 121.997116,237.897125 
	C120.945282,238.562012 119.893456,239.226883 118.415985,239.892685 
z"/>
<path fill="#F2F7FB" opacity="1.000000" stroke="none" 
	d="
M359.205566,227.709778 
	C362.244568,236.536224 365.168518,244.999557 368.107025,253.505005 
	C364.294800,255.293152 363.566620,252.954163 362.709595,250.417709 
	C360.883575,245.013718 355.907501,242.476624 350.959106,244.973038 
	C349.333893,245.792938 348.604919,248.644928 347.761169,250.689453 
	C346.838837,252.924393 346.286804,255.345657 342.592224,253.464478 
	C345.744873,244.230179 348.832550,234.947159 352.166809,225.753571 
	C352.540222,224.723862 354.787170,223.315765 355.342285,223.614182 
	C356.830475,224.414154 357.871735,226.045517 359.205566,227.709778 
M351.153198,239.617447 
	C353.290863,243.672897 356.285950,240.989151 359.692139,241.044846 
	C358.200287,236.584045 356.910034,232.726120 355.182129,227.559448 
	C353.580139,232.292725 352.470734,235.570679 351.153198,239.617447 
z"/>
<path fill="#FAFCFD" opacity="1.000000" stroke="none" 
	d="
M136.461411,202.131485 
	C136.235092,195.398346 135.998138,189.075668 136.139297,182.761459 
	C136.164017,181.655441 137.776642,180.584915 138.655914,179.498001 
	C139.137497,179.793915 139.619095,180.089813 140.100693,180.385727 
	C140.100693,185.680252 140.047394,190.975571 140.128235,196.268860 
	C140.158478,198.248688 140.337830,200.257431 140.737183,202.193588 
	C141.466141,205.727814 143.840820,207.823776 147.379822,207.847107 
	C150.886215,207.870255 153.679550,205.911530 154.152267,202.373199 
	C154.786591,197.625229 154.748856,192.783737 154.923294,187.979599 
	C155.013550,185.494370 154.939163,183.003143 156.132782,179.526474 
	C157.081970,180.546280 158.810074,181.535934 158.850937,182.590912 
	C159.076172,188.405777 159.283844,194.272751 158.753998,200.053696 
	C157.898041,209.392929 148.867004,214.415375 141.476715,209.625977 
	C139.249817,208.182785 138.179413,204.955078 136.461411,202.131485 
z"/>
<path fill="#FAFCFD" opacity="1.000000" stroke="none" 
	d="
M253.384323,192.776581 
	C257.645020,192.798508 261.444366,192.798508 265.966064,192.798508 
	C265.966064,189.080597 265.816498,185.799988 266.061462,182.549103 
	C266.130737,181.629608 267.353027,180.796967 268.046478,179.924484 
	C268.698853,180.836426 269.901917,181.738968 269.917664,182.661789 
	C270.062592,191.156860 270.063660,199.656555 269.908783,208.151291 
	C269.892731,209.030914 268.592896,209.887100 267.888702,210.754166 
	C267.246521,209.821686 266.108887,208.919159 266.050385,207.951370 
	C265.830414,204.312790 265.962158,200.652939 265.962158,196.597900 
	C261.048584,196.597900 256.474731,196.597900 250.967834,196.597900 
	C250.967834,200.221329 251.126465,203.968658 250.867661,207.686905 
	C250.793533,208.751953 249.511612,209.732925 248.783478,210.752441 
	C248.170212,209.791519 247.041260,208.839401 247.024658,207.868271 
	C246.882324,199.539719 246.882721,191.206802 247.017380,182.878036 
	C247.033417,181.886795 248.110260,180.912704 248.695374,179.930649 
	C249.452667,180.915237 250.704086,181.825729 250.865097,182.899704 
	C251.207275,185.182175 250.791153,187.573456 251.077133,189.871445 
	C251.204315,190.893250 252.278580,191.797211 253.384323,192.776581 
z"/>
<path fill="#F2F7FB" opacity="1.000000" stroke="none" 
	d="
M132.475983,249.453857 
	C128.088821,242.461334 127.799522,235.581039 132.242508,229.046341 
	C136.266769,223.127533 142.527374,222.193085 149.116852,223.130798 
	C150.265305,223.294220 151.249390,224.612762 152.309387,225.397827 
	C151.143494,225.844666 149.890411,226.823166 148.826401,226.648666 
	C143.495361,225.774323 138.857117,226.651749 135.594543,231.293274 
	C132.894226,235.134964 132.922104,242.666748 135.536469,246.479660 
	C138.832077,251.286179 143.633575,251.763931 148.844421,250.912247 
	C149.789627,250.757751 150.729141,250.568451 151.671295,250.395218 
	C151.987732,250.806549 152.304169,251.217865 152.620605,251.629181 
	C151.635544,252.473907 150.772308,253.797241 149.645248,254.084106 
	C143.268936,255.707138 137.467041,254.639465 132.475983,249.453857 
z"/>
<path fill="#F2F7FB" opacity="1.000000" stroke="none" 
	d="
M226.441559,180.194763 
	C230.104843,179.962814 233.406448,179.638580 236.666611,179.878250 
	C237.689331,179.953445 238.600540,181.545654 239.146210,183.012985 
	C232.395370,182.511383 226.023590,181.738632 222.242661,188.316681 
	C219.498505,193.090958 219.482559,198.400772 222.585983,203.035629 
	C226.474747,208.843338 232.360626,208.485794 238.380112,206.845428 
	C238.659073,207.307678 238.938049,207.769913 239.217010,208.232147 
	C238.064087,209.123718 237.020996,210.560974 235.740494,210.818756 
	C227.102249,212.557663 219.286331,208.534363 217.020264,201.435654 
	C214.112137,192.325562 217.540878,184.319977 226.441559,180.194763 
z"/>
<path fill="#F4F8FB" opacity="1.000000" stroke="none" 
	d="
M201.327759,192.765152 
	C203.290802,193.753418 205.025879,194.425674 206.507217,195.460999 
	C211.547958,198.983963 211.710922,206.556351 206.213806,209.033783 
	C202.618866,210.653976 198.001755,210.153656 193.836502,210.218491 
	C193.125153,210.229568 192.383667,208.303055 191.656097,207.271637 
	C191.969574,207.021545 192.283035,206.771454 192.596512,206.521347 
	C194.350647,206.946732 196.087204,207.476501 197.862656,207.775085 
	C201.229263,208.341202 204.473816,207.910614 205.691116,204.242508 
	C206.945984,200.461288 204.379761,198.419220 201.299805,196.961670 
	C199.652695,196.182220 197.882935,195.602844 196.358765,194.633911 
	C191.861450,191.774918 190.726913,186.897614 193.531799,183.123932 
	C196.236664,179.484802 204.580048,177.756180 207.635315,180.295242 
	C208.108643,180.688583 208.321609,181.679382 208.244080,182.346100 
	C208.196625,182.754089 207.372345,183.356735 206.884888,183.368393 
	C205.911789,183.391678 204.934967,183.037048 203.951614,182.893906 
	C200.825150,182.438873 197.611465,182.451447 196.446884,186.007858 
	C195.214996,189.769775 198.219650,191.256088 201.327759,192.765152 
z"/>
<path fill="#E8F1F8" opacity="1.000000" stroke="none" 
	d="
M381.589142,251.231628 
	C380.640869,252.457718 379.700470,253.274811 378.760040,254.091904 
	C378.267639,252.995117 377.366608,251.904984 377.348602,250.800446 
	C377.223816,243.153992 377.282837,235.504562 377.282837,226.903473 
	C374.849548,226.903473 372.745911,227.118790 370.722321,226.809875 
	C369.754761,226.662140 368.939026,225.520126 368.054504,224.828445 
	C368.886780,224.253937 369.707733,223.201660 370.553162,223.181610 
	C376.544495,223.039490 382.542603,223.040253 388.533600,223.191177 
	C389.351349,223.211777 390.141785,224.317947 390.944855,224.921494 
	C390.027557,225.582901 388.984894,226.936691 388.212616,226.796890 
	C381.630920,225.605469 381.311768,229.442398 381.543304,234.339172 
	C381.802582,239.822250 381.599121,245.327209 381.589142,251.231628 
z"/>
<path fill="#7CB2D5" opacity="1.000000" stroke="none" 
	d="
M398.977081,180.799667 
	C398.955688,184.276917 399.273224,187.806549 398.747894,191.205917 
	C398.534576,192.586502 396.620270,194.562775 395.253082,194.769806 
	C384.878571,196.340820 383.993866,195.456238 384.001801,184.911118 
	C384.002808,183.586365 384.011566,182.261627 384.026917,180.470779 
	C384.037109,180.004684 383.998077,180.002838 384.464600,180.023788 
	C389.604492,180.005402 394.277802,179.966064 398.963654,180.144775 
	C398.976166,180.362839 398.977081,180.799667 398.977081,180.799667 
z"/>
<path fill="#C8DEED" opacity="1.000000" stroke="none" 
	d="
M441.876465,108.934662 
	C441.354279,108.951332 441.215149,109.014503 441.139252,109.019943 
	C441.157227,105.370827 441.009888,101.685425 441.470978,98.077797 
	C441.640839,96.748795 443.136200,94.670815 444.216919,94.543243 
	C447.941895,94.103546 451.750702,94.374092 456.010986,94.374092 
	C456.010986,98.762131 456.241974,102.412994 455.867188,106.000565 
	C455.757782,107.047844 453.997803,108.610695 452.863251,108.734367 
	C449.409424,109.110855 445.891571,108.900124 441.876465,108.934662 
z"/>
<path fill="#7CB2D5" opacity="1.000000" stroke="none" 
	d="
M311.235352,139.534744 
	C313.558289,137.215393 322.553497,135.822449 324.213562,137.672821 
	C325.429779,139.028427 325.843445,141.524063 325.795074,143.491425 
	C325.729645,146.152008 325.481537,150.689865 324.250061,151.081207 
	C320.789124,152.181046 316.768738,151.765137 313.007507,151.464447 
	C312.274200,151.405823 311.293854,149.215805 311.163055,147.933823 
	C310.894714,145.304321 311.124756,142.623962 311.235352,139.534744 
z"/>
<path fill="#D4E5F1" opacity="1.000000" stroke="none" 
	d="
M399.015381,137.710907 
	C398.937988,137.487350 398.803131,137.306686 398.457825,137.092575 
	C398.304779,132.602982 398.304779,128.189743 398.304779,122.974159 
	C403.362305,122.974159 407.732178,122.974159 412.571075,123.006363 
	C413.040070,123.038559 412.996674,122.994690 413.010132,123.440071 
	C412.991913,128.253708 412.960236,132.621979 412.928589,136.990234 
	C412.928589,136.990234 413.000000,136.985458 412.617676,137.119568 
	C407.828705,137.406097 403.422028,137.558502 399.015381,137.710907 
z"/>
<path fill="#7CB2D5" opacity="1.000000" stroke="none" 
	d="
M355.002258,180.046112 
	C355.019379,180.225220 355.036469,180.404312 355.093445,180.851639 
	C355.378479,184.264420 355.644623,187.407516 355.862518,190.553925 
	C356.057404,193.367950 354.930786,194.741669 351.892273,194.983475 
	C341.346649,195.822769 340.989227,195.578323 341.002106,184.929352 
	C341.003723,183.598343 341.014496,182.267334 341.009521,180.469543 
	C340.998016,180.002762 340.998779,180.039963 341.463562,180.042572 
	C346.286316,180.045502 350.644287,180.045807 355.002258,180.046112 
z"/>
<path fill="#D4E5F1" opacity="1.000000" stroke="none" 
	d="
M484.217651,80.743431 
	C484.612274,81.906700 484.782410,82.721054 484.808960,83.540070 
	C485.171753,94.734451 484.669769,95.278404 473.558563,94.010056 
	C472.337891,93.870728 471.304413,92.049995 470.202942,90.989532 
	C470.118134,90.907875 470.190399,90.669548 470.178284,90.504875 
	C469.375580,79.599396 470.590393,78.706100 484.217651,80.743431 
z"/>
<path fill="#D4E5F1" opacity="1.000000" stroke="none" 
	d="
M442.754059,137.539246 
	C442.203003,132.971848 442.093475,128.415573 441.992828,123.388222 
	C446.448059,122.917145 450.894409,122.917145 455.662537,122.917145 
	C455.662537,127.990898 455.662537,132.393784 455.662537,137.550369 
	C451.414276,137.550369 447.304932,137.550369 442.754059,137.539246 
z"/>
<path fill="#7CB2D5" opacity="1.000000" stroke="none" 
	d="
M355.495972,152.048889 
	C355.747498,156.498306 355.536743,160.930069 354.663086,165.710938 
	C349.665894,166.029922 345.331635,165.999817 340.995575,165.984802 
	C340.993774,165.999908 341.026703,166.000565 341.026703,166.000565 
	C341.022278,162.880951 341.117676,159.757126 340.986420,156.642868 
	C340.844116,153.266891 342.330109,151.846680 345.676025,151.986359 
	C348.790436,152.116364 351.914093,152.025101 355.495972,152.048889 
z"/>
<path fill="#8DBBDB" opacity="1.000000" stroke="none" 
	d="
M467.601624,166.006836 
	C465.319427,166.052902 463.469574,165.908661 461.656586,166.104965 
	C457.254211,166.581635 455.380585,164.671539 456.018646,160.356186 
	C456.413055,157.688965 456.407715,153.142715 457.622803,152.761963 
	C461.105835,151.670532 465.119446,152.261719 468.924805,152.230560 
	C469.210846,152.228226 469.539368,152.490417 469.780670,152.705353 
	C472.040802,154.718552 470.815186,164.060730 467.601624,166.006836 
z"/>
<path fill="#F4F8FB" opacity="1.000000" stroke="none" 
	d="
M90.987762,251.347351 
	C90.046509,252.701385 89.109108,253.627838 88.171715,254.554291 
	C87.759789,254.238113 87.347855,253.921951 86.935928,253.605774 
	C86.935928,244.993500 86.935928,236.381226 86.935928,227.172607 
	C84.545059,227.060883 82.433296,227.155792 80.406181,226.786316 
	C79.382790,226.599792 78.512665,225.572372 77.573242,224.925171 
	C78.397057,224.330399 79.208748,223.240738 80.046646,223.220184 
	C86.037239,223.073303 92.035042,223.073807 98.025055,223.233795 
	C98.784714,223.254089 99.512375,224.472229 100.254868,225.135406 
	C99.424416,225.711761 98.643456,226.671082 97.753395,226.786102 
	C95.797874,227.038773 93.787186,226.864471 90.991615,226.864471 
	C90.991615,235.079269 90.991615,242.999527 90.987762,251.347351 
z"/>
<path fill="#8DBBDB" opacity="1.000000" stroke="none" 
	d="
M399.407227,180.805695 
	C398.977081,180.799667 398.976166,180.362839 398.955811,179.688019 
	C398.965881,174.666534 398.996338,170.319839 399.026825,165.973160 
	C399.026825,165.973160 399.005463,165.994537 399.460388,166.010147 
	C404.236115,166.057739 408.556885,166.089722 412.877655,166.121704 
	C412.887482,166.287064 412.901184,166.452286 412.906677,166.617783 
	C413.353760,180.103516 413.353699,180.103516 399.407227,180.805695 
z"/>
<path fill="#6BA8CF" opacity="1.000000" stroke="none" 
	d="
M412.907776,165.646393 
	C408.556885,166.089722 404.236115,166.057739 399.449707,166.020813 
	C398.987885,161.648117 398.991699,157.280365 399.471924,152.451981 
	C404.321838,151.987381 408.695343,151.983429 413.068817,151.979477 
	C413.068817,151.979477 413.012329,151.976303 413.026794,151.950287 
	C413.006775,156.339859 412.972321,160.755463 412.907776,165.646393 
z"/>
<path fill="#6BA8CF" opacity="1.000000" stroke="none" 
	d="
M341.017578,180.003342 
	C338.064545,180.011124 335.081940,179.864349 332.121582,180.058075 
	C326.252594,180.442169 327.068878,176.358505 326.981384,172.742981 
	C326.892059,169.052612 326.814789,165.559036 332.167084,165.973740 
	C334.793427,166.177216 337.448975,166.003464 340.559021,166.000504 
	C341.026703,166.000565 340.993774,165.999908 340.998535,166.452789 
	C341.001770,171.283752 341.000275,175.661865 340.998779,180.039963 
	C340.998779,180.039963 340.998016,180.002762 341.017578,180.003342 
z"/>
<path fill="#FAFCFD" opacity="1.000000" stroke="none" 
	d="
M175.141388,210.642639 
	C174.475021,204.444977 174.203613,198.355515 174.013321,192.263535 
	C173.926163,189.472839 173.998505,186.677185 173.998505,183.149887 
	C171.285477,183.149887 169.010315,183.279785 166.766235,183.072723 
	C166.069778,183.008469 165.457687,182.029861 164.806976,181.469864 
	C165.477768,180.929306 166.139572,179.932861 166.820770,179.919403 
	C172.968369,179.798065 179.120331,179.798264 185.268051,179.916443 
	C185.998596,179.930481 186.711441,180.864807 187.432495,181.372559 
	C186.631683,181.970932 185.880600,182.982040 185.020187,183.085709 
	C182.929794,183.337524 180.788635,183.167618 178.048645,183.167618 
	C178.048645,191.331940 178.175400,198.926895 177.936691,206.510376 
	C177.891464,207.946930 176.395889,209.337830 175.141388,210.642639 
z"/>
<path fill="#F4F8FB" opacity="1.000000" stroke="none" 
	d="
M224.820557,235.093033 
	C224.831390,231.631241 224.711975,228.638535 224.933853,225.671371 
	C224.997940,224.814285 226.042984,224.030579 226.638306,223.213242 
	C227.392563,224.046158 228.785889,224.866669 228.802338,225.713913 
	C228.969498,234.328384 228.999252,242.949188 228.805023,251.562286 
	C228.781403,252.609863 227.214111,253.622635 226.362228,254.651535 
	C225.848206,254.376343 225.334198,254.101151 224.820175,253.825943 
	C224.820175,247.741241 224.820175,241.656540 224.820557,235.093033 
z"/>
<path fill="#5098C7" opacity="1.000000" stroke="none" 
	d="
M413.055847,151.514893 
	C408.695343,151.983429 404.321838,151.987381 399.485840,151.986252 
	C399.004700,147.548080 398.986115,143.115005 398.991455,138.196411 
	C403.422028,137.558502 407.828705,137.406097 412.615204,137.083878 
	C413.011017,141.626144 413.026947,146.338242 413.055847,151.514893 
z"/>
<path fill="#5098C7" opacity="1.000000" stroke="none" 
	d="
M413.397614,137.037079 
	C412.960236,132.621979 412.991913,128.253708 412.988586,123.417984 
	C417.277893,123.032852 421.602234,123.115189 426.378204,123.235626 
	C427.438660,139.921692 428.303864,136.920578 413.397614,137.037079 
z"/>
<path fill="#5098C7" opacity="1.000000" stroke="none" 
	d="
M398.558777,166.000580 
	C398.996338,170.319839 398.965881,174.666534 398.943298,179.469971 
	C394.277802,179.966064 389.604492,180.005402 384.464966,180.042358 
	C384.002228,175.658493 384.005646,171.277039 384.007263,166.426392 
	C388.700531,165.980804 393.395630,166.004395 398.558777,166.000580 
z"/>
<path fill="#5098C7" opacity="1.000000" stroke="none" 
	d="
M369.994934,152.458862 
	C374.324066,152.007446 378.654846,152.021637 383.439880,152.054932 
	C383.934296,156.405151 383.974457,160.736237 384.027344,165.531128 
	C381.083862,165.994141 378.119781,165.857010 375.173309,166.026489 
	C371.348328,166.246536 369.742523,164.610764 369.975922,160.805847 
	C370.136475,158.188141 370.000153,155.552216 369.994934,152.458862 
z"/>
<path fill="#5098C7" opacity="1.000000" stroke="none" 
	d="
M341.463562,180.042572 
	C341.000275,175.661865 341.001770,171.283752 341.000305,166.437683 
	C345.331635,165.999817 349.665894,166.029922 354.455200,166.072662 
	C354.943756,170.426056 354.977203,174.766800 355.006470,179.576843 
	C350.644287,180.045807 346.286316,180.045502 341.463562,180.042572 
z"/>
<path fill="#5098C7" opacity="1.000000" stroke="none" 
	d="
M211.515625,246.290314 
	C211.229889,246.055481 211.177246,245.651108 211.124603,245.246719 
	C211.332642,245.538071 211.540695,245.829422 211.515625,246.290314 
z"/>
<path fill="#569BC9" opacity="1.000000" stroke="none" 
	d="
M275.505249,239.907104 
	C279.178864,241.079971 280.909760,243.198547 280.241394,246.726257 
	C279.543152,250.411484 276.600861,251.002365 273.523132,251.372955 
	C270.304321,251.760529 269.213348,250.418243 269.185944,247.175659 
	C269.120941,239.488678 268.972565,239.489929 275.505249,239.907104 
z"/>
<path fill="#569BC9" opacity="1.000000" stroke="none" 
	d="
M269.387787,234.620209 
	C269.293884,233.200043 269.207611,232.208405 269.267914,231.225800 
	C269.400055,229.073929 268.486084,226.199005 272.225952,226.250122 
	C275.462036,226.294327 278.814484,226.628372 279.401947,230.665817 
	C279.861481,233.824234 277.832489,235.693970 274.846436,235.952805 
	C273.090790,236.104965 271.259308,235.382141 269.387787,234.620209 
z"/>
<path fill="#569BC9" opacity="1.000000" stroke="none" 
	d="
M99.165184,197.545227 
	C97.121788,205.134338 92.154915,208.747330 85.314949,207.696701 
	C84.209045,207.526825 82.444893,206.168121 82.417366,205.312851 
	C82.184555,198.079666 82.284477,190.835785 82.284477,183.734360 
	C93.936707,181.063934 99.626526,185.753326 99.165184,197.545227 
z"/>
<path fill="#569BC9" opacity="1.000000" stroke="none" 
	d="
M323.367065,226.333801 
	C325.688385,226.576401 327.781891,226.512436 329.488037,227.293991 
	C332.449890,228.650742 333.643280,233.459000 331.123535,235.138718 
	C328.720062,236.740921 325.206543,236.677979 322.181030,237.347061 
	C322.442291,233.700653 322.703583,230.054230 323.367065,226.333801 
z"/>
<path fill="#6BA8CF" opacity="1.000000" stroke="none" 
	d="
M351.257263,239.233032 
	C352.470734,235.570679 353.580139,232.292725 355.182129,227.559448 
	C356.910034,232.726120 358.200287,236.584045 359.692139,241.044846 
	C356.285950,240.989151 353.290863,243.672897 351.257263,239.233032 
z"/>
</svg>