<?xml version="1.0" standalone="no"?>
<!DOCTYPE svg PUBLIC "-//W3C//DTD SVG 20010904//EN"
 "http://www.w3.org/TR/2001/REC-SVG-20010904/DTD/svg10.dtd">
<svg version="1.0" xmlns="http://www.w3.org/2000/svg"
 width="512.000000pt" height="512.000000pt" viewBox="0 0 512.000000 512.000000"
 preserveAspectRatio="xMidYMid meet">

<g transform="translate(0.000000,512.000000) scale(0.100000,-0.100000)"
fill="#000000" stroke="none">
<path d="M2523 4828 c-13 -6 -27 -26 -33 -47 -6 -21 -10 -207 -10 -456 l0
-420 -253 -253 -252 -252 -795 0 c-645 -1 -800 -3 -819 -14 -19 -10 -63 -101
-193 -392 -92 -208 -168 -388 -168 -399 0 -12 9 -31 20 -43 17 -18 32 -22 80
-22 l60 0 0 -1050 0 -1050 -55 0 c-46 0 -60 -4 -80 -25 -32 -31 -32 -69 0
-100 l24 -25 2511 0 2511 0 24 25 c14 13 25 36 25 50 0 14 -11 37 -25 50 -20
21 -34 25 -80 25 l-55 0 0 1050 0 1050 60 0 c48 0 63 4 80 22 11 12 20 31 20
43 0 11 -76 191 -168 399 -130 291 -174 382 -193 392 -19 11 -174 13 -819 14
l-795 0 -253 253 -252 252 0 193 0 192 254 0 c235 0 256 1 277 19 24 19 24 22
27 232 2 117 1 223 -3 236 -3 12 -15 32 -27 43 -21 19 -34 20 -322 19 -194 0
-309 -4 -323 -11z m527 -263 l0 -125 -205 0 -205 0 0 125 0 125 205 0 205 0 0
-125z m135 -1415 l620 -620 317 0 317 0 20 26 c27 35 26 57 -3 91 l-24 28
-284 3 -283 3 -277 277 c-153 152 -278 280 -278 284 0 5 306 8 679 8 533 0
682 -3 688 -12 4 -7 63 -136 129 -285 l122 -273 -97 0 c-141 0 -181 -19 -181
-84 0 -45 32 -66 100 -66 l60 0 0 -1050 0 -1050 -764 0 -764 0 -4 141 c-3 134
-4 142 -27 160 -16 13 -39 19 -77 19 l-53 0 -3 341 -3 341 -24 19 c-22 18 -46
19 -531 19 -485 0 -509 -1 -531 -19 l-24 -19 -3 -341 -3 -341 -53 0 c-38 0
-61 -6 -77 -19 -23 -18 -24 -26 -27 -160 l-4 -141 -764 0 -764 0 0 1050 0
1050 502 0 503 0 620 620 c341 341 622 620 625 620 3 0 284 -279 625 -620z
m-1375 93 c0 -5 -125 -133 -277 -285 l-278 -278 -531 0 -532 0 122 273 c66
149 125 278 129 285 6 9 155 12 688 12 373 0 679 -3 679 -7z m670 -2208 l0
-285 -165 0 -165 0 0 285 0 285 165 0 165 0 0 -285z m490 0 l0 -285 -165 0
-165 0 0 285 0 285 165 0 165 0 0 -285z m160 -520 l0 -85 -570 0 -570 0 0 85
0 85 570 0 570 0 0 -85z"/>
<path d="M2485 2989 c-114 -14 -247 -81 -327 -165 -169 -178 -200 -458 -73
-669 158 -263 496 -347 762 -189 251 149 339 475 201 737 -106 199 -333 314
-563 286z m200 -166 c284 -85 373 -456 161 -669 -233 -232 -634 -102 -685 224
-47 297 231 534 524 445z"/>
<path d="M2599 2545 c-47 -24 -92 -51 -100 -61 -10 -12 -14 -46 -14 -125 0
-98 2 -111 22 -130 28 -29 77 -29 105 -1 16 16 22 37 26 95 l4 75 51 23 c80
38 97 55 97 98 0 83 -63 91 -191 26z"/>
<path d="M501 2244 c-20 -25 -21 -39 -21 -280 0 -271 4 -295 49 -314 18 -7
203 -10 603 -8 550 3 577 4 597 22 20 19 21 27 21 293 0 260 -1 274 -20 293
-20 20 -33 20 -614 20 l-595 0 -20 -26z m539 -289 l0 -165 -205 0 -205 0 0
165 0 165 205 0 205 0 0 -165z m560 0 l0 -165 -205 0 -205 0 0 165 0 165 205
0 205 0 0 -165z"/>
<path d="M3390 2250 c-19 -19 -20 -33 -20 -293 0 -266 1 -274 21 -293 20 -18
47 -19 597 -22 400 -2 585 1 603 8 45 19 49 43 49 314 0 241 -1 255 -21 280
l-20 26 -595 0 c-581 0 -594 0 -614 -20z m540 -295 l0 -165 -205 0 -205 0 0
165 0 165 205 0 205 0 0 -165z m560 0 l0 -165 -205 0 -205 0 0 165 0 165 205
0 205 0 0 -165z"/>
<path d="M501 1444 c-20 -25 -21 -39 -21 -289 0 -329 -10 -309 149 -313 107
-4 111 -3 136 22 32 32 33 75 2 104 -18 17 -36 22 -80 22 l-57 0 0 165 0 165
205 0 205 0 0 -164 0 -164 -25 -6 c-38 -10 -60 -50 -49 -89 16 -55 27 -57 395
-57 325 0 337 1 363 21 l26 20 0 275 c0 261 -1 275 -20 294 -20 20 -33 20
-614 20 l-595 0 -20 -26z m1099 -289 l0 -165 -205 0 -205 0 0 165 0 165 205 0
205 0 0 -165z"/>
<path d="M3390 1450 c-19 -19 -20 -33 -20 -294 l0 -275 27 -21 c26 -20 30 -20
616 -18 l589 3 19 24 c18 22 19 42 19 286 0 250 -1 264 -21 289 l-20 26 -595
0 c-581 0 -594 0 -614 -20z m540 -295 l0 -165 -205 0 -205 0 0 165 0 165 205
0 205 0 0 -165z m560 0 l0 -165 -205 0 -205 0 0 165 0 165 205 0 205 0 0 -165z"/>
</g>
</svg>
