<?xml version="1.0" standalone="no"?>
<!DOCTYPE svg PUBLIC "-//W3C//DTD SVG 20010904//EN"
 "http://www.w3.org/TR/2001/REC-SVG-20010904/DTD/svg10.dtd">
<svg version="1.0" xmlns="http://www.w3.org/2000/svg"
 width="1024.000000pt" height="1024.000000pt" viewBox="0 0 1024.000000 1024.000000"
 preserveAspectRatio="xMidYMid meet">

<g transform="translate(0.000000,1024.000000) scale(0.100000,-0.100000)"
fill="#000000" stroke="none">
<path d="M3145 1796 c-36 -16 -55 -52 -55 -107 0 -49 28 -80 97 -110 97 -41
119 -94 64 -150 -51 -51 -124 -31 -137 36 -8 44 -34 47 -34 4 0 -36 43 -84 84
-95 86 -21 173 82 134 163 -9 19 -36 39 -87 65 -41 21 -78 43 -83 50 -17 27
-9 84 15 106 42 39 117 18 117 -34 0 -15 6 -24 15 -24 17 0 20 32 5 61 -12 22
-61 49 -87 49 -10 -1 -32 -7 -48 -14z"/>
<path d="M3704 1801 c-58 -25 -84 -119 -46 -168 9 -12 49 -38 88 -57 39 -19
74 -42 78 -51 13 -35 5 -67 -23 -96 -51 -51 -120 -30 -136 41 -4 18 -13 30
-22 30 -20 0 -11 -64 13 -91 50 -55 157 -40 188 25 36 76 14 124 -76 166 -33
16 -68 36 -79 46 -42 38 -7 134 50 134 35 0 69 -24 73 -52 2 -13 10 -24 19
-26 24 -4 12 51 -16 78 -25 24 -80 34 -111 21z"/>
<path d="M5644 1791 c-88 -53 -99 -291 -19 -377 33 -34 37 -36 82 -30 26 4 60
6 76 7 l27 0 0 99 0 100 -50 0 c-38 0 -50 -4 -50 -15 0 -10 11 -15 35 -15 l35
0 0 -55 c0 -50 -2 -56 -30 -70 -90 -47 -150 20 -150 166 0 72 26 141 58 158
46 24 101 1 117 -49 3 -11 13 -20 21 -20 17 0 17 1 -1 48 -27 66 -92 89 -151
53z"/>
<path d="M7433 1790 c-45 -27 -61 -87 -36 -138 14 -28 33 -43 85 -69 84 -41
104 -68 88 -118 -14 -41 -44 -65 -83 -65 -35 0 -77 40 -77 75 0 16 -6 25 -15
25 -27 0 -18 -58 14 -91 25 -25 37 -29 81 -29 44 0 56 4 81 29 24 24 29 38 29
76 0 25 -5 56 -11 67 -6 11 -44 36 -85 55 -86 39 -101 61 -81 120 22 68 112
72 132 5 10 -36 35 -44 35 -11 0 31 -17 57 -50 74 -39 20 -69 19 -107 -5z"/>
<path d="M3970 1595 l0 -205 95 0 c77 0 95 3 95 15 0 11 -18 15 -77 17 l-78 3
0 75 0 75 68 3 c58 3 67 5 67 22 0 17 -9 19 -67 22 l-68 3 0 65 0 65 73 3 c64
3 72 5 72 22 0 18 -7 20 -90 20 l-90 0 0 -205z"/>
<path d="M4270 1596 c0 -178 2 -206 15 -206 13 0 15 27 13 202 -2 150 -6 202
-15 206 -10 3 -13 -42 -13 -202z"/>
<path d="M4430 1594 l0 -204 74 0 c122 0 156 44 156 202 0 106 -23 172 -62
187 -13 4 -56 11 -95 14 l-73 6 0 -205z m144 165 c35 -16 56 -76 56 -158 0
-90 -7 -122 -34 -156 -19 -23 -32 -29 -79 -33 l-57 -4 0 181 0 181 45 0 c24 0
55 -5 69 -11z"/>
<path d="M4780 1595 l0 -205 95 0 c78 0 95 3 95 15 0 12 -15 15 -75 15 l-75 0
0 80 0 80 70 0 c63 0 70 2 70 20 0 18 -7 20 -70 20 l-70 0 0 70 0 70 76 0 c66
0 75 2 72 18 -3 14 -17 17 -96 20 l-92 3 0 -206z"/>
<path d="M5077 1793 c-4 -3 -7 -96 -7 -205 l0 -198 95 0 c78 0 95 3 95 15 0
12 -15 15 -75 15 l-75 0 0 190 c0 152 -3 190 -13 190 -8 0 -17 -3 -20 -7z"/>
<path d="M5939 1758 c11 -24 35 -78 55 -121 32 -70 36 -87 36 -163 0 -68 3
-84 15 -84 12 0 15 16 15 85 0 83 1 88 55 195 59 117 64 133 39 128 -8 -2 -33
-43 -55 -93 -23 -49 -44 -93 -48 -97 -4 -4 -26 37 -51 92 -32 73 -48 100 -61
100 -17 0 -17 -2 0 -42z"/>
<path d="M6277 1793 c-4 -3 -7 -96 -7 -205 0 -191 1 -198 20 -198 19 0 20 7
20 172 0 94 2 169 5 166 3 -2 19 -54 35 -114 59 -214 62 -224 80 -224 14 0 27
35 66 173 l49 172 3 -172 c2 -165 3 -173 22 -173 20 0 20 6 18 203 l-3 202
-24 0 c-24 0 -28 -9 -72 -169 -45 -159 -54 -185 -62 -175 -2 2 -18 60 -36 129
-54 206 -59 220 -85 220 -13 0 -26 -3 -29 -7z"/>
<path d="M7720 1595 c0 -176 2 -205 15 -205 13 0 15 29 15 205 0 176 -2 205
-15 205 -13 0 -15 -29 -15 -205z"/>
<path d="M7890 1635 c0 -145 2 -171 20 -205 14 -27 30 -42 53 -49 65 -22 118
21 137 109 14 69 10 302 -6 307 -9 3 -13 -41 -16 -154 -4 -173 -16 -217 -62
-229 -77 -19 -96 28 -96 230 0 132 -2 156 -15 156 -13 0 -15 -25 -15 -165z"/>
<path d="M1710 1590 c0 -171 2 -200 15 -200 12 0 15 17 15 95 l0 95 85 0 85 0
0 -95 c0 -78 3 -95 15 -95 13 0 15 29 15 200 0 171 -2 200 -15 200 -12 0 -15
-16 -15 -85 l0 -85 -85 0 -85 0 0 85 c0 69 -3 85 -15 85 -13 0 -15 -29 -15
-200z"/>
<path d="M2126 1738 c-28 -97 -86 -325 -86 -337 0 -6 7 -11 15 -11 13 0 20 19
39 103 6 26 9 27 66 27 l59 0 16 -52 c8 -28 15 -58 15 -65 0 -7 9 -13 20 -13
11 0 20 1 20 3 0 1 -18 70 -40 152 -22 83 -46 171 -52 198 -9 39 -15 47 -34
47 -19 0 -25 -9 -38 -52z m62 -81 c12 -51 22 -96 22 -100 0 -4 -23 -7 -51 -7
-48 0 -51 1 -45 23 3 12 14 57 23 100 10 42 20 77 23 77 3 0 16 -42 28 -93z"/>
<path d="M2390 1590 c0 -127 4 -200 10 -200 6 0 10 63 10 170 0 157 8 207 24
144 4 -14 38 -90 76 -170 96 -200 100 -198 100 56 0 179 -2 200 -16 200 -15 0
-16 -17 -12 -165 3 -91 2 -165 -1 -165 -4 0 -13 17 -21 38 -7 20 -40 94 -73
165 -45 95 -65 127 -79 127 -17 0 -18 -12 -18 -200z"/>
<path d="M2740 1591 c0 -172 2 -201 15 -201 13 0 15 26 16 173 0 133 3 166 11
147 6 -14 43 -91 81 -172 53 -112 75 -148 89 -148 17 0 18 12 18 200 0 171 -2
200 -15 200 -13 0 -15 -26 -16 -172 -1 -165 -2 -171 -16 -136 -9 21 -43 97
-78 170 -48 105 -66 134 -83 136 -22 3 -22 3 -22 -197z"/>
<path d="M6710 1590 c0 -170 2 -200 15 -200 12 0 15 28 17 173 l3 172 23 -50
c106 -233 138 -295 155 -295 16 0 17 16 17 200 0 175 -2 200 -16 200 -13 0
-15 -21 -12 -165 2 -91 0 -165 -4 -165 -3 0 -11 13 -16 29 -6 17 -39 91 -74
165 -53 115 -66 136 -85 136 l-23 0 0 -200z"/>
<path d="M7145 1778 c-3 -8 -27 -98 -54 -201 -42 -164 -46 -187 -31 -187 13 0
21 16 32 63 l14 62 61 3 60 3 18 -66 c11 -40 22 -65 31 -65 21 0 18 17 -35
215 -42 159 -50 180 -69 183 -12 2 -24 -3 -27 -10z m52 -126 c12 -48 23 -90
23 -94 0 -5 -22 -8 -50 -8 -27 0 -50 3 -50 8 -1 19 44 191 49 186 3 -2 15 -44
28 -92z"/>
<path d="M8240 1590 c0 -171 2 -200 15 -200 13 0 15 26 15 172 0 95 4 168 8
163 5 -6 28 -83 52 -172 35 -132 47 -163 61 -163 13 0 22 15 32 53 8 28 27 97
42 152 15 55 31 107 36 115 5 9 9 -56 9 -152 0 -161 1 -168 20 -168 19 0 20 7
20 200 l0 200 -28 0 c-29 0 -29 -1 -72 -157 -24 -87 -47 -165 -51 -173 -7 -13
-8 -13 -13 0 -5 13 -39 140 -77 288 -10 37 -15 42 -40 42 l-29 0 0 -200z"/>
<path d="M3400 1550 c0 -6 28 -10 65 -10 37 0 65 4 65 10 0 6 -28 10 -65 10
-37 0 -65 -4 -65 -10z"/>
<path d="M5350 1545 c0 -12 14 -15 65 -15 51 0 65 3 65 15 0 12 -14 15 -65 15
-51 0 -65 -3 -65 -15z"/>
</g>
</svg>
