<?xml version="1.0" standalone="no"?>
<!DOCTYPE svg PUBLIC "-//W3C//DTD SVG 20010904//EN"
 "http://www.w3.org/TR/2001/REC-SVG-20010904/DTD/svg10.dtd">
<svg version="1.0" xmlns="http://www.w3.org/2000/svg"
 width="512.000000pt" height="512.000000pt" viewBox="0 0 512.000000 512.000000"
 preserveAspectRatio="xMidYMid meet">
<metadata>
Created by potrace 1.16, written by Peter Selinger 2001-2019
</metadata>
<g transform="translate(0.000000,512.000000) scale(0.100000,-0.100000)"
fill="#000000" stroke="none">
<path d="M1610 2130 c0 -7 372 -10 1095 -10 723 0 1095 3 1095 10 0 7 -372 10
-1095 10 -723 0 -1095 -3 -1095 -10z"/>
<path d="M2091 1627 c-2 -48 -28 -47 863 -49 554 -2 835 0 833 7 -3 7 -296 12
-842 15 -826 5 -838 5 -846 25 -7 18 -8 18 -8 2z"/>
</g>
</svg>
