<?xml version="1.0" encoding="UTF-8" standalone="no"?>
<!-- Created with Inkscape (http://www.inkscape.org/) -->

<svg
   version="1.1"
   id="svg2"
   xml:space="preserve"
   width="215.19333"
   height="94.487465"
   viewBox="0 0 215.19333 94.487465"
   sodipodi:docname="a3d498d99bc6a0f9371d61ad05fc0491.eps"
   xmlns:inkscape="http://www.inkscape.org/namespaces/inkscape"
   xmlns:sodipodi="http://sodipodi.sourceforge.net/DTD/sodipodi-0.dtd"
   xmlns="http://www.w3.org/2000/svg"
   xmlns:svg="http://www.w3.org/2000/svg"><defs
     id="defs6" /><sodipodi:namedview
     id="namedview4"
     pagecolor="#ffffff"
     bordercolor="#666666"
     borderopacity="1.0"
     inkscape:pageshadow="2"
     inkscape:pageopacity="0.0"
     inkscape:pagecheckerboard="0" /><g
     id="g8"
     inkscape:groupmode="layer"
     inkscape:label="ink_ext_XXXXXX"
     transform="matrix(1.3333333,0,0,-1.3333333,0,94.487464)"><g
       id="g10"
       transform="scale(0.1)"><path
         d="M 708.738,104.668 H 133.313 V 586.34 H 708.738 V 104.668"
         style="fill:#ffffff;fill-opacity:1;fill-rule:evenodd;stroke:none"
         id="path12" /><path
         d="m 769.125,677.352 h 8.984 v -62.348 c 0,-2.852 -0.105,-6.031 -0.218,-8 -0.219,-3.621 -1.098,-6.574 -2.52,-9.207 -2.41,-4.277 -6.902,-7.668 -12.715,-9.645 l -4.379,5.594 c 4.051,1.641 7.45,4.379 8.985,7.34 1.422,2.523 1.863,6.023 1.863,13.695 v 62.571"
         style="fill:#1b458f;fill-opacity:1;fill-rule:nonzero;stroke:none"
         id="path14" /><path
         d="m 793.121,656.313 8.442,1.644 v -39.23 c 0,-5.368 0.66,-7.344 3.179,-8.985 1.75,-1.207 4.379,-2.082 6.789,-2.082 5.371,0 10.957,3.945 13.918,9.863 v 38.684 l 8.438,1.426 v -38.684 c 0,-6.25 0.222,-8.109 1.316,-10.195 0.551,-1.199 0.988,-1.75 2.414,-3.07 l -5.484,-5.805 c -3.613,2.957 -5.145,5.156 -5.918,8.769 -4.16,-5.593 -9.86,-8.332 -17.309,-8.332 -6.91,0 -12.273,2.848 -14.359,7.778 -0.988,2.086 -1.426,4.933 -1.426,8.113 v 40.106"
         style="fill:#1b458f;fill-opacity:1;fill-rule:nonzero;stroke:none"
         id="path16" /><path
         d="m 850.305,680.094 8.871,1.758 c 1.426,-4.168 1.312,-10.305 1.312,-16.883 v -51.836 c 0,-4.27 0.66,-5.473 3.071,-5.473 0.328,0 1.093,0.223 1.093,0.223 l 1.754,-5.594 c -2.187,-0.984 -3.179,-1.203 -5.472,-1.203 -2.746,0 -4.825,0.769 -6.469,2.297 -1.977,1.758 -2.633,3.84 -2.633,7.785 v 53.801 c 0,8.222 -0.223,11.289 -1.527,15.125"
         style="fill:#1b458f;fill-opacity:1;fill-rule:nonzero;stroke:none"
         id="path18" /><path
         d="m 878.789,656.539 9.098,1.418 v -55.773 h -9.098 z m 4.606,23.777 c 3.718,0 6.683,-2.964 6.683,-6.683 0,-3.731 -2.965,-6.692 -6.683,-6.692 -3.731,0 -6.692,2.961 -6.692,6.579 0,3.726 2.961,6.796 6.692,6.796"
         style="fill:#1b458f;fill-opacity:1;fill-rule:nonzero;stroke:none"
         id="path20" /><path
         d="m 906.402,656.313 8.438,1.644 v -39.23 c 0,-5.368 0.656,-7.344 3.18,-8.985 1.75,-1.207 4.382,-2.082 6.793,-2.082 5.375,0 10.953,3.945 13.917,9.863 v 38.684 l 8.438,1.426 v -38.684 c 0,-6.25 0.219,-8.109 1.312,-10.195 0.551,-1.199 0.989,-1.75 2.415,-3.07 l -5.481,-5.805 c -3.617,2.957 -5.148,5.156 -5.918,8.769 -4.164,-5.593 -9.863,-8.332 -17.312,-8.332 -6.907,0 -12.274,2.848 -14.356,7.778 -0.988,2.086 -1.426,4.933 -1.426,8.113 v 40.106"
         style="fill:#1b458f;fill-opacity:1;fill-rule:nonzero;stroke:none"
         id="path22" /><path
         d="m 997.141,654.559 -3.18,-6.356 c -4.82,2.305 -8.879,3.945 -13.695,3.945 -6.25,0 -10.305,-3.613 -10.305,-8.984 0,-1.973 0.547,-3.613 1.531,-4.824 1.207,-1.535 3.074,-2.406 6.36,-3.063 l 7.23,-1.539 c 9.863,-2.191 14.574,-7.121 14.574,-15.226 0,-10.629 -8.324,-17.867 -20.601,-17.867 -6.903,0 -14.461,2.085 -20.051,5.484 l 3.285,6.355 c 5.594,-3.402 11.289,-5.156 17.316,-5.156 6.684,0 11.071,3.617 11.071,9.43 0,4.93 -2.746,7.664 -8.988,8.984 l -6.793,1.426 c -4.934,1.094 -7.782,2.625 -10.301,5.473 -2.305,2.636 -3.508,5.922 -3.508,9.535 0,9.863 7.996,16.769 19.394,16.769 5.696,0 12.055,-1.754 16.661,-4.386"
         style="fill:#1b458f;fill-opacity:1;fill-rule:nonzero;stroke:none"
         id="path24" /><path
         d="m 1010.95,635.605 h 20.93 v -8.332 h -20.93 v 8.332"
         style="fill:#1b458f;fill-opacity:1;fill-rule:nonzero;stroke:none"
         id="path26" /><path
         d="m 1593.02,635.605 h 20.93 v -8.332 h -20.93 v 8.332"
         style="fill:#1b458f;fill-opacity:1;fill-rule:nonzero;stroke:none"
         id="path28" /><path
         d="m 1051.6,677.352 h 13.15 l 13.7,-49.09 c 1.43,-5.258 1.97,-7.344 2.96,-13.149 1.2,6.356 1.75,8.438 2.74,12.274 l 14.13,49.965 h 13.26 l 6.47,-75.168 h -8.99 l -4.38,55.121 c -0.33,4.812 -0.55,12.816 -0.55,12.816 -0.76,-3.726 -2.08,-8.875 -2.96,-11.832 l -16.11,-56.105 h -7.67 l -14.9,53.363 c -1.54,5.699 -2.63,9.422 -3.72,14.683 0,0 -0.56,-9.972 -0.88,-14.57 l -4.17,-53.476 h -8.66 l 6.58,75.168"
         style="fill:#1b458f;fill-opacity:1;fill-rule:nonzero;stroke:none"
         id="path30" /><path
         d="m 1157.89,629.906 c -1.86,0.11 -2.74,0.215 -4.28,0.215 -8.32,0 -12.92,-1.531 -15.67,-4.379 -2.08,-2.191 -3.06,-4.933 -3.06,-8.656 0,-6.473 3.18,-9.977 9.42,-9.977 5.59,0 10.74,3.399 13.26,8.555 z m -30.58,20.934 c 7.24,4.82 15.02,7.34 22.91,7.34 7.56,0 12.82,-2.961 15.12,-8.551 0.99,-2.414 1.21,-4.274 1.21,-9.313 0,-1.207 0,-2.086 0,-2.742 l -0.44,-17.969 c -0.11,-0.773 -0.11,-1.648 -0.11,-2.519 0,-6.688 0.99,-9.098 4.49,-10.852 l -4.38,-6.136 c -3.73,1.207 -6.47,4.164 -7.45,7.996 -5.26,-5.258 -9.53,-7.336 -15.78,-7.336 -6.9,0 -10.3,1.746 -13.15,4.383 -3.07,2.847 -4.38,7.672 -4.38,11.172 0,12.382 10.63,19.621 28.92,19.621 1.32,0 1.98,0 3.84,-0.114 v 3.836 c 0,4.824 -0.22,6.793 -1.75,8.547 -1.76,1.977 -3.95,2.965 -7.35,2.965 -3.18,0 -6.46,-0.66 -10.51,-2.414 -3.29,-1.316 -4.39,-2.078 -6.91,-4.059 l -4.28,6.145"
         style="fill:#1b458f;fill-opacity:1;fill-rule:nonzero;stroke:none"
         id="path32" /><path
         d="m 1178.71,656.539 h 10.52 l 10.74,-17.976 10.41,17.976 h 9.97 l -16.11,-24.113 20.94,-30.242 h -10.41 l -14.8,23.226 -14.79,-23.226 h -10.08 l 20.38,30.242 -16.77,24.113"
         style="fill:#1b458f;fill-opacity:1;fill-rule:nonzero;stroke:none"
         id="path34" /><path
         d="m 1233.39,656.539 9.1,1.418 v -55.773 h -9.1 z m 4.61,23.777 c 3.72,0 6.68,-2.964 6.68,-6.683 0,-3.731 -2.96,-6.692 -6.68,-6.692 -3.73,0 -6.69,2.961 -6.69,6.579 0,3.726 2.96,6.796 6.69,6.796"
         style="fill:#1b458f;fill-opacity:1;fill-rule:nonzero;stroke:none"
         id="path36" /><path
         d="m 1258.93,656.094 8.33,1.972 c 1.09,-2.187 1.96,-5.367 1.96,-7.671 v -0.434 c 2.53,2.633 3.62,3.398 6.69,5.258 3.51,2.086 6.25,2.961 9.21,2.961 4.27,0 8.43,-2.196 10.84,-5.481 0.77,-1.094 1.21,-1.754 1.87,-3.613 5.26,5.582 11.94,9.094 17.53,9.094 8.11,0 13.7,-6.141 13.7,-14.797 v -41.199 h -8.77 v 40.32 c 0,5.266 -2.41,8.004 -7.01,8.004 -2.63,0 -5.48,-1.094 -8,-2.961 -1.64,-1.203 -3.51,-2.738 -5.48,-4.602 l -0.99,-0.875 v -39.886 h -8.65 v 38.793 c 0,4.707 -0.11,5.472 -1.54,7.011 -1.31,1.532 -3.07,2.192 -5.59,2.192 -4.16,0 -8.22,-2.086 -13.91,-7.235 v -40.761 h -8.22 v 40.652 c 0,7.559 -0.22,8.769 -1.97,13.258"
         style="fill:#1b458f;fill-opacity:1;fill-rule:nonzero;stroke:none"
         id="path38" /><path
         d="m 1346.7,656.539 9.1,1.418 v -55.773 h -9.1 z m 4.6,23.777 c 3.73,0 6.69,-2.964 6.69,-6.683 0,-3.731 -2.96,-6.692 -6.69,-6.692 -3.72,0 -6.68,2.961 -6.68,6.579 0,3.726 2.96,6.796 6.68,6.796"
         style="fill:#1b458f;fill-opacity:1;fill-rule:nonzero;stroke:none"
         id="path40" /><path
         d="m 1372.78,680.094 8.88,1.758 c 1.42,-4.168 1.31,-10.305 1.31,-16.883 v -51.836 c 0,-4.27 0.66,-5.473 3.07,-5.473 0.33,0 1.09,0.223 1.09,0.223 l 1.76,-5.594 c -2.19,-0.984 -3.18,-1.203 -5.48,-1.203 -2.74,0 -4.82,0.769 -6.46,2.297 -1.98,1.758 -2.64,3.84 -2.64,7.785 v 53.801 c 0,8.222 -0.21,11.289 -1.53,15.125"
         style="fill:#1b458f;fill-opacity:1;fill-rule:nonzero;stroke:none"
         id="path42" /><path
         d="m 1401.27,656.539 9.1,1.418 v -55.773 h -9.1 z m 4.61,23.777 c 3.72,0 6.68,-2.964 6.68,-6.683 0,-3.731 -2.96,-6.692 -6.68,-6.692 -3.73,0 -6.69,2.961 -6.69,6.579 0,3.726 2.96,6.796 6.69,6.796"
         style="fill:#1b458f;fill-opacity:1;fill-rule:nonzero;stroke:none"
         id="path44" /><path
         d="m 1456.84,629.906 c -1.87,0.11 -2.75,0.215 -4.28,0.215 -8.33,0 -12.93,-1.531 -15.67,-4.379 -2.08,-2.191 -3.07,-4.933 -3.07,-8.656 0,-6.473 3.18,-9.977 9.42,-9.977 5.59,0 10.74,3.399 13.26,8.555 z m -30.58,20.934 c 7.23,4.82 15.01,7.34 22.9,7.34 7.56,0 12.82,-2.961 15.13,-8.551 0.98,-2.414 1.2,-4.274 1.2,-9.313 0,-1.207 0,-2.086 0,-2.742 l -0.44,-17.969 c -0.1,-0.773 -0.1,-1.648 -0.1,-2.519 0,-6.688 0.98,-9.098 4.48,-10.852 l -4.38,-6.136 c -3.73,1.207 -6.46,4.164 -7.45,7.996 -5.26,-5.258 -9.53,-7.336 -15.78,-7.336 -6.9,0 -10.3,1.746 -13.15,4.383 -3.07,2.847 -4.38,7.672 -4.38,11.172 0,12.382 10.63,19.621 28.93,19.621 1.31,0 1.97,0 3.83,-0.114 v 3.836 c 0,4.824 -0.21,6.793 -1.75,8.547 -1.75,1.977 -3.95,2.965 -7.34,2.965 -3.18,0 -6.47,-0.66 -10.52,-2.414 -3.29,-1.316 -4.39,-2.078 -6.91,-4.059 l -4.27,6.145"
         style="fill:#1b458f;fill-opacity:1;fill-rule:nonzero;stroke:none"
         id="path46" /><path
         d="m 1481.71,655.77 8.32,2.296 c 1.43,-3.066 1.98,-5.367 1.98,-8.546 5.7,5.699 11.4,8.437 17.2,8.437 5.92,0 11.18,-3.176 13.37,-7.996 0.88,-1.973 1.32,-4.172 1.32,-6.359 v -41.418 h -8.66 v 36.925 c 0,5.809 -0.33,7.34 -1.97,9.094 -1.21,1.426 -3.51,2.305 -6.03,2.305 -4.38,0 -11.18,-3.508 -15.12,-7.672 v -40.652 h -8.33 v 40.652 c 0,7.559 -0.22,8.769 -2.08,12.934"
         style="fill:#1b458f;fill-opacity:1;fill-rule:nonzero;stroke:none"
         id="path48" /><path
         d="m 1574.42,654.559 -3.18,-6.356 c -4.82,2.305 -8.88,3.945 -13.7,3.945 -6.25,0 -10.3,-3.613 -10.3,-8.984 0,-1.973 0.55,-3.613 1.53,-4.824 1.21,-1.535 3.07,-2.406 6.36,-3.063 l 7.23,-1.539 c 9.87,-2.191 14.58,-7.121 14.58,-15.226 0,-10.629 -8.33,-17.867 -20.61,-17.867 -6.9,0 -14.46,2.085 -20.05,5.484 l 3.29,6.355 c 5.59,-3.402 11.29,-5.156 17.31,-5.156 6.69,0 11.07,3.617 11.07,9.43 0,4.93 -2.74,7.664 -8.98,8.984 l -6.8,1.426 c -4.93,1.094 -7.78,2.625 -10.3,5.473 -2.3,2.636 -3.51,5.922 -3.51,9.535 0,9.863 8,16.769 19.4,16.769 5.7,0 12.05,-1.754 16.66,-4.386"
         style="fill:#1b458f;fill-opacity:1;fill-rule:nonzero;stroke:none"
         id="path50" /><path
         d="M 0,0 V 708.656 H 708.656 V 566.93 H 141.73 V 141.738 H 708.656 V 0 H 0"
         style="fill:#1b458f;fill-opacity:1;fill-rule:evenodd;stroke:none"
         id="path52" /><path
         d="m 412.52,525.102 h 29.691 v -94.887 c 0,-10.797 0.418,-13.285 2.492,-17.231 3.324,-6.437 10.176,-9.968 19.727,-9.968 12.664,0 20.761,6.23 22.008,16.82 0.414,3.113 0.414,5.187 0.414,12.875 v 92.391 h 29.48 v -97.168 c 0,-13.707 -0.203,-16.407 -2.277,-22.629 -3.742,-11.422 -17.86,-27.203 -49.004,-27.203 -22.008,0 -37.996,6.644 -46.301,19.308 -4.773,7.477 -6.23,13.289 -6.23,27.199 v 100.493"
         style="fill:#1b458f;fill-opacity:1;fill-rule:nonzero;stroke:none"
         id="path54" /><path
         d="m 545.406,525.102 h 32.184 l 27.609,-57.719 c 7.266,-15.367 12.871,-30.524 15.781,-40.903 -1.039,11.211 -2.074,29.692 -2.285,39.657 l -0.625,58.965 h 27.618 V 380.801 h -30.313 l -24.711,55.23 c -7.887,18.063 -16.816,38.41 -19.516,47.336 1.04,-11.836 1.247,-28.855 1.454,-40.902 l 0.832,-61.664 h -28.028 v 144.301"
         style="fill:#1b458f;fill-opacity:1;fill-rule:nonzero;stroke:none"
         id="path56" /><path
         d="m 678.391,525.102 h 30.308 V 380.801 h -30.308 v 144.301"
         style="fill:#1b458f;fill-opacity:1;fill-rule:nonzero;stroke:none"
         id="path58" /><path
         d="m 729.785,525.102 h 31.77 l 23.875,-75.161 c 0.625,-2.492 2.91,-9.964 4.57,-16.195 0.828,-3.531 1.246,-4.98 2.074,-8.926 0.832,4.149 1.246,5.395 2.492,10.379 2.286,7.684 3.532,11.211 5.817,18.477 l 24.5,71.426 30.515,0.211 -50.242,-145.551 h -26.367 l -49.004,145.34"
         style="fill:#1b458f;fill-opacity:1;fill-rule:nonzero;stroke:none"
         id="path60" /><path
         d="m 871.184,525.102 h 82.218 l -3.734,-23.668 h -49.414 v -33.43 h 41.316 v -23.668 h -40.902 v -38.617 h 54.605 v -24.918 h -84.089 v 144.301"
         style="fill:#1b458f;fill-opacity:1;fill-rule:nonzero;stroke:none"
         id="path62" /><path
         d="m 1005.72,501.852 -0.2,-39.039 h 9.75 c 12.46,0 17.86,1.25 21.81,4.777 3.53,3.324 5.6,8.512 5.6,14.535 0,8.926 -3.52,14.949 -10.38,17.645 -3.32,1.25 -9.34,2.082 -16.4,2.082 z m -28.65,23.461 53.78,-0.211 c 25.54,0 42.35,-17.028 42.35,-42.352 0,-21.598 -14.32,-39.453 -32.18,-39.867 2.91,-2.289 4.16,-3.531 6.02,-6.024 8.31,-10.379 34.68,-56.058 34.68,-56.058 h -34.26 c -5.61,9.551 -7.89,13.496 -13.5,23.672 -14.33,25.953 -18.89,32.8 -23.88,35.293 -1.45,0.625 -2.28,1.039 -4.56,1.25 v -60.215 h -28.45 v 144.512"
         style="fill:#1b458f;fill-opacity:1;fill-rule:nonzero;stroke:none"
         id="path64" /><path
         d="m 1194.67,514.93 -13.7,-20.766 c -13.08,7.891 -22.84,11.008 -33.64,11.008 -11.84,0 -20.14,-6.852 -20.14,-16.613 0,-7.473 3.94,-11.211 15.99,-14.532 l 17.44,-4.773 c 23.67,-6.441 36.54,-21.598 36.54,-42.984 0,-29.274 -23.67,-48.586 -59.59,-48.586 -16.4,0 -34.67,4.777 -49.21,13.082 l 10.8,22.632 c 13.5,-7.058 25.12,-11.625 39.66,-11.625 16.61,0 25.33,6.848 25.33,19.719 0,9.348 -6.02,15.367 -18.9,18.688 l -15.98,4.359 c -14.33,3.945 -23.26,9.555 -28.45,18.274 -3.94,6.441 -6.02,13.91 -6.02,22.011 0,26.367 21.18,44.641 51.7,44.641 17.65,0 35.5,-5.402 48.17,-14.535"
         style="fill:#1b458f;fill-opacity:1;fill-rule:nonzero;stroke:none"
         id="path66" /><path
         d="m 1222.91,525.102 h 30.31 V 380.801 h -30.31 v 144.301"
         style="fill:#1b458f;fill-opacity:1;fill-rule:nonzero;stroke:none"
         id="path68" /><path
         d="m 1272.23,525.102 h 104.02 l -4.78,-24.082 h -34.46 V 380.801 h -29.49 V 501.02 h -35.29 v 24.082"
         style="fill:#1b458f;fill-opacity:1;fill-rule:nonzero;stroke:none"
         id="path70" /><path
         d="m 1470.51,545.863 c 0,-9.136 -7.47,-16.605 -16.6,-16.605 -9.14,0 -16.41,7.469 -16.41,16.605 0,9.137 7.48,16.614 16.82,16.614 8.93,0 16.19,-7.477 16.19,-16.614 z m -51.07,-106.718 h 28.24 c 0,0 -4.78,15.156 -7.89,29.07 -1.46,6.644 -5.82,25.535 -5.82,25.535 0,0 -4.15,-17.027 -6.85,-27.82 -2.7,-10.383 -4.57,-17.235 -7.68,-26.785 z m -8.93,123.332 c 8.93,0 16.19,-7.477 16.19,-16.614 0,-9.136 -7.47,-16.605 -16.61,-16.605 -8.92,0 -16.4,7.469 -16.4,16.605 0,9.137 7.68,16.614 16.82,16.614 z m 8.72,-36.961 h 31.35 l 45.47,-144.715 h -31.14 l -10.17,34.258 h -42.36 l -10.18,-34.258 h -30.31 l 47.34,144.715"
         style="fill:#1b458f;fill-opacity:1;fill-rule:nonzero;stroke:none"
         id="path72" /><path
         d="m 1497.69,525.102 h 104.01 l -4.77,-24.082 h -34.46 V 380.801 h -29.49 V 501.02 h -35.29 v 24.082"
         style="fill:#1b458f;fill-opacity:1;fill-rule:nonzero;stroke:none"
         id="path74" /><path
         d="m 412.145,325.258 h 30.726 l 12.457,-56.891 c 6.024,-26.988 7.684,-47.547 7.684,-47.547 0.621,5.606 3.117,26.16 7.476,46.094 l 12.871,58.344 h 31.77 l 13.285,-64.57 c 2.699,-13.497 6.231,-38.208 6.231,-38.208 0.414,4.571 5.398,35.922 7.89,47.965 l 11.836,54.813 h 30.516 L 550.012,179.711 h -31.77 l -12.875,58.762 c -4.98,22.422 -6.64,40.691 -6.851,41.937 0,0 -2.907,-20.347 -7.063,-41.523 l -11.828,-59.176 h -33.02 l -34.46,145.547"
         style="fill:#1b458f;fill-opacity:1;fill-rule:nonzero;stroke:none"
         id="path76" /><path
         d="m 604.813,325.102 h 29.695 v -94.887 c 0,-10.797 0.414,-13.285 2.488,-17.231 3.324,-6.437 10.176,-9.968 19.727,-9.968 12.668,0 20.761,6.23 22.007,16.82 0.415,3.113 0.415,5.187 0.415,12.875 v 92.391 h 29.484 v -97.168 c 0,-13.707 -0.207,-16.407 -2.281,-22.629 -3.743,-11.422 -17.856,-27.203 -49.004,-27.203 -22.008,0 -37.992,6.644 -46.297,19.308 -4.777,7.477 -6.234,13.289 -6.234,27.199 v 100.493"
         style="fill:#1b458f;fill-opacity:1;fill-rule:nonzero;stroke:none"
         id="path78" /><path
         d="m 769.824,302.008 -0.207,-39.039 h 9.758 c 12.461,0 17.855,1.25 21.801,4.773 3.531,3.328 5.605,8.52 5.605,14.539 0,8.926 -3.523,14.949 -10.379,17.645 -3.32,1.25 -9.339,2.082 -16.402,2.082 z m -28.652,23.461 53.777,-0.211 c 25.539,0 42.356,-17.028 42.356,-42.352 0,-21.597 -14.325,-39.453 -32.184,-39.871 2.91,-2.281 4.156,-3.527 6.024,-6.019 8.304,-10.379 34.675,-56.059 34.675,-56.059 h -34.257 c -5.61,9.551 -7.891,13.496 -13.497,23.672 -14.332,25.953 -18.894,32.801 -23.882,35.293 -1.45,0.625 -2.282,1.039 -4.567,1.25 v -60.215 h -28.445 v 144.512"
         style="fill:#1b458f;fill-opacity:1;fill-rule:nonzero;stroke:none"
         id="path80" /><path
         d="m 868.652,325.258 h 86.375 v -20.973 l -53.566,-90.316 c -3.117,-5.192 -7.477,-10.168 -7.477,-10.168 0,0 8.516,0.828 14.329,0.828 h 48.582 l -7.469,-23.672 h -90.113 v 20.348 l 53.152,87.828 c 3.945,6.644 8.926,13.078 8.926,13.078 0,0 -6.02,-1.035 -14.743,-1.035 h -44.429 l 6.433,24.082"
         style="fill:#1b458f;fill-opacity:1;fill-rule:nonzero;stroke:none"
         id="path82" /><path
         d="m 1011.92,243.66 v -39.031 h 18.9 c 6.02,0 10.17,1.035 13.49,3.32 4.36,3.321 7.48,9.965 7.48,16.817 0,8.304 -4.36,15.367 -10.59,17.652 -3.53,1.035 -4.57,1.242 -11.21,1.242 z m -0.42,57.098 v -33.219 h 17.24 c 6.85,0 9.97,0.414 12.46,1.871 3.94,2.074 7.47,9.137 7.47,14.945 0,6.02 -3.32,12.04 -8.3,14.536 -2.5,1.035 -5.61,1.867 -12.05,1.867 z m -28.648,24.711 h 48.798 c 17.64,0 26.78,-2.699 35.5,-10.379 8.1,-7.063 11.83,-15.367 11.83,-25.75 0,-9.762 -3.53,-18.067 -9.76,-24.289 -4.15,-3.949 -6.64,-5.403 -13.28,-7.477 19.31,-5.816 28.65,-17.441 28.65,-36.34 0,-19.929 -12.46,-38.203 -37.79,-39.863 -4.57,-0.203 -10.59,-0.414 -18.48,-0.414 h -45.468 v 144.512"
         style="fill:#1b458f;fill-opacity:1;fill-rule:nonzero;stroke:none"
         id="path84" /><path
         d="m 1107.16,325.258 h 29.69 v -94.887 c 0,-10.797 0.42,-13.285 2.49,-17.23 3.33,-6.438 10.18,-9.965 19.73,-9.965 12.66,0 20.76,6.226 22,16.812 0.42,3.117 0.42,5.192 0.42,12.879 v 92.391 h 29.48 V 228.09 c 0,-13.703 -0.2,-16.406 -2.28,-22.629 -3.74,-11.422 -17.86,-27.203 -49,-27.203 -22.01,0 -38,6.644 -46.3,19.308 -4.78,7.477 -6.23,13.289 -6.23,27.2 v 100.492"
         style="fill:#1b458f;fill-opacity:1;fill-rule:nonzero;stroke:none"
         id="path86" /><path
         d="m 1272.64,302.008 -0.21,-39.039 h 9.76 c 12.46,0 17.85,1.25 21.8,4.773 3.53,3.328 5.6,8.52 5.6,14.539 0,8.926 -3.52,14.949 -10.38,17.645 -3.32,1.25 -9.34,2.082 -16.4,2.082 z m -28.66,23.461 53.78,-0.211 c 25.54,0 42.36,-17.028 42.36,-42.352 0,-21.597 -14.33,-39.453 -32.19,-39.871 2.91,-2.281 4.16,-3.527 6.03,-6.019 8.3,-10.379 34.67,-56.059 34.67,-56.059 h -34.25 c -5.62,9.551 -7.9,13.496 -13.5,23.672 -14.33,25.953 -18.9,32.801 -23.88,35.293 -1.45,0.625 -2.28,1.039 -4.57,1.25 v -60.215 h -28.45 v 144.512"
         style="fill:#1b458f;fill-opacity:1;fill-rule:nonzero;stroke:none"
         id="path88" /><path
         d="m 1467.9,310.934 -15.37,-18.063 c -9.34,7.68 -19.1,11.211 -30.1,11.211 -8.51,0 -15.78,-2.488 -20.76,-7.266 -9.76,-9.347 -12.25,-24.918 -12.25,-46.507 0,-20.559 3.53,-33.848 10.79,-41.114 5.4,-5.191 13.29,-8.097 22.64,-8.097 6.43,0 11.62,1.035 16.4,3.531 v 32.801 h -22.01 l -3.74,23.672 h 55.86 v -68.934 c -14.75,-8.723 -30.94,-12.871 -47.97,-12.871 -21.59,0 -37.58,7.058 -49.21,22.008 -10.58,13.496 -15.36,28.863 -15.36,50.453 0,30.523 9.97,52.113 30.1,65.609 10.59,7.063 21.39,10.176 35.1,10.176 17.44,0 33.21,-5.605 45.88,-16.609"
         style="fill:#1b458f;fill-opacity:1;fill-rule:nonzero;stroke:none"
         id="path90" /><path
         d="m 634.496,368.629 c 8.902,0 16.168,-7.086 16.168,-15.809 0,-8.898 -7.266,-16.164 -15.984,-16.164 -8.903,0 -15.989,7.266 -15.989,16.164 0,8.723 7.086,15.809 15.805,15.809"
         style="fill:#1b458f;fill-opacity:1;fill-rule:nonzero;stroke:none"
         id="path92" /><path
         d="m 679.348,368.629 c 8.898,0 16.164,-7.086 16.164,-15.809 0,-8.898 -7.266,-16.164 -15.985,-16.164 -8.902,0 -15.988,7.266 -15.988,16.164 0,8.723 7.086,15.809 15.809,15.809"
         style="fill:#1b458f;fill-opacity:1;fill-rule:nonzero;stroke:none"
         id="path94" /></g></g></svg>
