<?xml version="1.0" standalone="no"?>
<!DOCTYPE svg PUBLIC "-//W3C//DTD SVG 20010904//EN"
 "http://www.w3.org/TR/2001/REC-SVG-20010904/DTD/svg10.dtd">
<svg version="1.0" xmlns="http://www.w3.org/2000/svg"
 width="283.000000pt" height="283.000000pt" viewBox="0 0 283.000000 283.000000"
 preserveAspectRatio="xMidYMid meet">

<g transform="translate(0.000000,283.000000) scale(0.100000,-0.100000)"
fill="#000000" stroke="none">
<path d="M0 1415 l0 -1415 1415 0 1415 0 0 280 0 280 -1132 2 -1133 3 0 850 0
850 1133 3 1132 2 0 280 0 280 -1415 0 -1415 0 0 -1415z"/>
<path d="M1650 1862 c0 -262 4 -279 81 -322 36 -20 58 -24 119 -25 100 0 160
28 189 89 19 39 21 61 21 264 l0 222 -55 0 -55 0 0 -199 c0 -255 -9 -281 -94
-281 -89 0 -96 19 -96 275 l0 205 -55 0 -55 0 0 -228z"/>
<path d="M2180 1805 l0 -285 56 0 55 0 -7 198 c-4 108 -4 195 -1 192 3 -3 44
-91 90 -195 l84 -190 62 -3 61 -3 0 286 0 285 -56 0 -57 0 5 -182 5 -183 -20
45 c-10 25 -49 107 -85 183 l-65 137 -64 0 -63 0 0 -285z"/>
<path d="M2710 1805 l0 -285 60 0 60 0 0 285 0 285 -60 0 -60 0 0 -285z"/>
<path d="M2490 1450 c-11 -11 -20 -28 -20 -38 0 -31 29 -62 59 -62 57 0 84 50
50 93 -25 32 -61 35 -89 7z"/>
<path d="M2670 1450 c-24 -24 -25 -48 -4 -78 31 -45 104 -19 104 37 0 55 -61
80 -100 41z"/>
<path d="M1652 1283 c3 -10 34 -141 69 -291 l64 -273 65 3 65 3 35 183 c19
100 37 182 40 182 3 0 15 -53 28 -118 12 -64 30 -147 38 -184 l16 -68 61 0 62
0 64 273 c36 149 67 280 69 290 4 15 -3 17 -51 17 -31 0 -58 -3 -60 -7 -4 -7
-55 -250 -72 -348 -7 -37 -8 -38 -15 -15 -5 14 -23 103 -41 198 l-33 172 -61
0 -62 0 -31 -142 c-17 -79 -34 -161 -38 -183 -11 -65 -20 -71 -28 -19 -3 27
-20 115 -38 197 l-32 147 -59 0 c-52 0 -59 -2 -55 -17z"/>
<path d="M2420 1063 c0 -221 2 -240 20 -271 46 -75 208 -102 300 -51 84 47 85
48 88 320 l3 239 -60 0 -61 0 0 -224 0 -225 -26 -20 c-38 -30 -98 -28 -129 4
l-25 24 0 221 0 220 -55 0 -55 0 0 -237z"/>
</g>
</svg>
